{"glyphs":{"、":{"ha":1389,"x_min":76,"x_max":372,"o":"m 314 -94 q 321 -92 318 -94 l 361 -69 q 368 -47 372 -60 q 265 103 328 40 q 108 213 203 165 q 101 214 106 214 q 89 206 92 214 l 83 194 q 89 172 76 182 q 209 67 158 129 q 300 -85 260 6 q 310 -93 304 -92 q 314 -94 311 -94 z "},"。":{"ha":1389,"x_min":53,"x_max":408,"o":"m 231 239 q 142 215 182 239 q 77 151 101 192 q 53 61 53 111 q 77 -29 53 11 q 142 -93 101 -69 q 231 -117 182 -117 q 321 -93 281 -117 q 385 -29 361 -69 q 408 61 408 11 q 385 151 408 111 q 321 215 361 192 q 231 239 281 239 m 231 -67 q 140 -29 178 -67 q 103 61 103 8 q 140 151 103 114 q 231 189 178 189 q 321 151 283 189 q 358 61 358 114 q 321 -29 358 8 q 231 -67 283 -67 z "},"・":{"ha":1389,"x_min":610,"x_max":779,"o":"m 694 628 q 646 610 668 628 q 610 528 610 579 q 640 451 610 482 q 694 428 664 428 q 768 475 742 428 q 777 501 775 488 q 779 528 779 514 q 756 596 779 568 q 694 628 728 628 z "},"゛":{"ha":1389,"x_min":82,"x_max":368,"o":"m 90 1064 q 94 1038 82 1050 q 147 980 125 1011 q 181 914 168 949 q 221 871 197 871 q 256 919 256 871 q 218 1000 256 958 q 114 1071 181 1042 q 90 1064 97 1079 m 199 1160 q 204 1133 190 1147 q 259 1076 238 1106 q 293 1015 281 1047 q 333 969 311 969 q 368 1018 368 969 q 329 1099 368 1058 q 281 1138 308 1121 q 222 1168 254 1154 q 199 1160 207 1172 z "},"゜":{"ha":1389,"x_min":85,"x_max":314,"o":"m 200 1169 q 122 1133 156 1169 q 85 1035 85 1094 q 92 985 85 1008 q 114 943 99 963 q 200 899 150 899 q 275 933 244 899 q 314 1035 314 974 q 283 1125 314 1086 q 200 1169 250 1169 m 200 1125 q 250 1100 228 1125 q 275 1035 275 1072 q 256 974 275 999 q 200 943 232 943 q 149 967 169 943 q 122 1035 122 993 q 142 1094 122 1067 q 200 1125 165 1125 z "},"ヽ":{"ha":1389,"x_min":465,"x_max":883,"o":"m 475 800 q 479 775 465 786 q 574 678 531 728 q 650 579 617 628 q 779 321 728 469 q 795 277 789 294 q 807 251 801 260 q 836 228 819 228 q 883 304 883 228 q 863 386 883 336 q 800 501 843 436 q 674 657 747 582 q 506 804 600 732 q 476 803 486 819 l 475 800 z "},"ヾ":{"ha":1389,"x_min":458,"x_max":1061,"o":"m 786 871 q 790 847 779 858 q 874 719 851 789 q 913 676 889 676 q 949 725 949 676 q 911 806 949 767 q 867 843 892 825 q 810 875 842 861 q 786 871 790 882 m 894 967 q 900 943 888 956 q 986 821 963 888 q 1026 775 1003 775 q 1061 824 1061 775 q 1022 903 1061 860 q 917 971 982 946 q 894 967 899 978 m 467 765 q 469 740 458 751 q 565 642 522 692 q 642 544 608 593 q 712 424 679 489 q 771 286 744 360 q 787 242 781 260 q 799 217 793 225 q 828 193 811 193 q 875 269 875 193 q 855 352 875 303 q 792 467 835 401 q 497 771 686 631 q 468 768 478 785 l 467 765 z "},"ゝ":{"ha":1389,"x_min":499,"x_max":885,"o":"m 543 189 q 575 182 554 168 q 788 292 746 292 q 814 285 797 292 q 842 274 833 274 q 869 290 857 274 q 885 350 885 313 q 746 569 885 450 q 675 639 706 603 q 621 713 644 675 q 574 801 594 753 q 539 907 554 850 q 517 924 535 929 q 503 900 499 919 q 582 654 536 731 q 689 514 614 601 l 739 456 q 769 404 769 421 q 743 368 769 392 q 549 215 678 311 q 543 189 535 204 z "},"ゞ":{"ha":1389,"x_min":508,"x_max":1064,"o":"m 553 147 q 566 138 557 139 q 585 142 575 136 q 797 251 756 251 q 822 244 811 251 q 853 233 844 233 q 879 250 867 233 q 893 308 893 269 q 757 529 893 410 q 685 599 717 564 q 631 671 653 635 q 584 760 604 711 q 549 865 564 808 q 526 882 544 888 q 513 858 508 876 q 592 613 544 694 q 750 415 619 565 q 779 364 779 381 q 773 348 779 358 q 753 326 767 338 q 666 256 715 294 q 558 174 617 218 q 553 147 544 163 m 786 858 q 792 832 778 846 q 878 708 853 779 q 917 665 894 665 q 951 714 951 665 q 914 794 951 753 q 810 865 876 836 q 786 858 793 874 m 894 954 q 900 928 886 942 q 989 810 967 872 q 1029 764 1008 764 q 1064 813 1064 764 q 1025 893 1064 853 q 918 963 985 936 q 894 954 904 968 z "},"ー":{"ha":1389,"x_min":229,"x_max":1126,"o":"m 410 478 q 488 479 432 478 q 617 483 543 481 q 769 487 690 485 q 919 492 849 489 q 1041 496 990 494 q 1107 497 1092 497 q 1126 518 1126 500 l 1125 538 q 1119 551 1125 547 q 1106 557 1114 557 q 987 553 1072 557 q 800 547 901 550 q 683 545 749 546 q 539 544 617 544 q 486 544 511 544 q 443 544 461 544 q 425 544 433 544 q 410 544 417 544 q 326 558 358 546 q 272 597 294 569 q 257 606 268 606 q 246 601 253 606 l 239 597 q 231 585 233 593 q 233 571 229 578 q 301 500 261 522 q 406 478 342 478 l 410 478 z "},"〈":{"ha":1389,"x_min":810,"x_max":1257,"o":"m 1221 1156 q 1206 1147 1211 1156 l 817 538 q 817 518 810 528 l 1206 -92 q 1221 -100 1211 -100 l 1225 -100 q 1250 -87 1243 -100 q 1247 -60 1257 -74 l 872 528 l 1247 1115 q 1255 1142 1257 1129 q 1243 1156 1253 1156 l 1221 1156 z "},"〉":{"ha":1389,"x_min":132,"x_max":579,"o":"m 142 -60 q 139 -87 132 -74 q 164 -100 146 -100 l 168 -100 q 183 -92 178 -100 l 572 518 q 572 538 579 528 l 183 1147 q 168 1156 178 1156 l 164 1156 q 139 1142 146 1156 q 142 1115 132 1129 l 517 528 l 142 -60 z "},"《":{"ha":1389,"x_min":788,"x_max":1283,"o":"m 1104 -100 q 1126 -89 1119 -100 q 1126 -64 1133 -78 l 840 528 l 1126 1119 q 1126 1144 1133 1133 q 1104 1156 1119 1156 l 1103 1156 q 1086 1144 1093 1156 l 792 536 q 792 519 788 528 l 1086 -89 q 1103 -100 1093 -100 l 1104 -100 m 1254 -100 q 1276 -89 1269 -100 q 1276 -64 1283 -78 l 990 528 l 1276 1119 q 1276 1144 1283 1133 q 1254 1156 1269 1156 l 1253 1156 q 1236 1144 1243 1156 l 942 536 q 942 519 938 528 l 1236 -89 q 1253 -100 1243 -100 l 1254 -100 z "},"》":{"ha":1389,"x_min":106,"x_max":601,"o":"m 136 -100 q 153 -89 146 -100 l 447 519 q 447 536 451 528 l 153 1144 q 136 1156 146 1156 l 135 1156 q 113 1144 119 1156 q 113 1119 106 1133 l 399 528 l 113 -64 q 108 -89 106 -78 q 121 -100 111 -100 l 136 -100 m 286 -100 q 303 -89 296 -100 l 597 519 q 597 536 601 528 l 303 1144 q 286 1156 296 1156 l 285 1156 q 263 1144 269 1156 q 263 1119 256 1133 l 549 528 l 263 -64 q 258 -89 256 -78 q 271 -100 261 -100 l 286 -100 z "},"「":{"ha":1389,"x_min":957,"x_max":1247,"o":"m 978 1147 q 957 1126 957 1147 l 957 168 q 978 147 957 147 l 988 147 q 1008 168 1008 147 l 1008 1086 l 1226 1086 q 1247 1107 1247 1086 l 1247 1126 q 1226 1147 1247 1147 l 978 1147 z "},"」":{"ha":1389,"x_min":142,"x_max":432,"o":"m 411 -92 q 432 -71 432 -92 l 432 888 q 411 908 432 908 l 401 908 q 381 888 381 908 l 381 -31 l 163 -31 q 142 -51 142 -31 l 142 -71 q 163 -92 142 -92 l 411 -92 z "},"【":{"ha":1389,"x_min":1003,"x_max":1221,"o":"m 1003 -79 q 1024 -100 1003 -100 l 1188 -100 q 1214 -85 1207 -100 q 1210 -56 1221 -71 q 1044 529 1044 181 q 1210 1111 1044 875 q 1214 1141 1221 1126 q 1188 1156 1207 1156 l 1024 1156 q 1003 1135 1003 1156 l 1003 -79 z "},"】":{"ha":1389,"x_min":167,"x_max":386,"o":"m 386 1135 q 365 1156 386 1156 l 201 1156 q 174 1141 182 1156 q 178 1111 167 1126 q 344 526 344 874 q 179 -56 344 181 q 175 -85 168 -71 q 201 -100 182 -100 l 365 -100 q 386 -79 386 -100 l 386 1135 z "},"±":{"ha":1389,"x_min":153,"x_max":789,"o":"m 153 126 q 174 106 153 106 l 768 106 q 789 126 789 106 l 789 150 q 768 171 789 171 l 174 171 q 153 150 153 171 l 153 126 m 768 529 q 789 550 789 529 l 789 572 q 768 593 789 593 l 501 593 l 501 847 q 481 868 501 868 l 464 868 q 443 847 443 868 l 443 593 l 174 593 q 153 572 153 593 l 153 550 q 174 529 153 529 l 443 529 l 443 258 q 464 238 443 238 l 481 238 q 501 258 501 238 l 501 529 l 768 529 z "},"×":{"ha":1389,"x_min":224,"x_max":718,"o":"m 657 176 q 690 176 672 158 l 704 192 q 704 217 717 204 l 513 443 l 706 671 q 706 696 718 683 l 693 711 q 660 711 676 731 l 471 490 l 282 711 q 265 720 275 721 q 249 711 256 719 l 236 697 q 236 672 224 685 l 431 443 l 238 214 q 238 189 225 201 l 250 174 q 283 174 267 154 l 471 394 l 657 176 z "},"÷":{"ha":1389,"x_min":153,"x_max":789,"o":"m 153 431 q 174 410 153 410 l 768 410 q 789 431 789 410 l 789 454 q 768 475 789 475 l 174 475 q 153 454 153 475 l 153 431 m 471 758 q 419 735 439 758 q 394 668 394 708 q 414 608 394 632 q 471 578 435 578 q 522 600 501 578 q 547 668 547 628 q 529 729 547 706 q 471 758 506 758 m 471 304 q 419 282 442 304 q 394 214 394 257 q 414 153 394 176 q 471 124 436 124 q 522 146 501 124 q 547 214 547 172 q 529 275 547 251 q 471 304 506 304 z "},"＝":{"ha":1389,"x_min":289,"x_max":1100,"o":"m 289 654 q 310 633 289 633 l 1079 633 q 1100 654 1100 633 l 1100 676 q 1079 697 1100 697 l 310 697 q 289 676 289 697 l 289 654 m 289 379 q 310 358 289 358 l 1079 358 q 1100 379 1100 358 l 1100 401 q 1079 422 1100 422 l 310 422 q 289 401 289 422 l 289 379 z "},"≠":{"ha":1389,"x_min":153,"x_max":789,"o":"m 174 344 q 153 324 153 344 l 153 301 q 174 281 153 281 l 393 281 l 332 71 q 344 46 328 53 l 358 40 q 376 40 368 36 q 388 54 385 44 l 453 281 l 768 281 q 789 301 789 281 l 789 324 q 768 344 789 344 l 472 344 l 529 538 l 768 538 q 789 558 789 538 l 789 581 q 768 601 789 601 l 549 601 l 610 811 q 597 836 614 829 l 583 842 q 565 842 574 846 q 554 828 557 838 l 489 601 l 174 601 q 153 581 153 601 l 153 558 q 174 538 153 538 l 469 538 l 413 344 l 174 344 z "},"＜":{"ha":1389,"x_min":221,"x_max":1172,"o":"m 233 549 q 221 528 221 542 q 233 507 221 514 l 1132 -58 q 1160 -60 1147 -68 q 1172 -35 1172 -53 l 1172 -24 q 1164 -8 1172 -14 l 307 528 l 1164 1064 q 1172 1079 1172 1069 l 1172 1090 q 1160 1116 1172 1108 q 1132 1114 1147 1124 l 233 549 z "},"ぁ":{"ha":1389,"x_min":314,"x_max":1067,"o":"m 606 431 q 750 468 678 464 q 618 171 744 301 q 612 165 615 168 q 606 158 608 161 l 606 431 m 550 401 l 550 114 q 439 64 481 63 l 438 64 q 386 94 407 64 q 369 150 369 117 q 415 275 369 203 q 550 401 461 347 m 738 -61 q 740 -60 739 -61 q 743 -60 742 -60 q 913 24 840 -28 q 1025 142 985 76 q 1065 278 1065 207 q 1024 403 1067 346 q 804 522 940 511 q 802 550 804 536 q 799 578 800 564 q 793 589 799 583 q 783 592 788 592 q 781 592 782 592 q 781 592 781 592 l 758 589 q 744 569 742 586 q 748 546 747 558 q 750 524 749 533 q 606 490 678 519 l 606 615 q 640 624 621 619 q 681 635 658 629 q 771 661 719 646 q 886 696 822 676 q 896 704 894 699 q 897 717 900 710 l 890 738 q 875 749 888 749 q 873 749 874 749 q 871 749 872 749 q 773 719 829 736 q 665 689 717 703 q 635 680 650 683 q 606 672 619 676 l 606 857 q 600 869 606 864 q 589 874 594 874 l 567 874 q 550 857 550 874 l 550 660 q 529 657 539 658 q 513 654 519 656 q 508 654 511 654 q 504 654 506 654 l 499 654 q 457 658 469 654 q 438 671 444 663 q 426 688 431 678 q 419 708 422 697 q 403 721 414 721 q 401 721 401 721 q 400 721 401 721 l 394 719 q 385 713 388 717 q 382 699 379 706 q 415 636 392 661 q 504 600 449 600 q 510 600 507 600 q 517 600 514 600 q 532 601 524 600 q 550 604 540 603 l 550 465 q 537 457 543 461 q 524 450 531 453 q 372 311 429 393 q 315 150 315 229 q 321 103 314 125 q 340 63 328 81 q 435 14 374 14 l 436 14 q 491 24 463 14 q 550 51 519 33 l 550 19 q 567 3 550 3 l 589 3 q 606 19 606 3 l 606 92 q 658 140 631 113 q 806 468 800 286 q 979 369 914 456 q 1011 278 1011 329 q 979 170 1011 228 q 885 62 947 113 q 729 -19 822 11 q 719 -40 715 -24 l 722 -49 q 731 -58 725 -57 q 738 -61 733 -61 z "},"あ":{"ha":1389,"x_min":239,"x_max":1165,"o":"m 596 549 q 776 596 690 592 q 614 228 771 389 q 606 219 610 224 q 596 210 601 215 l 596 549 m 529 514 l 529 157 q 392 94 446 94 l 390 94 q 325 132 353 94 q 306 203 306 163 q 331 303 306 247 q 406 414 356 358 q 529 514 456 469 m 761 -57 q 767 -56 764 -57 q 976 47 886 -17 q 1115 192 1065 111 q 1165 360 1164 272 q 1113 514 1165 446 q 843 661 1013 649 q 840 695 842 678 q 836 731 839 713 q 828 743 833 739 q 817 747 824 747 q 815 747 815 747 q 813 747 814 747 l 786 743 q 769 721 767 739 q 774 691 772 706 q 776 663 775 676 q 596 621 688 658 l 596 778 q 638 789 615 783 q 689 801 661 794 q 824 840 754 819 q 944 876 893 861 q 956 886 950 878 q 957 901 960 892 l 949 928 q 931 942 944 942 q 927 941 928 942 q 925 940 926 940 q 805 904 874 925 q 672 865 736 883 q 633 855 651 860 q 596 846 614 850 l 596 1075 q 576 1094 596 1094 l 549 1094 q 535 1089 542 1094 q 529 1075 529 1083 l 529 832 q 503 827 514 829 q 483 825 492 825 q 472 824 479 824 l 465 824 q 414 829 431 824 q 389 844 397 835 q 364 892 372 861 q 344 906 360 906 q 343 906 343 906 q 342 906 343 906 l 338 904 q 325 896 329 903 q 322 879 321 886 q 364 804 336 832 q 471 757 404 757 l 472 757 q 481 758 476 757 q 488 758 485 758 q 508 760 497 760 q 529 764 518 761 l 529 590 q 513 581 521 586 q 496 571 504 576 q 362 463 419 525 q 272 334 304 401 q 239 203 239 267 q 271 94 239 142 q 386 35 313 35 l 388 35 q 529 82 456 38 l 529 40 q 535 26 529 32 q 549 21 542 21 l 576 21 q 596 40 596 21 l 596 131 q 629 159 613 144 q 661 190 646 174 q 795 381 750 282 q 843 594 840 479 q 1060 474 978 581 q 1099 360 1099 425 q 1060 222 1100 294 q 944 88 1021 150 q 753 -12 867 25 q 740 -37 735 -19 l 742 -43 q 751 -54 744 -51 q 761 -57 757 -57 z "},"ぃ":{"ha":1389,"x_min":308,"x_max":1081,"o":"m 1064 261 q 1075 265 1071 261 q 1081 278 1081 269 q 928 628 1078 524 q 918 631 925 631 q 916 631 917 631 q 915 631 915 631 q 904 624 908 631 l 899 614 q 901 593 889 604 q 994 463 964 539 q 1025 276 1024 386 q 1042 261 1025 261 l 1064 261 m 506 15 q 508 15 507 15 q 508 15 508 15 l 536 19 q 549 32 546 21 q 551 42 550 38 q 554 50 553 47 q 560 74 554 53 q 578 125 567 94 q 604 188 589 156 q 639 242 619 219 q 643 253 643 246 q 638 264 643 260 l 629 271 q 617 276 624 276 q 611 275 614 276 q 606 274 608 274 q 561 215 586 253 q 521 133 536 178 q 517 121 519 128 q 513 108 514 114 q 451 274 479 183 q 408 432 424 364 q 387 529 396 483 q 371 606 378 575 q 364 640 367 625 q 360 665 361 656 q 343 679 357 679 q 342 679 343 679 q 340 679 342 679 l 322 676 q 311 669 314 674 q 308 657 308 661 q 326 566 314 631 q 358 419 339 501 q 423 187 389 286 q 492 26 457 88 q 506 18 496 18 l 506 15 z "},"い":{"ha":1389,"x_min":217,"x_max":1168,"o":"m 1149 356 q 1163 361 1157 356 q 1168 375 1168 365 q 975 801 1168 669 q 964 806 971 806 q 962 805 963 806 q 960 804 961 804 q 947 796 953 804 l 944 790 q 949 765 935 778 q 1063 603 1026 697 q 1101 375 1100 510 q 1108 361 1101 367 q 1121 356 1114 356 l 1149 356 m 460 53 q 462 53 461 53 q 464 53 463 53 l 497 58 q 513 72 510 61 q 515 85 514 79 q 518 94 517 92 q 526 123 518 97 q 547 187 533 149 q 581 264 561 225 q 624 331 600 303 q 622 357 635 344 l 617 363 q 603 368 613 368 q 595 367 599 368 q 589 365 592 365 q 529 291 561 335 q 479 197 497 247 q 474 181 476 189 q 468 164 471 172 q 416 297 440 225 q 372 438 392 368 q 338 564 351 508 q 310 685 322 628 q 292 779 299 742 q 284 823 288 804 q 279 854 281 842 q 260 869 274 869 q 258 869 258 869 q 257 869 257 869 l 233 865 q 221 858 225 865 q 218 843 217 851 q 239 731 224 811 q 278 550 254 651 q 443 65 357 218 q 460 56 449 56 l 460 53 z "},"ぅ":{"ha":1389,"x_min":385,"x_max":951,"o":"m 551 -71 q 554 -71 553 -71 q 557 -71 556 -71 q 654 -28 597 -57 q 772 53 711 1 q 882 183 833 104 q 951 396 951 290 q 922 508 951 461 q 838 578 892 560 q 733 597 783 597 q 624 578 676 597 q 529 535 572 558 q 510 528 519 531 q 492 525 501 525 q 425 563 449 525 q 411 571 419 571 q 407 569 408 571 l 399 568 q 389 560 390 565 q 388 546 385 554 q 417 497 397 519 q 488 467 444 467 q 557 488 519 467 q 733 542 653 542 q 776 538 754 542 q 818 526 797 535 q 875 479 857 514 q 896 396 896 446 q 880 303 896 353 q 836 210 864 254 q 694 55 772 106 q 540 -26 617 4 q 531 -47 525 -32 l 535 -60 q 543 -69 536 -65 q 551 -71 546 -71 m 714 697 q 717 699 715 697 q 728 704 722 699 l 740 722 q 736 746 749 736 q 664 808 694 776 q 608 879 633 840 q 594 888 604 888 q 586 885 592 888 l 578 881 q 571 860 565 874 q 624 774 593 811 q 704 701 656 736 q 714 697 708 697 z "},"う":{"ha":1389,"x_min":336,"x_max":1033,"o":"m 540 -69 q 543 -69 542 -69 q 546 -69 544 -69 q 666 -17 594 -53 q 813 83 738 19 q 949 243 888 146 q 1033 507 1033 379 q 999 643 1033 585 q 953 697 981 675 q 893 731 926 718 q 764 754 829 754 q 631 730 694 754 q 514 678 568 706 q 467 665 492 665 q 383 713 413 665 q 367 721 378 721 q 365 721 365 721 q 361 721 364 721 l 353 718 q 340 708 346 717 q 339 692 336 701 q 375 632 350 658 q 461 594 410 594 q 547 619 501 594 q 764 688 669 688 q 871 668 815 688 q 942 610 917 651 q 967 507 967 568 q 947 392 967 453 q 893 276 928 332 q 773 126 836 185 q 647 33 710 68 q 531 -24 585 -1 q 518 -47 513 -29 l 521 -56 q 531 -68 522 -62 q 540 -69 533 -69 m 742 879 q 742 879 742 879 q 744 879 743 879 q 757 888 753 882 l 772 910 q 768 938 783 925 q 611 1103 669 1010 q 594 1113 604 1113 q 589 1112 592 1113 q 583 1110 586 1111 l 574 1103 q 565 1078 558 1094 q 631 974 592 1021 q 729 883 671 926 q 742 879 736 879 z "},"ぇ":{"ha":1389,"x_min":357,"x_max":1063,"o":"m 924 -22 q 1051 10 983 -22 q 1060 18 1058 11 q 1058 32 1063 26 l 1050 47 q 1035 57 1044 57 q 1031 56 1032 57 q 976 38 1001 44 q 926 31 950 31 q 858 53 883 31 q 836 106 836 71 q 836 118 836 111 q 839 131 836 125 q 843 162 842 147 q 844 190 844 176 q 778 325 847 279 q 744 340 763 335 q 707 346 725 346 q 676 339 694 346 l 878 586 q 879 604 885 596 l 864 628 q 850 635 860 635 q 848 635 849 635 q 846 635 847 635 q 786 619 822 629 q 709 599 750 610 q 631 578 668 589 q 571 561 594 568 q 533 554 547 554 q 481 585 501 554 q 467 590 475 590 q 465 590 465 590 q 463 590 464 590 l 454 588 q 443 579 447 586 q 443 565 440 572 q 468 526 451 543 q 536 500 494 500 l 538 500 q 588 508 561 500 q 665 531 617 518 q 756 556 714 544 l 790 564 l 361 26 q 357 14 357 22 q 363 3 357 8 l 381 -11 q 390 -14 386 -14 q 404 -8 396 -14 l 600 238 q 707 290 657 290 q 747 278 728 290 q 790 190 790 250 q 789 168 790 181 q 785 142 788 156 q 781 106 781 122 q 822 11 781 46 q 924 -22 861 -22 m 700 692 q 701 692 700 692 q 701 692 701 692 q 713 697 710 692 l 726 715 q 724 739 738 728 q 655 803 681 771 q 608 879 629 836 q 593 889 603 889 q 590 888 592 889 q 586 888 589 888 l 581 885 q 572 864 568 878 q 617 774 592 815 q 690 694 642 732 q 700 692 696 692 z "},"え":{"ha":1389,"x_min":286,"x_max":1156,"o":"m 986 -3 q 1143 35 1061 -3 q 1153 47 1150 39 q 1153 63 1156 51 l 1147 72 q 1129 83 1140 83 q 1127 83 1128 83 q 1125 82 1126 82 q 989 61 1050 61 q 904 88 938 61 q 876 154 876 113 q 881 185 876 168 q 889 260 889 225 q 806 424 889 371 q 718 449 767 449 q 679 440 700 449 l 929 747 q 931 769 939 757 l 913 797 q 896 807 906 807 q 894 807 894 807 q 892 807 893 807 q 817 788 863 800 q 722 763 772 776 q 626 738 672 750 q 551 715 581 725 q 504 707 526 707 q 433 743 458 707 q 418 750 426 750 q 415 750 417 750 q 413 750 414 750 l 406 749 q 394 738 396 746 q 393 722 390 732 q 424 675 406 693 q 507 642 456 642 l 508 642 q 571 651 540 642 q 667 679 606 663 q 779 710 728 696 q 802 715 790 713 q 824 721 814 718 l 292 56 q 288 42 286 47 q 294 28 288 35 l 315 11 q 328 7 322 7 q 343 14 339 7 l 586 318 q 718 382 657 382 q 769 368 747 382 q 822 260 821 333 q 820 231 822 246 q 815 199 818 215 q 813 176 814 188 q 810 154 811 164 q 861 38 810 82 q 986 -3 910 -3 m 710 878 q 711 878 711 878 q 713 878 711 878 q 725 885 721 878 l 742 907 q 739 935 754 922 q 654 1015 686 975 q 596 1108 622 1054 q 578 1119 592 1119 q 569 1118 572 1119 l 563 1114 q 553 1090 546 1107 q 608 979 575 1031 q 697 882 640 928 q 710 878 703 878 z "},"ぉ":{"ha":1389,"x_min":360,"x_max":1093,"o":"m 1061 538 q 1072 543 1068 538 l 1089 558 q 1093 569 1093 563 q 1089 581 1093 576 q 1000 684 1042 632 q 932 775 958 736 q 921 782 929 779 q 920 782 921 782 q 918 782 919 782 q 908 779 914 782 l 903 775 q 899 754 894 767 q 967 643 931 694 q 1049 543 1003 592 q 1061 538 1054 538 q 1061 538 1061 538 q 1061 538 1061 538 m 538 282 l 538 106 q 534 72 538 90 q 525 47 531 54 q 506 36 518 36 l 504 36 q 449 69 482 36 q 421 140 421 100 q 430 180 421 156 q 467 232 439 204 q 538 282 494 258 m 507 -8 q 569 25 547 -8 q 592 106 592 53 l 592 310 q 613 317 603 314 q 632 325 622 321 q 818 361 736 361 q 925 339 882 361 q 985 278 965 318 q 999 210 999 249 q 958 103 999 143 q 899 65 939 83 q 806 44 858 46 q 801 44 803 44 q 799 44 800 44 q 760 48 781 44 q 715 56 740 51 q 714 56 714 56 q 713 56 714 56 q 703 53 706 56 q 696 43 697 47 l 694 31 q 708 13 692 15 q 761 4 736 7 q 810 1 786 1 q 996 67 931 1 q 1054 210 1054 125 q 1035 300 1054 257 q 950 389 1010 360 q 818 417 894 417 q 614 376 728 417 q 603 372 608 375 q 592 368 597 369 l 592 540 q 667 564 626 550 q 749 592 708 578 q 758 600 754 593 q 758 613 761 606 l 751 633 q 735 644 747 644 q 729 643 732 644 q 658 620 694 632 q 592 597 622 608 l 592 814 q 575 831 592 831 l 553 831 q 538 814 538 831 l 536 582 l 533 582 q 526 579 531 581 q 519 578 522 578 q 496 574 507 575 q 475 572 485 572 q 424 585 440 572 q 397 613 408 599 q 385 619 393 619 q 378 617 381 619 l 369 614 q 361 603 364 610 q 363 590 360 599 q 411 539 382 558 q 485 518 442 518 q 532 524 508 518 q 538 525 533 525 l 538 344 q 429 271 472 314 q 365 140 365 210 q 410 38 365 85 q 506 -8 458 -8 l 507 -8 z "},"お":{"ha":1389,"x_min":249,"x_max":1161,"o":"m 1114 703 q 1128 708 1122 703 l 1147 726 q 1149 754 1161 742 q 1039 883 1089 818 q 954 994 989 947 q 942 1003 950 1000 q 940 1003 940 1003 q 939 1003 939 1003 q 926 999 933 1003 l 921 993 q 915 969 908 985 q 1100 708 992 825 q 1114 703 1108 703 q 1114 703 1114 703 q 1114 703 1114 703 m 468 388 l 468 168 q 465 128 468 150 q 454 96 461 106 q 429 82 442 82 l 428 82 q 358 124 397 82 q 324 211 324 158 q 333 260 322 231 q 381 324 344 289 q 419 357 397 342 q 468 388 442 372 m 429 28 q 507 68 481 28 q 535 168 535 107 l 535 419 q 560 430 547 425 q 585 439 572 435 q 706 473 647 461 q 815 485 765 485 q 946 457 893 485 q 1021 381 997 432 q 1038 297 1038 343 q 989 165 1038 211 q 914 116 964 140 q 799 90 864 92 q 794 90 797 90 q 790 89 792 89 q 688 101 747 89 q 685 101 686 101 q 683 101 685 101 q 678 101 681 101 q 672 99 675 100 q 664 85 665 92 l 663 76 q 678 54 660 57 q 744 44 713 47 q 804 40 775 40 q 1035 121 951 40 q 1104 297 1104 193 q 1081 408 1104 354 q 976 517 1049 481 q 815 551 907 551 q 563 503 704 551 q 549 497 556 500 q 535 492 542 494 l 535 706 q 628 735 578 718 q 728 769 678 751 q 739 779 736 772 q 740 794 742 786 l 731 819 q 713 833 726 833 q 710 833 711 833 q 706 832 708 832 q 535 775 615 799 l 535 1043 q 528 1057 535 1051 q 515 1063 522 1063 l 488 1063 q 468 1043 468 1063 l 468 756 l 463 754 q 453 752 458 753 q 444 750 449 751 q 417 746 431 747 q 390 744 403 744 q 326 760 349 744 q 290 792 304 775 q 275 800 286 800 q 267 797 272 800 l 261 794 q 251 782 254 790 q 253 767 249 772 q 313 704 281 724 q 403 678 353 678 q 431 680 417 678 q 460 685 444 682 q 464 686 461 686 q 468 688 467 686 l 468 463 q 333 372 386 422 q 257 211 257 296 q 311 85 257 142 q 429 28 371 28 z "},"か":{"ha":1389,"x_min":236,"x_max":1243,"o":"m 1196 399 q 1208 403 1203 399 l 1229 421 q 1233 447 1243 432 q 1149 581 1189 504 q 1079 721 1108 658 q 1051 783 1065 751 q 1025 846 1038 814 q 1015 867 1019 857 q 1010 883 1011 876 q 999 893 1004 892 q 992 894 997 894 q 988 894 989 894 q 983 894 986 894 l 978 892 q 965 869 963 888 q 990 788 974 840 q 1033 678 1007 735 l 1035 674 q 1101 535 1067 604 q 1181 408 1136 465 q 1193 400 1185 403 q 1194 400 1194 400 q 1196 400 1194 400 l 1196 399 m 663 -7 l 697 -7 q 714 4 708 -7 q 772 139 742 61 q 827 311 803 217 q 860 514 851 406 q 861 535 861 525 q 861 556 861 546 q 803 731 861 672 q 651 783 747 783 q 605 781 629 783 q 553 772 581 778 q 580 912 568 844 q 600 1043 592 979 q 597 1058 601 1051 q 583 1065 593 1063 l 563 1068 q 561 1068 561 1068 q 560 1068 561 1068 q 540 1051 543 1068 q 517 913 532 986 q 482 756 503 840 q 465 750 472 753 q 447 744 457 747 q 425 737 436 740 q 403 731 414 733 q 365 722 382 725 q 336 719 349 719 q 301 728 313 719 q 281 754 289 738 q 263 765 274 765 q 262 765 263 765 q 260 765 261 765 l 254 764 q 240 756 244 761 q 239 739 236 746 q 271 685 247 707 q 354 654 304 654 q 388 658 371 654 q 425 668 406 661 q 443 674 433 671 q 464 681 453 678 q 377 363 428 525 q 265 33 326 200 q 276 7 258 15 l 303 -1 q 310 -3 304 -3 q 314 -3 311 -3 q 318 -3 317 -3 q 328 8 325 0 q 447 360 394 186 q 538 700 499 535 q 599 711 571 707 q 651 715 628 715 q 756 682 722 715 q 794 554 794 644 q 794 537 794 546 q 793 518 794 528 q 764 327 786 417 q 718 170 742 238 q 678 67 694 103 q 590 171 636 136 q 508 221 543 206 q 500 222 506 222 q 485 215 489 222 l 479 208 q 475 193 474 200 q 483 179 476 186 q 558 121 513 160 q 646 1 603 82 q 663 -8 650 -8 l 663 -7 z "},"が":{"ha":1389,"x_min":236,"x_max":1272,"o":"m 1226 979 q 1235 982 1229 979 l 1260 993 q 1269 1006 1268 999 q 1268 1021 1272 1013 q 1210 1101 1242 1069 q 1122 1175 1178 1133 q 1111 1178 1119 1178 q 1096 1172 1101 1178 l 1089 1164 q 1083 1149 1083 1158 q 1086 1142 1085 1146 q 1090 1136 1088 1139 q 1210 990 1167 1067 q 1226 979 1214 979 m 1117 875 q 1124 876 1121 875 l 1149 886 q 1160 897 1154 889 q 1158 913 1163 907 q 1088 1012 1131 969 q 1011 1079 1046 1054 q 999 1082 1003 1082 q 998 1082 999 1082 q 996 1082 997 1082 q 983 1074 988 1081 l 978 1067 q 974 1053 974 1061 q 982 1040 975 1044 q 1046 974 1014 1015 q 1099 886 1078 932 q 1117 875 1103 875 m 1196 399 q 1208 403 1203 399 l 1229 421 q 1233 447 1243 432 q 1149 581 1189 504 q 1079 721 1108 658 q 1051 783 1065 751 q 1025 846 1038 814 q 1015 867 1019 857 q 1010 883 1011 876 q 999 893 1004 892 q 992 894 997 894 q 988 894 989 894 q 983 894 986 894 l 978 892 q 965 869 963 888 q 990 788 974 840 q 1033 678 1007 735 l 1035 674 q 1101 535 1067 604 q 1181 408 1136 465 q 1193 400 1185 403 q 1194 400 1194 400 q 1196 400 1194 400 l 1196 399 m 663 -7 l 697 -7 q 714 4 708 -7 q 772 139 742 61 q 827 311 803 217 q 860 514 851 406 q 861 535 861 525 q 861 556 861 546 q 803 731 861 672 q 651 783 747 783 q 605 781 629 783 q 553 772 581 778 q 580 912 568 844 q 600 1043 592 979 q 597 1058 601 1051 q 583 1065 593 1063 l 563 1068 q 561 1068 561 1068 q 560 1068 561 1068 q 540 1051 543 1068 q 517 913 532 986 q 482 756 503 840 q 465 750 472 753 q 447 744 457 747 q 425 737 436 740 q 403 731 414 733 q 365 722 382 725 q 336 719 349 719 q 301 728 313 719 q 281 754 289 738 q 263 765 274 765 q 262 765 263 765 q 260 765 261 765 l 254 764 q 240 756 244 761 q 239 739 236 746 q 271 685 247 707 q 354 654 304 654 q 388 658 371 654 q 425 668 406 661 q 443 674 433 671 q 464 681 453 678 q 377 363 428 525 q 265 33 326 200 q 276 7 258 15 l 303 -1 q 310 -3 304 -3 q 314 -3 311 -3 q 318 -3 317 -3 q 328 8 325 0 q 447 360 394 186 q 538 700 499 535 q 599 711 571 707 q 651 715 628 715 q 756 682 722 715 q 794 554 794 644 q 794 537 794 546 q 793 518 794 528 q 764 327 786 417 q 718 170 742 238 q 678 67 694 103 q 590 171 636 136 q 508 221 543 206 q 500 222 506 222 q 485 215 489 222 l 479 208 q 475 193 474 200 q 483 179 476 186 q 558 121 513 160 q 646 1 603 82 q 663 -8 650 -8 l 663 -7 z "},"き":{"ha":1389,"x_min":342,"x_max":1061,"o":"m 739 -32 q 810 -28 774 -32 q 886 -18 847 -25 q 899 -10 894 -15 q 901 6 903 -1 l 896 32 q 876 49 893 49 q 874 47 875 49 q 739 35 803 35 q 540 79 606 35 q 463 148 490 113 q 432 243 436 183 q 432 261 429 253 q 418 283 435 279 l 414 283 q 410 285 413 285 q 399 281 403 285 q 390 268 390 276 q 389 254 389 261 q 389 240 389 247 q 396 184 389 219 q 428 107 403 149 q 507 29 453 65 q 739 -32 600 -32 m 925 247 q 938 253 929 247 l 963 274 q 968 297 974 282 q 911 424 942 351 q 844 588 881 497 q 918 621 881 603 q 994 658 956 639 l 1049 685 q 1058 696 1056 688 q 1057 711 1061 704 l 1046 735 q 1035 746 1043 740 q 1032 746 1033 746 q 1028 746 1031 746 q 1019 744 1022 746 l 985 728 l 978 724 q 897 685 936 704 q 821 649 857 665 q 791 725 806 686 q 761 803 776 764 l 747 840 q 849 887 800 864 q 935 932 897 910 q 944 944 942 936 q 942 960 946 953 l 928 983 q 911 992 922 992 q 901 989 904 992 q 725 903 831 947 q 700 969 711 939 q 679 1026 689 1000 q 663 1072 669 1053 q 651 1103 656 1092 q 633 1117 647 1117 q 626 1115 629 1117 l 601 1107 q 590 1096 592 1103 q 589 1082 586 1090 q 616 1006 596 1060 q 663 876 636 953 q 608 855 635 865 q 557 839 581 844 q 517 831 535 833 q 483 828 499 828 q 381 864 425 828 q 368 869 375 869 q 360 867 365 869 l 353 864 q 343 851 344 858 q 346 836 342 843 q 486 761 394 761 l 489 761 q 531 766 508 763 q 575 775 553 769 q 627 792 599 782 q 686 814 656 803 q 724 715 706 764 q 760 622 742 667 q 582 565 661 579 q 556 561 568 563 q 532 560 543 560 q 421 601 464 560 q 407 606 414 606 q 401 605 404 606 q 396 604 397 604 l 390 600 q 382 586 385 596 q 388 572 382 578 q 551 499 453 499 q 593 503 575 499 q 682 524 636 510 q 783 563 728 539 q 819 477 800 521 q 857 394 839 433 l 861 383 l 864 376 q 872 362 868 369 q 878 347 875 354 q 792 384 833 374 q 713 400 751 394 q 711 400 711 400 q 710 400 711 400 q 692 385 694 400 l 689 378 q 703 354 686 358 q 774 329 735 346 q 849 292 813 313 q 914 254 886 272 q 925 250 918 250 l 925 247 z "},"ぎ":{"ha":1389,"x_min":342,"x_max":1281,"o":"m 1235 994 q 1243 996 1240 994 l 1268 1008 q 1278 1019 1275 1011 q 1276 1035 1281 1029 q 1217 1115 1250 1083 q 1131 1189 1185 1147 q 1118 1193 1125 1193 q 1104 1186 1111 1193 l 1096 1178 q 1092 1164 1092 1172 q 1099 1150 1092 1154 q 1217 1004 1175 1083 q 1235 994 1222 994 m 1124 889 q 1132 890 1129 889 l 1157 901 q 1167 913 1164 904 q 1167 928 1169 917 q 1096 1026 1139 985 q 1018 1093 1053 1068 q 1007 1097 1014 1097 q 1003 1096 1004 1097 q 990 1088 994 1096 l 986 1081 q 990 1054 976 1065 q 1053 988 1022 1031 q 1106 900 1085 946 q 1124 889 1113 889 m 739 -32 q 810 -28 774 -32 q 886 -18 847 -25 q 899 -10 894 -15 q 901 6 903 -1 l 896 32 q 876 49 893 49 q 874 47 875 49 q 739 35 803 35 q 540 79 606 35 q 463 148 490 113 q 432 243 436 183 q 432 261 429 253 q 418 283 435 279 l 414 283 q 410 285 413 285 q 399 281 403 285 q 390 268 390 276 q 389 254 389 261 q 389 240 389 247 q 396 184 389 219 q 428 107 403 149 q 507 29 453 65 q 739 -32 600 -32 m 925 247 q 938 253 929 247 l 963 274 q 968 297 974 282 q 911 424 942 351 q 844 588 881 497 q 918 621 881 603 q 994 658 956 639 l 1049 685 q 1058 696 1056 688 q 1057 711 1061 704 l 1046 735 q 1035 746 1043 740 q 1032 746 1033 746 q 1028 746 1031 746 q 1019 744 1022 746 l 985 728 l 978 724 q 897 685 936 704 q 821 649 857 665 q 791 725 806 686 q 761 803 776 764 l 747 840 q 849 887 800 864 q 935 932 897 910 q 944 944 942 936 q 942 960 946 953 l 928 983 q 911 992 922 992 q 901 989 904 992 q 725 903 831 947 q 700 969 711 939 q 679 1026 689 1000 q 663 1072 669 1053 q 651 1103 656 1092 q 633 1117 647 1117 q 626 1115 629 1117 l 601 1107 q 590 1096 592 1103 q 589 1082 586 1090 q 616 1006 596 1060 q 663 876 636 953 q 608 855 635 865 q 557 839 581 844 q 517 831 535 833 q 483 828 499 828 q 381 864 425 828 q 368 869 375 869 q 360 867 365 869 l 353 864 q 343 851 344 858 q 346 836 342 843 q 486 761 394 761 l 489 761 q 531 766 508 763 q 575 775 553 769 q 627 792 599 782 q 686 814 656 803 q 724 715 706 764 q 760 622 742 667 q 582 565 661 579 q 556 561 568 563 q 532 560 543 560 q 421 601 464 560 q 407 606 414 606 q 401 605 404 606 q 396 604 397 604 l 390 600 q 382 586 385 596 q 388 572 382 578 q 551 499 453 499 q 593 503 575 499 q 682 524 636 510 q 783 563 728 539 q 819 477 800 521 q 857 394 839 433 l 861 383 l 864 376 q 872 362 868 369 q 878 347 875 354 q 792 384 833 374 q 713 400 751 394 q 711 400 711 400 q 710 400 711 400 q 692 385 694 400 l 689 378 q 703 354 686 358 q 774 329 735 346 q 849 292 813 313 q 914 254 886 272 q 925 250 918 250 l 925 247 z "},"く":{"ha":1389,"x_min":346,"x_max":882,"o":"m 832 -74 l 863 -72 q 878 -64 874 -72 q 881 -47 882 -54 q 426 494 771 313 q 509 576 460 526 q 613 681 558 626 q 713 785 667 736 q 786 863 760 833 q 847 944 824 906 q 871 1025 869 983 q 836 1110 871 1071 q 822 1117 832 1117 q 808 1111 814 1117 l 807 1110 q 804 1086 799 1099 q 806 1008 825 1047 q 760 935 788 969 q 707 876 742 913 q 633 799 672 839 q 560 724 594 758 q 510 671 526 689 q 399 560 444 606 q 353 514 354 515 q 347 497 346 507 l 353 465 q 364 451 356 456 q 573 317 486 390 q 717 153 660 244 q 811 -60 775 61 q 831 -74 815 -74 l 832 -74 z "},"ぐ":{"ha":1389,"x_min":346,"x_max":1165,"o":"m 1119 718 q 1128 719 1125 718 l 1153 732 q 1163 743 1160 735 q 1161 758 1165 753 q 1102 840 1135 808 q 1015 913 1069 871 q 1004 917 1011 917 q 989 910 996 917 l 982 901 q 976 888 976 896 q 983 874 976 881 q 1051 803 1022 839 q 1103 728 1081 767 q 1119 718 1108 718 m 1010 613 q 1017 614 1014 613 l 1042 625 q 1053 636 1049 626 q 1051 651 1056 643 q 981 750 1024 708 q 903 817 939 792 q 892 821 899 821 q 890 821 890 821 q 889 821 890 821 q 876 811 881 818 l 871 804 q 875 778 861 789 q 939 712 907 754 q 992 624 971 669 q 1010 613 996 613 m 831 -74 l 832 -74 l 863 -72 q 878 -64 874 -72 q 881 -47 882 -54 q 426 494 771 313 q 509 576 460 526 q 613 681 558 626 q 713 785 667 736 q 786 863 760 833 q 847 944 824 906 q 871 1025 869 983 q 836 1110 871 1071 q 822 1117 832 1117 q 808 1111 814 1117 l 807 1110 q 804 1086 799 1099 q 806 1008 825 1047 q 760 935 788 969 q 707 876 742 913 q 633 799 672 839 q 560 724 594 758 q 510 671 526 689 q 399 560 444 606 q 353 514 354 515 q 347 497 346 507 l 353 465 q 364 451 356 456 q 573 317 486 390 q 717 153 660 244 q 811 -60 775 61 q 831 -74 815 -74 z "},"け":{"ha":1389,"x_min":281,"x_max":1165,"o":"m 717 -82 q 726 -79 721 -82 q 828 -15 786 -47 q 897 54 869 17 q 967 267 958 138 q 967 267 967 267 q 967 268 967 268 l 975 686 q 1049 703 1004 692 q 1150 729 1093 714 q 1163 738 1158 731 q 1165 745 1164 742 q 1164 753 1165 749 l 1157 779 q 1138 793 1153 793 q 1135 793 1136 793 q 1133 793 1135 793 q 1078 778 1114 788 q 999 760 1042 769 l 996 758 q 987 756 992 757 q 978 754 982 756 l 985 1085 q 979 1099 985 1093 q 965 1104 974 1104 l 938 1106 q 924 1099 929 1106 q 918 1086 918 1093 l 910 739 q 822 723 860 729 q 757 715 783 717 q 750 715 754 715 q 743 715 746 715 l 740 715 q 642 735 675 714 q 588 788 608 756 q 571 797 581 797 q 567 797 569 797 q 563 796 564 796 l 558 793 q 549 782 551 790 q 549 767 544 775 q 578 723 561 743 q 615 688 594 703 q 743 649 667 649 q 752 649 747 649 q 761 649 757 649 q 826 656 789 650 q 908 671 863 661 l 900 269 q 888 171 899 224 q 850 81 878 118 q 704 -37 801 14 q 696 -62 688 -44 l 700 -71 q 711 -81 703 -78 q 717 -82 713 -82 m 351 -35 q 352 -35 351 -35 q 353 -33 353 -35 l 386 -31 q 403 -15 400 -28 q 453 147 422 81 q 532 258 485 214 q 539 272 539 264 q 533 285 539 279 l 528 292 q 513 299 521 299 q 500 294 506 299 q 367 92 414 226 q 352 206 357 142 q 347 339 347 271 q 362 575 347 454 q 403 786 376 696 q 419 897 419 844 q 354 1065 419 1007 q 342 1071 349 1071 l 340 1071 q 326 1064 331 1071 l 322 1058 q 322 1033 313 1046 q 357 899 358 990 q 339 806 354 860 q 296 584 311 710 q 281 339 281 458 q 332 -21 281 118 q 351 -35 339 -35 z "},"げ":{"ha":1389,"x_min":281,"x_max":1313,"o":"m 1267 989 q 1276 992 1271 989 l 1300 1004 q 1311 1015 1307 1006 q 1310 1031 1313 1022 q 1251 1111 1283 1079 q 1164 1185 1218 1143 q 1151 1189 1158 1189 q 1138 1182 1142 1189 l 1129 1174 q 1125 1160 1125 1167 q 1132 1146 1125 1150 q 1250 1000 1208 1079 q 1267 989 1254 989 m 1157 907 q 1160 908 1158 907 q 1164 908 1163 908 l 1189 919 q 1200 931 1197 922 q 1200 946 1203 936 q 1129 1044 1172 1003 q 1051 1111 1086 1086 q 1040 1115 1047 1115 q 1038 1115 1039 1115 q 1036 1115 1038 1115 q 1024 1107 1028 1114 l 1019 1100 q 1024 1074 1008 1083 q 1087 1006 1056 1049 q 1139 919 1118 964 q 1157 907 1144 907 m 704 -82 q 713 -79 707 -82 q 815 -15 774 -47 q 885 54 857 17 q 953 267 944 136 q 953 267 953 267 q 953 268 953 268 l 963 686 q 1035 703 990 692 q 1136 729 1081 714 q 1149 738 1144 731 q 1150 753 1153 744 l 1143 779 q 1125 793 1139 793 q 1122 793 1122 793 q 1119 793 1121 793 q 1064 778 1100 788 q 985 760 1028 769 l 983 758 q 974 756 978 757 q 964 754 969 756 l 971 1085 q 967 1099 972 1090 q 953 1104 958 1104 l 925 1106 q 911 1099 917 1106 q 906 1086 906 1093 l 897 739 q 809 723 847 729 q 744 715 771 717 q 736 715 740 715 q 729 715 732 715 l 726 715 q 628 735 661 714 q 574 788 596 756 q 557 797 567 797 q 554 797 556 797 q 550 796 553 796 l 546 793 q 535 782 538 790 q 536 767 532 775 q 603 688 560 718 q 729 649 654 649 q 739 649 735 649 q 749 649 743 649 q 813 656 775 650 q 896 671 850 661 l 886 269 q 874 171 885 224 q 836 81 864 118 q 692 -37 788 14 q 682 -62 675 -44 l 686 -71 q 697 -81 692 -79 q 704 -82 700 -82 m 351 -35 q 352 -35 351 -35 q 353 -33 353 -35 l 386 -31 q 403 -15 400 -28 q 453 147 422 81 q 532 258 485 214 q 539 272 539 264 q 533 285 539 279 l 528 292 q 513 299 521 299 q 500 294 506 299 q 367 92 414 226 q 352 206 357 142 q 347 339 347 271 q 362 575 347 454 q 403 786 376 696 q 419 897 419 844 q 354 1065 419 1007 q 342 1071 349 1071 l 340 1071 q 326 1064 331 1071 l 322 1058 q 322 1033 313 1046 q 357 899 358 990 q 339 806 354 860 q 296 584 311 710 q 281 339 281 458 q 332 -21 281 118 q 351 -35 339 -35 z "},"こ":{"ha":1389,"x_min":322,"x_max":1058,"o":"m 1044 160 q 1026 172 1039 172 q 1021 171 1022 172 q 874 132 950 146 q 724 118 797 118 q 490 164 582 118 q 394 259 418 201 q 376 363 369 317 q 363 383 376 379 l 356 386 q 351 387 353 386 q 349 388 350 388 q 340 385 346 388 q 331 374 332 381 q 322 318 322 347 q 360 194 322 253 q 461 106 399 136 q 724 51 565 51 q 885 66 804 51 q 1043 108 967 81 q 1054 119 1053 113 q 1056 135 1058 125 l 1044 160 m 925 943 q 913 961 925 956 q 731 986 838 986 q 608 979 672 986 q 489 958 544 972 q 476 950 482 958 q 474 935 472 943 l 481 908 q 500 893 486 893 q 502 894 501 893 q 504 894 503 894 q 606 912 544 904 q 731 919 667 919 l 732 919 q 810 915 775 919 q 726 854 761 889 q 660 768 692 819 q 665 743 650 753 l 671 739 q 682 735 675 735 q 697 742 690 735 q 790 824 739 789 q 914 890 842 860 q 925 910 925 897 l 925 943 z "},"ご":{"ha":1389,"x_min":322,"x_max":1271,"o":"m 1224 983 q 1232 986 1229 983 l 1257 997 q 1267 1010 1264 1001 q 1265 1025 1271 1015 q 1207 1106 1239 1074 q 1121 1179 1175 1138 q 1108 1182 1113 1182 q 1094 1176 1099 1182 l 1086 1168 q 1082 1153 1081 1160 q 1088 1140 1082 1144 q 1207 994 1164 1071 q 1224 983 1211 983 m 1114 879 q 1121 881 1118 879 l 1146 890 q 1157 901 1154 894 q 1156 917 1160 911 q 1086 1016 1128 974 q 1008 1083 1044 1058 q 997 1086 1000 1086 q 995 1086 996 1086 q 993 1086 994 1086 q 981 1078 985 1083 l 975 1071 q 972 1056 971 1064 q 979 1044 974 1049 q 1043 978 1011 1019 q 1096 890 1075 936 q 1114 879 1100 879 m 724 51 q 885 66 804 51 q 1043 108 967 81 q 1054 119 1053 113 q 1056 135 1058 125 l 1044 160 q 1026 172 1039 172 q 1021 171 1022 172 q 874 132 950 146 q 724 118 797 118 q 490 164 582 118 q 394 259 418 201 q 376 363 369 317 q 363 383 376 379 l 356 386 q 351 387 353 386 q 349 388 350 388 q 340 385 346 388 q 331 374 332 381 q 322 318 322 347 q 360 194 322 253 q 461 106 399 136 q 724 51 565 51 m 682 735 q 697 742 690 735 q 790 824 739 789 q 914 890 842 860 q 925 910 925 897 l 925 943 q 913 961 925 956 q 731 986 838 986 q 608 979 672 986 q 489 958 544 972 q 476 950 482 958 q 474 935 472 943 l 481 908 q 500 893 486 893 q 502 894 501 893 q 504 894 503 894 q 606 912 544 904 q 731 919 667 919 l 732 919 q 810 915 775 919 q 726 854 761 889 q 660 768 692 819 q 665 743 650 753 l 671 739 q 682 735 675 735 z "},"さ":{"ha":1389,"x_min":294,"x_max":1057,"o":"m 778 -11 q 853 -8 814 -11 q 931 3 892 -4 q 943 10 939 3 q 946 25 947 17 l 940 51 q 922 68 938 68 q 920 68 921 68 q 918 68 919 68 q 778 56 847 56 q 576 90 651 56 q 480 152 513 118 q 436 219 447 186 q 426 279 425 253 q 432 318 428 306 q 422 340 435 335 l 417 343 q 407 346 411 346 q 401 344 403 346 q 389 335 393 342 q 371 253 371 297 q 419 122 371 182 q 551 28 468 61 q 657 -1 600 8 q 778 -11 714 -11 m 954 292 q 968 299 964 292 l 992 321 q 994 344 1004 333 q 929 471 964 399 q 861 619 894 543 q 800 760 828 694 q 919 813 857 785 q 1044 874 981 842 q 1054 885 1051 875 q 1054 900 1057 889 l 1042 924 q 1025 935 1038 935 q 1017 933 1018 935 q 891 874 953 903 q 775 821 829 844 q 736 912 756 865 q 699 1006 717 958 q 682 1049 689 1031 q 671 1079 675 1068 q 653 1092 665 1092 q 649 1091 650 1092 q 646 1090 647 1090 l 619 1081 q 608 1069 613 1076 q 608 1054 606 1063 q 650 950 622 1019 q 714 794 678 881 q 596 748 646 767 q 513 725 546 729 q 504 725 508 725 q 494 725 500 725 l 492 725 q 404 740 442 724 q 336 786 367 756 q 322 792 331 792 q 310 788 317 792 l 304 783 q 297 771 297 779 q 301 756 294 763 q 343 717 317 739 q 408 679 369 694 q 494 663 446 664 q 507 663 500 663 q 519 664 514 664 q 611 686 558 669 q 739 733 664 703 q 817 558 775 650 q 897 390 860 467 q 818 419 860 407 q 732 438 776 431 q 731 438 732 438 q 729 438 731 438 q 711 425 715 438 l 708 418 q 710 403 706 410 q 721 393 715 394 q 839 349 786 372 q 944 294 892 325 q 954 292 953 292 z "},"ざ":{"ha":1389,"x_min":294,"x_max":1296,"o":"m 1250 1003 q 1258 1004 1256 1003 l 1283 1017 q 1293 1028 1292 1022 q 1292 1043 1296 1038 q 1233 1125 1265 1093 q 1146 1197 1200 1157 q 1135 1201 1142 1201 q 1119 1194 1126 1201 l 1113 1186 q 1107 1172 1107 1181 q 1114 1158 1107 1165 q 1232 1013 1192 1090 q 1250 1003 1239 1003 m 1139 897 q 1147 899 1144 897 l 1172 910 q 1183 921 1179 913 q 1182 936 1186 928 q 1112 1035 1154 993 q 1033 1101 1069 1076 q 1022 1106 1029 1106 q 1020 1106 1021 1106 q 1019 1106 1019 1106 q 1006 1097 1010 1103 l 1001 1089 q 1006 1063 992 1074 q 1069 997 1038 1039 q 1122 908 1101 954 q 1139 897 1126 897 m 778 -11 q 853 -8 814 -11 q 931 3 892 -4 q 943 10 939 3 q 946 25 947 17 l 940 51 q 922 68 938 68 q 920 68 921 68 q 918 68 919 68 q 778 56 847 56 q 576 90 651 56 q 480 152 513 118 q 436 219 447 186 q 426 279 425 253 q 432 318 428 306 q 422 340 435 335 l 417 343 q 407 346 411 346 q 401 344 403 346 q 389 335 393 342 q 371 253 371 297 q 419 122 371 182 q 551 29 468 61 q 778 -11 651 -11 m 954 292 q 968 299 964 292 l 992 321 q 994 344 1004 333 q 929 471 964 399 q 861 619 894 543 q 800 760 828 694 q 919 813 857 785 q 1044 874 981 842 q 1054 885 1051 875 q 1054 900 1057 889 l 1042 924 q 1025 935 1038 935 q 1017 933 1018 935 q 891 874 953 903 q 775 821 829 844 q 736 912 756 865 q 699 1006 717 958 q 682 1049 689 1031 q 671 1079 675 1068 q 653 1092 665 1092 q 649 1091 650 1092 q 646 1090 647 1090 l 619 1081 q 608 1069 613 1076 q 608 1054 606 1063 q 650 950 622 1019 q 714 794 678 881 q 596 748 646 767 q 513 725 546 729 q 504 725 508 725 q 494 725 500 725 l 492 725 q 404 740 442 724 q 336 786 367 756 q 322 792 331 792 q 310 788 317 792 l 304 783 q 297 771 297 779 q 301 756 294 763 q 343 717 317 739 q 408 679 369 694 q 494 663 446 664 q 507 663 500 663 q 519 664 514 664 q 611 686 558 669 q 739 733 664 703 q 817 558 775 650 q 897 390 860 467 q 818 419 860 407 q 732 438 776 431 q 731 438 732 438 q 729 438 731 438 q 711 425 715 438 l 708 418 q 710 403 706 410 q 721 393 715 394 q 839 349 786 372 q 944 294 892 325 q 954 292 953 292 z "},"し":{"ha":1389,"x_min":381,"x_max":1076,"o":"m 711 -21 q 958 107 863 -21 q 1074 408 1039 214 q 1069 424 1076 417 q 1057 431 1065 431 l 1053 432 q 1051 432 1051 432 q 1050 432 1051 432 q 1031 415 1033 432 q 975 240 1011 308 q 917 140 939 172 q 710 46 846 46 q 706 46 708 46 q 700 46 703 46 q 582 81 640 47 q 487 174 524 114 q 457 318 450 233 q 458 338 458 328 q 460 358 458 347 l 499 842 q 503 896 503 869 q 478 1015 503 965 q 418 1086 460 1058 q 407 1090 414 1090 q 405 1090 406 1090 q 403 1089 404 1089 q 390 1079 394 1086 l 388 1075 q 392 1050 381 1061 q 431 995 422 1025 q 436 896 439 965 l 435 882 q 435 865 435 874 q 433 847 435 857 l 393 365 q 392 341 392 353 q 390 318 392 329 q 409 180 383 242 q 481 74 435 118 q 585 5 528 29 q 699 -21 642 -19 q 704 -21 701 -21 q 710 -21 707 -21 l 711 -21 z "},"じ":{"ha":1389,"x_min":378,"x_max":1072,"o":"m 710 -22 q 957 106 861 -22 q 1072 408 1038 215 q 1072 415 1072 411 q 1068 422 1071 419 q 1056 431 1063 431 l 1051 432 q 1049 432 1050 432 q 1049 432 1049 432 q 1029 415 1032 432 q 974 240 1010 308 q 915 140 939 172 q 708 44 844 47 q 703 44 706 44 q 699 44 701 44 q 581 80 639 47 q 485 173 522 113 q 456 318 449 233 q 456 338 456 328 q 457 357 456 347 q 457 358 457 357 q 457 358 457 358 l 497 842 q 500 869 499 856 q 501 894 501 882 q 476 1015 501 965 q 451 1054 467 1036 q 417 1086 436 1072 q 406 1089 411 1089 q 403 1089 404 1089 q 401 1089 403 1089 q 389 1079 393 1086 l 386 1075 q 390 1050 378 1060 q 422 1015 411 1033 q 434 969 432 997 q 435 894 436 942 l 433 882 l 433 881 q 433 865 433 874 q 432 847 432 857 l 392 364 q 390 341 390 353 q 389 318 390 329 q 407 179 382 242 q 478 73 432 117 q 583 5 525 29 q 697 -21 640 -19 q 708 -22 701 -22 l 710 -22 m 1003 790 q 1011 792 1008 790 l 1036 804 q 1046 815 1044 810 q 1044 831 1049 825 q 985 912 1018 881 q 899 985 953 943 q 888 989 894 989 q 872 982 879 989 l 865 974 q 860 960 860 968 q 867 946 860 953 q 985 800 944 878 q 1003 790 992 790 m 892 685 q 900 686 897 685 l 925 697 q 935 708 932 700 q 935 724 939 715 q 865 822 907 781 q 786 889 822 864 q 775 893 782 893 q 773 893 774 893 q 771 893 772 893 q 758 883 761 890 l 754 876 q 758 850 744 861 q 822 784 790 826 q 875 696 853 742 q 892 685 879 685 z "},"す":{"ha":1389,"x_min":192,"x_max":1182,"o":"m 617 586 q 722 531 688 586 q 738 499 729 518 q 751 464 746 479 l 751 454 q 738 390 751 418 q 704 339 725 361 q 614 299 667 299 q 517 361 561 299 q 492 444 492 397 q 524 542 492 501 q 610 586 556 582 q 613 586 611 586 q 617 586 615 586 m 606 -97 q 619 -92 614 -97 q 799 172 758 39 q 819 262 813 217 q 825 351 825 307 q 810 475 825 417 l 810 778 q 997 801 904 789 q 1165 825 1089 814 q 1178 832 1174 825 q 1182 847 1182 839 l 1178 874 q 1158 890 1175 890 q 1157 890 1157 890 q 1156 890 1157 890 q 992 867 1081 879 q 810 844 903 856 l 808 1121 q 803 1135 808 1129 q 789 1140 797 1140 l 763 1140 q 748 1134 754 1140 q 743 1119 742 1128 l 743 838 l 719 835 q 525 815 608 822 q 413 807 442 807 q 285 828 322 807 q 239 896 254 846 q 219 910 235 910 q 217 910 218 910 q 215 910 217 910 l 208 907 q 196 899 200 906 q 193 882 192 889 q 264 782 215 817 q 413 740 322 740 q 526 747 444 740 q 726 768 608 754 l 735 769 l 743 771 l 743 600 q 693 636 725 619 q 618 653 661 653 l 617 653 q 611 653 614 653 q 607 653 608 653 q 472 582 524 649 q 425 444 425 524 q 463 322 425 375 q 614 232 525 232 q 747 299 692 232 q 757 310 754 306 q 750 251 756 281 q 735 192 744 221 q 586 -60 693 54 q 588 -87 572 -72 l 592 -92 q 606 -97 600 -97 z "},"ず":{"ha":1389,"x_min":192,"x_max":1244,"o":"m 1199 1011 q 1207 1013 1204 1011 l 1232 1025 q 1242 1036 1240 1031 q 1240 1051 1244 1046 q 1182 1133 1214 1101 q 1094 1206 1150 1165 q 1083 1210 1090 1210 q 1068 1203 1075 1210 l 1061 1194 q 1056 1181 1056 1189 q 1063 1167 1058 1171 q 1182 1021 1139 1100 q 1199 1011 1186 1011 m 1068 932 q 1075 933 1074 932 l 1100 943 q 1111 954 1108 947 q 1111 969 1114 960 q 1040 1069 1083 1026 q 963 1136 997 1111 q 951 1139 957 1139 q 949 1139 950 1139 q 947 1139 949 1139 q 935 1131 939 1136 l 931 1124 q 926 1109 925 1117 q 935 1097 928 1101 q 998 1031 967 1072 q 1050 943 1029 989 q 1068 932 1054 932 m 617 586 q 722 531 688 586 q 738 499 729 518 q 751 464 746 479 l 751 454 q 738 390 751 418 q 704 339 725 361 q 614 299 667 299 q 517 361 561 299 q 492 444 492 397 q 524 542 492 501 q 610 586 556 582 q 613 586 611 586 q 617 586 615 586 m 606 -97 q 619 -92 614 -97 q 799 172 758 39 q 819 262 813 217 q 825 351 825 307 q 810 475 825 417 l 810 778 q 997 801 904 789 q 1165 825 1089 814 q 1178 832 1174 825 q 1182 847 1182 839 l 1178 874 q 1158 890 1175 890 q 1157 890 1157 890 q 1156 890 1157 890 q 992 867 1081 879 q 810 844 903 856 l 808 1121 q 803 1135 808 1129 q 789 1140 797 1140 l 763 1140 q 748 1134 754 1140 q 743 1119 742 1128 l 743 838 l 719 835 q 525 815 608 822 q 413 807 442 807 q 285 828 322 807 q 239 896 254 846 q 219 910 235 910 q 217 910 218 910 q 215 910 217 910 l 208 907 q 196 899 200 906 q 193 882 192 889 q 264 782 215 817 q 413 740 322 740 q 526 747 444 740 q 726 768 608 754 l 735 769 l 743 771 l 743 600 q 693 636 725 619 q 618 653 661 653 l 617 653 q 611 653 614 653 q 607 653 608 653 q 472 582 524 649 q 425 444 425 524 q 463 322 425 375 q 614 232 525 232 q 747 299 692 232 q 757 310 754 306 q 750 251 756 281 q 735 192 744 221 q 586 -60 693 54 q 588 -87 572 -72 l 592 -92 q 606 -97 600 -97 z "},"せ":{"ha":1389,"x_min":139,"x_max":1214,"o":"m 760 -1 q 913 9 844 -1 q 1043 42 981 19 q 1056 65 1061 47 l 1053 71 q 1035 85 1049 85 q 1029 83 1031 85 q 815 57 942 57 q 785 57 800 57 q 756 58 769 57 q 558 139 629 64 q 478 368 489 214 q 472 456 475 403 q 468 576 469 508 q 649 601 544 586 q 881 635 753 615 l 874 363 q 788 435 832 403 q 686 493 743 467 q 683 494 685 493 q 678 494 681 494 q 661 485 668 494 l 658 479 q 656 464 654 472 q 665 451 658 456 q 767 379 721 419 q 867 275 813 339 q 882 268 874 268 q 889 269 886 268 l 921 281 q 933 297 933 283 l 947 644 q 1070 665 1008 654 q 1196 685 1132 675 q 1210 693 1203 686 q 1213 708 1214 700 l 1208 735 q 1189 751 1206 751 q 1187 751 1188 751 q 1186 751 1186 751 q 1065 731 1124 742 q 950 713 1006 721 l 963 1019 q 957 1033 963 1028 q 944 1039 953 1039 l 915 1040 q 903 1035 908 1042 q 896 1022 897 1029 l 883 701 q 649 667 754 682 q 465 643 543 653 q 463 703 464 674 q 461 761 463 733 q 459 813 460 789 q 458 860 458 836 q 458 904 458 881 q 457 956 458 928 q 436 975 457 975 l 410 975 q 396 968 399 972 q 390 954 390 963 q 390 938 390 947 q 392 915 390 929 q 394 801 392 874 q 399 636 396 728 q 367 635 389 636 q 339 633 344 633 l 332 633 q 182 697 217 632 q 164 707 175 707 q 158 706 160 707 l 154 704 q 143 694 146 701 q 143 679 139 686 q 201 601 161 629 q 338 567 253 567 q 359 567 347 567 q 383 568 371 567 q 392 569 388 569 q 401 571 397 569 q 407 451 404 503 q 413 364 410 399 q 510 93 425 186 q 758 -1 597 -1 l 760 -1 z "},"ぜ":{"ha":1389,"x_min":139,"x_max":1283,"o":"m 1238 1003 q 1246 1004 1243 1003 l 1271 1017 q 1281 1028 1278 1019 q 1279 1043 1283 1038 q 1220 1124 1253 1093 q 1133 1197 1188 1156 q 1121 1201 1129 1201 q 1107 1194 1114 1201 l 1099 1186 q 1094 1172 1094 1181 q 1101 1158 1094 1165 q 1219 1013 1178 1092 q 1238 1003 1226 1003 m 1126 897 q 1135 899 1132 897 l 1160 910 q 1169 921 1167 913 q 1169 936 1174 928 q 1099 1035 1142 993 q 1021 1101 1056 1076 q 1010 1106 1017 1106 q 1006 1104 1007 1106 q 993 1096 997 1104 l 989 1089 q 993 1063 979 1074 q 1056 997 1025 1039 q 1108 908 1088 954 q 1126 897 1115 897 m 760 -1 q 913 9 844 -1 q 1043 42 981 19 q 1056 65 1061 47 l 1053 71 q 1035 85 1049 85 q 1029 83 1031 85 q 815 57 942 57 q 785 57 800 57 q 756 58 769 57 q 558 139 629 64 q 478 368 489 214 q 472 456 475 403 q 468 576 469 508 q 649 601 544 586 q 881 635 753 615 l 874 363 q 788 435 832 403 q 686 493 743 467 q 683 494 685 493 q 678 494 681 494 q 661 485 668 494 l 658 479 q 656 464 654 472 q 665 451 658 456 q 767 379 721 419 q 867 275 813 339 q 882 268 874 268 q 889 269 886 268 l 921 281 q 933 297 933 283 l 947 644 q 1070 665 1008 654 q 1196 685 1132 675 q 1210 693 1203 686 q 1213 708 1214 700 l 1208 735 q 1189 751 1206 751 q 1187 751 1188 751 q 1186 751 1186 751 q 1065 731 1124 742 q 950 713 1006 721 l 963 1019 q 957 1033 963 1028 q 944 1039 953 1039 l 915 1040 q 903 1035 908 1042 q 896 1022 897 1029 l 883 701 q 649 667 754 682 q 465 643 543 653 q 463 703 464 674 q 461 761 463 733 q 459 813 460 789 q 458 860 458 836 q 458 904 458 881 q 457 956 458 928 q 436 975 457 975 l 410 975 q 396 968 399 972 q 390 954 390 963 q 390 938 390 947 q 392 915 390 929 q 394 801 392 874 q 399 636 396 728 q 367 635 389 636 q 339 633 344 633 l 332 633 q 182 697 217 632 q 164 707 175 707 q 158 706 160 707 l 154 704 q 143 694 146 701 q 143 679 139 686 q 201 601 161 629 q 338 567 253 567 q 359 567 347 567 q 383 568 371 567 q 392 569 388 569 q 401 571 397 569 q 407 451 404 503 q 413 364 410 399 q 510 93 425 186 q 758 -1 597 -1 l 760 -1 z "},"そ":{"ha":1389,"x_min":208,"x_max":1129,"o":"m 864 -25 q 938 -20 900 -25 q 1014 -6 975 -15 q 1026 3 1022 -3 q 1029 18 1031 13 l 1026 25 q 1008 39 1024 39 q 1006 39 1007 39 q 1004 39 1006 39 q 938 28 972 32 q 872 25 904 25 q 863 25 868 25 q 854 25 858 25 q 672 93 758 29 q 592 231 613 136 q 587 256 589 243 q 585 281 585 268 q 644 424 585 351 q 710 490 672 457 q 797 561 749 522 q 801 565 797 561 l 819 568 l 828 569 q 1008 603 929 589 q 1110 621 1086 617 q 1126 643 1129 624 l 1121 669 q 1113 682 1121 678 q 1101 686 1108 686 q 1101 686 1101 686 q 1099 686 1100 686 q 988 667 1067 681 q 815 635 910 653 q 715 616 768 626 q 613 596 661 606 l 608 594 q 569 586 588 590 q 533 579 550 582 l 924 988 q 926 1011 936 1000 l 910 1039 q 893 1049 903 1049 q 888 1047 889 1049 q 842 1035 871 1043 q 781 1019 813 1028 q 681 994 736 1008 q 589 975 625 981 q 554 971 568 971 q 552 971 553 971 q 550 971 551 971 q 465 989 489 972 q 432 1022 442 1006 q 415 1033 425 1033 q 413 1033 414 1033 q 408 1032 411 1032 l 404 1031 q 392 1019 396 1029 q 392 1004 388 1011 q 443 938 410 964 q 550 904 486 904 q 601 908 575 904 q 699 931 642 917 q 807 957 757 944 l 444 564 q 432 560 438 561 q 421 558 426 560 q 369 550 389 550 l 365 550 q 363 550 364 550 q 358 550 361 550 q 251 594 278 550 q 235 604 247 604 q 232 603 233 604 q 228 603 231 603 l 222 600 q 213 589 215 597 q 213 574 208 581 q 231 544 222 556 q 254 521 240 532 q 365 483 299 483 q 400 486 382 483 q 438 493 418 489 q 522 512 464 500 q 667 540 579 524 q 593 467 624 501 q 518 281 518 375 q 526 215 518 249 q 638 43 551 110 q 864 -25 729 -25 z "},"ぞ":{"ha":1389,"x_min":208,"x_max":1260,"o":"m 1214 963 q 1222 965 1217 963 l 1247 978 q 1257 989 1254 981 q 1256 1004 1260 999 q 1197 1085 1229 1053 q 1110 1158 1165 1117 q 1099 1163 1106 1163 q 1083 1156 1090 1163 l 1076 1147 q 1071 1133 1071 1142 q 1078 1119 1074 1122 q 1146 1049 1117 1085 q 1197 974 1175 1014 q 1214 963 1201 963 m 1104 858 q 1111 860 1108 858 l 1136 869 q 1147 881 1144 874 q 1146 897 1150 890 q 1076 996 1118 954 q 999 1063 1033 1038 q 986 1067 992 1067 q 985 1066 986 1067 q 983 1065 985 1065 q 971 1057 976 1065 l 965 1050 q 969 1024 957 1036 q 1033 957 1001 999 q 1086 869 1065 915 q 1104 858 1090 858 m 864 -25 q 938 -20 900 -25 q 1014 -6 975 -15 q 1026 3 1022 -3 q 1029 18 1031 13 l 1026 25 q 1008 39 1024 39 q 1006 39 1007 39 q 1004 39 1006 39 q 938 28 972 32 q 872 25 904 25 q 863 25 868 25 q 854 25 858 25 q 672 93 758 29 q 592 231 613 136 q 587 256 589 243 q 585 281 585 268 q 644 424 585 351 q 710 490 672 457 q 797 561 749 522 q 801 565 797 561 l 819 568 l 828 569 q 1008 603 929 589 q 1110 621 1086 617 q 1126 643 1129 624 l 1121 669 q 1113 682 1121 678 q 1101 686 1108 686 q 1101 686 1101 686 q 1099 686 1100 686 q 988 667 1067 681 q 815 635 910 653 q 715 616 768 626 q 613 596 661 606 l 608 594 q 569 586 588 590 q 533 579 550 582 l 924 988 q 926 1011 936 1000 l 910 1039 q 893 1049 903 1049 q 888 1047 889 1049 q 842 1035 871 1043 q 781 1019 813 1028 q 681 994 736 1008 q 589 975 625 981 q 554 971 568 971 q 552 971 553 971 q 550 971 551 971 q 465 989 489 972 q 432 1022 442 1006 q 415 1033 425 1033 q 413 1033 414 1033 q 408 1032 411 1032 l 404 1031 q 392 1019 396 1029 q 392 1004 388 1011 q 443 938 410 964 q 550 904 486 904 q 601 908 575 904 q 699 931 642 917 q 807 957 757 944 l 444 564 q 432 560 438 561 q 421 558 426 560 q 369 550 389 550 l 365 550 q 363 550 364 550 q 358 550 361 550 q 251 594 278 550 q 235 604 247 604 q 232 603 233 604 q 228 603 231 603 l 222 600 q 213 589 215 597 q 213 574 208 581 q 231 544 222 556 q 254 521 240 532 q 365 483 299 483 q 400 486 382 483 q 438 493 418 489 q 522 512 464 500 q 667 540 579 524 q 593 467 624 501 q 518 281 518 375 q 526 215 518 249 q 638 43 551 110 q 864 -25 729 -25 z "},"た":{"ha":1389,"x_min":235,"x_max":1157,"o":"m 889 0 q 1031 24 967 0 q 1150 97 1094 49 q 1157 111 1154 100 q 1151 125 1157 117 l 1132 144 q 1118 151 1125 151 q 1106 146 1111 151 q 1008 86 1058 106 q 889 67 957 67 l 885 67 q 756 93 811 67 q 672 168 700 119 q 656 178 667 178 q 651 177 653 178 q 649 176 650 176 l 647 175 q 635 164 639 174 q 636 149 632 156 q 734 40 668 79 q 883 0 800 0 l 889 0 m 890 439 q 906 447 900 439 q 981 517 936 486 q 1075 561 1025 547 q 1089 579 1086 565 l 1090 613 q 1076 632 1090 628 q 922 657 1001 657 q 708 606 807 657 q 699 594 701 603 q 700 579 696 585 l 714 556 q 731 546 719 546 q 740 547 738 546 q 922 590 824 590 q 946 590 933 590 q 969 588 958 589 q 906 533 931 564 q 867 472 882 503 q 872 447 857 457 l 879 443 q 890 439 883 439 m 281 -4 q 288 -3 285 -4 q 297 7 294 0 q 452 378 385 197 q 571 736 519 558 q 663 759 604 744 q 786 793 722 774 q 797 803 792 794 q 799 818 801 808 l 790 844 q 772 857 786 857 q 769 857 769 857 q 767 857 768 857 q 673 830 719 842 q 592 810 626 818 q 624 933 608 871 q 653 1057 639 994 q 650 1072 654 1064 q 638 1081 646 1078 l 614 1086 q 612 1086 613 1086 q 610 1086 611 1086 q 590 1071 596 1086 q 557 933 575 1003 q 519 794 539 863 l 518 793 q 472 782 493 786 q 436 776 450 778 q 422 775 431 775 l 417 775 q 347 787 369 774 q 313 819 324 800 q 294 829 306 829 q 288 828 290 829 l 283 826 q 272 814 276 824 q 275 799 271 806 q 338 733 299 757 q 422 708 378 710 q 435 709 428 708 q 447 711 442 710 q 471 715 458 713 q 497 721 483 718 q 383 384 447 554 q 238 35 319 214 q 238 19 235 28 q 247 8 240 11 l 272 -3 q 281 -4 275 -4 z "},"だ":{"ha":1389,"x_min":235,"x_max":1243,"o":"m 1197 913 q 1206 915 1200 913 l 1231 926 q 1240 939 1238 931 q 1239 954 1243 946 q 1181 1035 1213 1003 q 1093 1108 1149 1067 q 1082 1113 1089 1113 q 1067 1106 1074 1113 l 1060 1097 q 1054 1082 1054 1092 q 1057 1076 1056 1079 q 1061 1069 1058 1072 q 1181 924 1138 1000 q 1197 913 1185 913 m 1088 808 q 1094 810 1092 808 l 1119 819 q 1131 831 1128 824 q 1129 846 1133 840 q 1059 945 1101 903 q 982 1013 1017 988 q 969 1015 974 1015 q 969 1015 969 1015 q 967 1015 968 1015 q 954 1007 958 1014 l 949 1000 q 946 986 944 994 q 953 974 947 978 q 1017 907 985 949 q 1069 819 1049 865 q 1088 808 1074 808 m 889 0 q 1031 24 967 0 q 1150 97 1094 49 q 1157 111 1154 100 q 1151 125 1157 117 l 1132 144 q 1118 151 1125 151 q 1106 146 1111 151 q 1008 86 1058 106 q 889 67 957 67 l 885 67 q 756 93 811 67 q 672 168 700 119 q 656 178 667 178 q 651 177 653 178 q 649 176 650 176 l 647 175 q 635 164 639 174 q 636 149 632 156 q 734 40 668 79 q 883 0 800 0 l 889 0 m 890 439 q 906 447 900 439 q 981 517 936 486 q 1075 561 1025 547 q 1089 579 1086 565 l 1090 613 q 1076 632 1090 628 q 922 657 1001 657 q 708 606 807 657 q 699 594 701 603 q 700 579 696 585 l 714 556 q 731 546 719 546 q 740 547 738 546 q 922 590 824 590 q 946 590 933 590 q 969 588 958 589 q 906 533 931 564 q 867 472 882 503 q 872 447 857 457 l 879 443 q 890 439 883 439 m 281 -4 q 288 -3 285 -4 q 297 7 294 0 q 452 378 385 197 q 571 736 519 558 q 663 759 604 744 q 786 793 722 774 q 797 803 792 794 q 799 818 801 808 l 790 844 q 772 857 786 857 q 769 857 769 857 q 767 857 768 857 q 673 830 719 842 q 592 810 626 818 q 624 933 608 871 q 653 1057 639 994 q 650 1072 654 1064 q 638 1081 646 1078 l 614 1086 q 612 1086 613 1086 q 610 1086 611 1086 q 590 1071 596 1086 q 557 933 575 1003 q 519 794 539 863 l 518 793 q 472 782 493 786 q 436 776 450 778 q 422 775 431 775 l 417 775 q 347 787 369 774 q 313 819 324 800 q 294 829 306 829 q 288 828 290 829 l 283 826 q 272 814 276 824 q 275 799 271 806 q 338 733 299 757 q 422 708 378 710 q 435 709 428 708 q 447 711 442 710 q 471 715 458 713 q 497 721 483 718 q 383 384 447 554 q 238 35 319 214 q 238 19 235 28 q 247 8 240 11 l 272 -3 q 281 -4 275 -4 z "},"ち":{"ha":1389,"x_min":250,"x_max":1090,"o":"m 692 -8 q 833 13 764 -8 q 963 74 903 33 q 1056 176 1022 117 q 1090 300 1090 235 q 1035 451 1090 386 q 894 535 981 517 q 850 542 872 539 q 806 544 828 544 q 651 511 733 544 q 489 415 569 478 q 504 586 494 499 q 525 746 514 674 q 590 763 544 750 q 696 794 636 775 q 815 842 756 814 q 826 853 821 844 q 825 868 829 863 l 814 893 q 796 904 810 904 q 788 903 790 904 q 688 863 739 881 q 595 834 636 846 q 535 817 554 822 l 539 843 q 551 931 544 886 q 565 1018 558 975 q 570 1049 568 1036 q 575 1071 572 1063 q 558 1093 578 1090 l 532 1099 q 530 1099 531 1099 q 528 1099 529 1099 q 517 1096 525 1099 q 510 1083 510 1092 q 491 978 503 1053 q 465 801 479 903 q 457 799 461 800 q 449 799 453 799 q 439 797 443 797 q 429 797 435 797 l 426 797 q 288 847 326 796 q 272 856 283 856 q 264 854 267 856 l 263 853 q 251 842 254 851 q 254 825 250 835 q 336 751 286 772 q 429 731 386 731 q 443 731 436 731 q 457 732 450 731 q 436 538 444 629 q 426 365 428 446 q 438 347 426 351 l 468 333 q 476 332 471 332 q 490 338 485 332 q 806 478 642 478 q 881 469 843 478 q 984 409 944 456 q 1024 300 1024 363 q 998 206 1024 250 q 925 129 972 161 q 801 66 861 86 q 676 46 742 46 q 569 56 628 46 q 567 56 568 56 q 565 56 567 56 q 547 42 551 56 l 544 33 q 546 18 542 24 q 558 8 551 10 q 692 -8 625 -8 z "},"ぢ":{"ha":1389,"x_min":250,"x_max":1169,"o":"m 1122 950 q 1132 953 1126 950 l 1156 965 q 1165 976 1163 967 q 1164 992 1169 982 q 1106 1072 1138 1040 q 1019 1146 1074 1104 q 1007 1150 1014 1150 q 993 1143 997 1150 l 985 1135 q 981 1121 979 1126 q 986 1107 981 1113 q 1106 961 1065 1039 q 1122 950 1110 950 m 1013 846 q 1019 847 1018 846 l 1044 857 q 1056 868 1053 861 q 1056 885 1058 876 q 985 983 1028 942 q 907 1050 942 1025 q 896 1054 900 1054 q 894 1053 894 1054 q 892 1053 893 1053 q 879 1044 885 1053 l 874 1038 q 871 1023 869 1031 q 879 1011 872 1015 q 942 944 911 986 q 994 857 974 903 q 1013 846 999 846 m 692 -8 q 833 13 764 -8 q 963 74 903 33 q 1056 176 1022 117 q 1090 300 1090 235 q 1035 451 1090 386 q 894 535 981 517 q 850 542 872 539 q 806 544 828 544 q 651 511 733 544 q 489 415 569 478 q 504 586 494 499 q 525 746 514 674 q 590 763 544 750 q 696 794 636 775 q 815 842 756 814 q 826 853 821 844 q 825 868 829 863 l 814 893 q 796 904 810 904 q 788 903 790 904 q 688 863 739 881 q 595 834 636 846 q 535 817 554 822 l 539 843 q 551 931 544 886 q 565 1018 558 975 q 570 1049 568 1036 q 575 1071 572 1063 q 558 1093 578 1090 l 532 1099 q 530 1099 531 1099 q 528 1099 529 1099 q 517 1096 525 1099 q 510 1083 510 1092 q 491 978 503 1053 q 465 801 479 903 q 457 799 461 800 q 449 799 453 799 q 439 797 443 797 q 429 797 435 797 l 426 797 q 288 847 326 796 q 272 856 283 856 q 264 854 267 856 l 263 853 q 251 842 254 851 q 254 825 250 835 q 336 751 286 772 q 429 731 386 731 q 443 731 436 731 q 457 732 450 731 q 436 538 444 629 q 426 365 428 446 q 438 347 426 351 l 468 333 q 476 332 471 332 q 490 338 485 332 q 806 478 642 478 q 881 469 843 478 q 984 409 944 456 q 1024 300 1024 363 q 998 206 1024 250 q 925 129 972 161 q 801 66 861 86 q 676 46 742 46 q 569 56 628 46 q 567 56 568 56 q 565 56 567 56 q 547 42 551 56 l 544 33 q 546 18 542 24 q 558 8 551 10 q 692 -8 625 -8 z "},"っ":{"ha":1389,"x_min":292,"x_max":1054,"o":"m 578 -3 q 749 19 679 1 q 871 67 818 38 q 1005 187 956 113 q 1054 342 1054 261 q 1027 450 1054 400 q 951 532 1000 500 q 750 592 857 592 q 519 533 642 592 q 457 506 486 518 q 406 493 428 494 q 368 499 389 493 q 325 526 347 506 q 314 531 321 531 q 304 528 310 531 l 300 525 q 292 511 293 518 q 296 499 292 506 q 404 443 340 443 l 407 443 q 475 456 440 444 q 543 483 510 468 q 651 524 600 511 q 750 536 703 536 q 921 486 844 536 q 999 342 999 433 q 956 212 999 275 q 843 110 914 149 q 754 74 814 93 q 576 46 694 56 q 561 28 561 43 l 561 13 q 567 1 561 6 q 578 -3 571 -3 z "},"つ":{"ha":1389,"x_min":206,"x_max":1144,"o":"m 557 101 q 558 101 557 101 q 558 101 558 101 q 767 132 682 111 q 918 188 853 153 q 1084 335 1024 244 q 1144 526 1144 426 q 1111 660 1144 599 q 1018 761 1078 721 q 771 835 904 835 q 486 763 636 835 q 408 728 444 743 q 346 714 372 714 q 295 721 321 714 q 243 751 269 728 q 229 757 235 757 q 218 753 222 757 l 214 750 q 206 736 208 746 q 210 722 206 728 q 344 653 264 653 l 346 653 q 431 669 388 654 q 514 703 474 683 q 771 768 656 768 q 982 706 883 768 q 1078 526 1078 642 q 1026 365 1078 444 q 886 239 974 286 q 765 190 842 215 q 554 153 689 164 q 542 147 547 153 q 536 133 536 140 l 538 119 q 544 107 538 111 q 557 101 549 101 z "},"づ":{"ha":1389,"x_min":206,"x_max":1271,"o":"m 1225 956 q 1235 958 1229 956 l 1258 969 q 1269 981 1264 972 q 1268 996 1271 988 q 1209 1078 1242 1046 q 1122 1150 1176 1110 q 1110 1154 1117 1154 q 1096 1149 1100 1154 l 1088 1139 q 1083 1125 1082 1133 q 1089 1111 1083 1119 q 1158 1041 1128 1076 q 1208 967 1188 1006 q 1225 956 1213 956 m 1115 850 q 1119 851 1117 850 q 1122 851 1121 851 l 1147 863 q 1158 874 1156 865 q 1158 889 1161 882 q 1088 988 1131 946 q 1010 1056 1044 1029 q 1004 1058 1007 1057 q 999 1058 1001 1058 q 997 1058 997 1058 q 994 1058 996 1058 q 982 1050 986 1056 l 976 1043 q 982 1017 967 1026 q 1045 949 1014 992 q 1097 863 1076 907 q 1115 850 1103 850 m 557 101 q 558 101 557 101 q 558 101 558 101 q 767 132 682 111 q 918 188 853 153 q 1084 335 1024 244 q 1144 526 1144 426 q 1111 660 1144 599 q 1018 761 1078 721 q 771 835 904 835 q 486 763 636 835 q 408 728 444 743 q 346 714 372 714 q 295 721 321 714 q 243 751 269 728 q 229 757 235 757 q 218 753 222 757 l 214 750 q 206 736 208 746 q 210 722 206 728 q 344 653 264 653 l 346 653 q 431 669 388 654 q 514 703 474 683 q 771 768 656 768 q 982 706 883 768 q 1078 526 1078 642 q 1026 365 1078 444 q 886 239 974 286 q 765 190 842 215 q 554 153 689 164 q 542 147 547 153 q 536 133 536 140 l 538 119 q 544 107 538 111 q 557 101 549 101 z "},"て":{"ha":1389,"x_min":208,"x_max":1128,"o":"m 986 25 q 1007 25 997 25 q 1028 26 1017 25 q 1040 33 1036 26 q 1046 47 1046 38 l 1046 51 q 1025 71 1043 71 l 1022 71 q 881 88 951 69 q 736 143 810 107 q 597 292 632 196 q 575 415 575 350 q 799 836 575 615 q 940 861 864 849 q 1111 888 1017 874 q 1124 896 1119 890 q 1128 910 1128 903 l 1124 938 q 1115 950 1121 946 q 1104 954 1111 954 q 1102 954 1103 954 q 1101 954 1101 954 q 765 899 921 928 q 453 829 608 869 q 413 822 432 824 q 378 821 394 821 q 250 882 290 821 q 235 890 244 890 q 229 889 231 890 l 224 888 q 211 878 214 885 q 211 863 208 868 q 268 786 228 815 q 382 753 314 753 q 469 765 424 753 q 576 791 522 779 q 688 815 631 803 q 508 415 508 608 q 515 341 508 378 q 535 268 522 304 q 707 83 579 147 q 986 25 822 25 z "},"で":{"ha":1389,"x_min":208,"x_max":1215,"o":"m 1169 596 q 1178 599 1172 596 l 1203 610 q 1213 622 1211 615 q 1211 638 1215 629 q 1153 718 1185 686 q 1065 792 1121 750 q 1054 794 1060 794 q 1039 789 1044 794 l 1032 779 q 1026 765 1026 775 q 1033 753 1029 756 q 1153 607 1110 683 q 1169 596 1157 596 m 1060 490 q 1067 493 1061 490 l 1092 503 q 1103 514 1099 507 q 1101 529 1106 524 q 1031 628 1074 586 q 953 696 989 669 q 942 699 947 699 q 940 699 940 699 q 939 699 940 699 q 926 690 931 697 l 921 683 q 925 657 911 667 q 989 590 957 632 q 1042 503 1021 549 q 1060 490 1047 490 m 986 25 q 1007 25 997 25 q 1028 26 1017 25 q 1040 33 1036 26 q 1046 47 1046 38 l 1046 51 q 1025 71 1043 71 l 1022 71 q 881 88 951 69 q 736 143 810 107 q 597 292 632 196 q 575 415 575 350 q 799 836 575 615 q 940 861 864 849 q 1111 888 1017 874 q 1124 896 1119 890 q 1128 910 1128 903 l 1124 938 q 1115 950 1121 946 q 1104 954 1111 954 q 1102 954 1103 954 q 1101 954 1101 954 q 765 899 921 928 q 453 829 608 869 q 413 822 432 824 q 378 821 394 821 q 250 882 290 821 q 235 890 244 890 q 229 889 231 890 l 224 888 q 211 878 214 885 q 211 863 208 868 q 268 786 228 815 q 382 753 314 753 q 469 765 424 753 q 576 791 522 779 q 688 815 631 803 q 508 415 508 608 q 515 341 508 378 q 535 268 522 304 q 707 83 579 147 q 986 25 822 25 z "},"と":{"ha":1389,"x_min":367,"x_max":1060,"o":"m 751 7 q 890 18 818 7 q 1042 51 961 29 q 1054 75 1060 57 l 1054 79 q 1035 93 1050 93 q 1031 92 1032 93 q 907 71 975 78 q 753 64 839 64 q 690 69 724 64 q 626 79 657 74 q 481 151 540 94 q 433 257 433 197 q 447 321 433 283 q 504 401 461 358 q 617 496 561 457 q 735 567 674 535 q 874 638 797 600 q 956 703 926 663 q 986 788 986 743 q 963 864 986 828 q 947 872 958 872 q 942 872 944 872 q 936 869 939 871 l 935 868 q 926 844 918 860 q 932 824 931 833 q 933 806 933 814 q 909 749 933 782 q 844 697 885 717 q 739 644 789 669 q 642 590 689 618 q 635 646 639 614 q 625 714 631 678 q 605 852 613 799 q 594 926 597 906 q 548 1031 586 992 q 469 1083 510 1069 q 467 1084 468 1083 q 464 1085 465 1085 q 444 1071 449 1085 q 456 1046 439 1053 q 499 1011 476 1039 q 529 918 521 983 q 547 792 533 886 q 581 554 560 697 l 581 550 q 458 450 518 508 q 390 357 414 407 q 367 257 367 307 q 435 104 367 168 q 619 18 501 39 q 684 10 651 13 q 751 7 717 7 z "},"ど":{"ha":1389,"x_min":367,"x_max":1247,"o":"m 1203 947 q 1211 949 1208 947 l 1235 961 q 1246 972 1240 964 q 1244 988 1247 979 q 1185 1069 1217 1038 q 1099 1142 1153 1101 q 1086 1146 1092 1146 q 1072 1139 1076 1146 l 1064 1131 q 1060 1117 1060 1125 q 1067 1103 1060 1110 q 1185 957 1144 1035 q 1203 947 1192 947 m 1092 842 q 1096 842 1094 842 q 1099 843 1097 843 l 1125 854 q 1135 865 1132 857 q 1135 881 1138 869 q 1065 979 1107 938 q 986 1046 1022 1021 q 975 1050 982 1050 q 973 1050 974 1050 q 971 1050 972 1050 q 958 1042 963 1047 l 954 1033 q 958 1007 944 1018 q 1021 941 989 983 q 1074 853 1053 899 q 1092 842 1081 842 m 751 7 q 890 18 818 7 q 1042 51 961 29 q 1054 75 1060 57 l 1054 79 q 1035 93 1050 93 q 1031 92 1032 93 q 907 71 975 78 q 753 64 839 64 q 690 69 724 64 q 626 79 657 74 q 481 151 540 94 q 433 257 433 197 q 447 321 433 283 q 504 401 461 358 q 617 496 561 457 q 735 567 674 535 q 874 638 797 600 q 956 703 926 663 q 986 788 986 743 q 963 864 986 828 q 947 872 958 872 q 942 872 944 872 q 936 869 939 871 l 935 868 q 926 844 918 860 q 932 824 931 833 q 933 806 933 814 q 909 749 933 782 q 844 697 885 717 q 739 644 789 669 q 642 590 689 618 q 635 646 639 614 q 625 714 631 678 q 605 852 613 799 q 594 926 597 906 q 548 1031 586 992 q 469 1083 510 1069 q 467 1084 468 1083 q 464 1085 465 1085 q 444 1071 449 1085 q 456 1046 439 1053 q 499 1011 476 1039 q 529 918 521 983 q 547 792 533 886 q 581 554 560 697 l 581 550 q 458 450 518 508 q 390 357 414 407 q 367 257 367 307 q 435 104 367 168 q 619 18 501 39 q 684 10 651 13 q 751 7 717 7 z "},"な":{"ha":1389,"x_min":231,"x_max":1143,"o":"m 710 199 l 711 199 q 770 194 739 199 q 835 183 801 190 q 826 135 833 168 q 803 78 818 101 q 696 21 764 21 q 691 20 694 19 q 685 21 688 21 q 593 56 619 25 q 567 111 567 86 q 572 136 567 117 q 596 169 576 156 q 637 190 610 181 q 710 199 664 199 m 699 -37 q 790 -14 749 -37 q 858 51 832 10 q 899 164 889 101 q 994 124 947 147 q 1086 74 1042 101 q 1092 72 1089 72 q 1097 71 1094 71 q 1113 79 1108 71 l 1115 82 q 1113 110 1128 97 q 1007 184 1056 157 q 903 229 958 211 q 903 253 903 240 q 900 276 903 267 q 874 482 888 394 q 844 639 860 569 q 835 651 842 647 q 825 654 829 654 q 823 654 824 654 q 821 654 822 654 l 794 647 q 779 624 776 643 q 808 470 794 557 q 835 269 822 383 q 835 260 835 264 q 836 250 836 256 q 772 262 803 258 q 711 265 740 265 q 557 224 614 265 q 500 118 500 182 q 551 12 500 56 q 681 -36 603 -32 q 689 -37 685 -36 q 696 -37 693 -37 l 699 -37 m 1106 619 q 1107 619 1107 619 q 1108 619 1107 619 q 1121 626 1117 619 l 1138 649 q 1142 663 1143 656 q 1135 675 1142 671 q 942 864 1017 769 q 926 871 938 871 q 915 867 919 871 l 911 864 q 906 838 896 851 q 995 719 949 772 q 1093 624 1042 665 q 1106 619 1100 619 m 281 213 q 286 214 285 213 q 297 222 296 217 q 444 505 385 378 q 547 756 503 632 q 646 785 596 768 q 753 825 696 803 q 764 835 758 826 q 764 850 765 842 l 754 875 q 736 888 750 888 q 732 888 733 888 q 729 888 731 888 q 643 856 681 869 q 572 832 606 842 q 600 927 586 879 q 626 1026 614 975 q 624 1042 628 1035 q 611 1050 619 1047 l 585 1057 q 583 1057 583 1057 q 581 1057 582 1057 q 561 1042 565 1057 q 531 924 547 981 q 496 813 514 868 q 478 810 485 810 q 439 806 456 806 l 438 806 q 326 849 360 806 q 311 857 322 857 q 303 854 308 857 l 299 853 q 289 840 292 849 q 290 825 286 831 q 344 765 313 786 q 438 739 383 739 q 454 739 446 739 q 471 740 463 739 q 376 515 431 631 q 240 256 321 400 q 247 228 231 238 l 271 215 q 281 213 276 213 z "},"に":{"ha":1389,"x_min":285,"x_max":1133,"o":"m 896 60 q 1119 101 1018 60 q 1131 113 1126 104 q 1129 128 1133 119 l 1118 153 q 1100 164 1111 164 q 1096 163 1097 164 q 1093 163 1094 163 q 1000 135 1053 146 q 897 125 947 125 l 894 125 q 855 126 875 125 q 819 131 835 128 q 683 200 725 153 q 638 294 649 243 q 618 310 632 310 l 613 310 q 597 303 604 310 q 593 288 593 297 q 647 164 601 219 q 707 110 668 139 q 807 68 746 81 q 896 60 847 60 m 833 679 q 849 686 842 679 q 939 769 889 733 q 1058 836 989 806 q 1069 854 1069 840 l 1069 888 q 1057 906 1069 900 q 879 931 983 931 q 760 924 822 931 q 644 903 699 917 q 632 894 638 903 q 631 879 628 889 l 635 860 q 654 844 640 844 q 658 846 657 844 q 758 859 697 854 q 879 864 819 864 l 881 864 q 957 860 922 864 q 811 714 868 811 q 815 689 801 699 l 822 683 q 833 679 826 679 m 353 7 l 386 10 q 404 25 400 10 q 447 173 421 104 q 511 315 472 242 q 513 330 515 322 q 503 342 510 338 l 497 344 q 488 347 492 347 q 472 339 476 347 q 410 244 435 289 q 369 153 385 200 q 356 258 360 204 q 351 367 351 311 q 388 683 351 528 q 407 778 400 735 q 415 863 414 822 q 357 1029 415 964 q 343 1035 353 1035 q 335 1034 339 1035 q 328 1033 331 1033 l 325 1029 q 322 1006 314 1018 q 344 944 342 978 q 349 876 347 911 l 349 867 q 341 785 349 829 q 324 703 333 742 q 295 539 306 624 q 285 371 285 454 q 333 25 285 183 q 351 11 338 11 l 353 7 z "},"ぬ":{"ha":1389,"x_min":217,"x_max":1188,"o":"m 474 651 q 590 719 526 694 q 719 751 654 744 q 719 737 719 744 q 719 722 719 729 q 710 586 719 650 q 679 457 700 522 q 624 315 658 392 q 606 279 617 300 q 585 243 594 258 q 520 440 550 332 q 474 651 490 549 m 910 211 q 1015 182 957 211 q 1008 172 1013 176 q 1001 163 1004 167 q 944 105 974 126 q 876 82 915 83 q 865 83 869 82 q 829 91 842 85 q 810 103 817 97 q 798 117 803 108 q 793 140 793 125 q 799 162 793 149 q 818 186 804 175 q 849 203 828 194 q 906 211 869 211 l 910 211 m 418 600 q 469 410 436 519 q 549 193 501 300 q 524 164 536 176 q 460 108 496 135 q 388 81 425 81 q 379 82 382 81 q 336 97 351 83 q 308 132 321 110 q 283 267 283 179 q 346 499 283 382 q 418 600 375 553 m 383 25 q 571 117 482 25 q 639 206 611 158 q 683 288 667 253 q 763 507 739 406 q 786 722 786 608 q 786 738 786 729 q 786 754 786 746 q 824 750 806 753 q 860 742 843 747 q 1025 617 968 713 q 1076 414 1076 531 q 1061 296 1076 354 q 1044 242 1056 269 q 908 278 972 278 q 906 278 907 278 q 903 278 904 278 q 776 239 824 275 q 728 147 731 203 q 765 68 728 101 q 861 32 801 35 q 869 31 865 31 q 878 31 874 31 q 960 46 925 31 q 1018 83 994 61 q 1054 121 1042 104 q 1063 135 1058 128 q 1072 149 1068 142 q 1111 119 1092 135 q 1149 86 1131 104 q 1163 81 1154 81 q 1169 82 1165 81 q 1175 83 1172 83 l 1181 89 q 1188 103 1188 96 q 1182 117 1188 108 q 1168 131 1175 124 q 1154 146 1161 139 q 1100 200 1129 172 q 1126 278 1117 242 q 1143 411 1143 342 q 1083 647 1143 544 q 878 803 1013 767 q 831 813 856 808 q 783 818 807 817 q 773 910 781 869 q 749 983 765 950 q 642 1067 717 1046 q 640 1067 640 1067 q 636 1068 639 1068 q 626 1065 632 1068 q 618 1053 618 1060 l 615 1044 q 626 1022 613 1029 q 673 992 658 1008 q 697 953 688 975 q 710 897 707 931 q 717 815 714 863 q 458 721 575 803 q 434 847 444 785 q 421 957 424 908 q 415 971 421 963 q 401 975 408 975 q 401 975 401 975 q 400 975 401 975 l 378 974 q 360 953 360 971 q 374 824 363 896 q 400 674 385 751 q 288 526 335 613 q 235 394 253 461 q 217 264 217 328 q 253 104 217 169 q 290 56 265 81 q 351 25 314 31 q 367 23 360 24 q 382 22 375 22 l 383 22 l 383 25 z "},"ね":{"ha":1389,"x_min":190,"x_max":1200,"o":"m 486 719 l 486 572 q 447 526 471 556 q 389 453 422 496 l 386 450 q 375 435 381 443 q 364 419 369 426 q 402 512 382 461 q 439 604 422 563 q 462 660 450 631 q 483 711 474 689 l 486 719 m 858 232 q 997 196 921 232 l 994 189 q 980 159 988 174 q 963 129 972 144 q 920 88 942 101 q 868 75 899 75 l 865 75 q 811 83 833 75 q 779 100 789 92 q 763 125 768 110 q 758 154 758 140 q 778 205 758 181 q 844 232 797 229 q 850 232 847 232 q 856 232 853 232 l 858 232 m 532 -21 q 546 -15 542 -21 q 551 -1 551 -11 l 551 544 q 614 604 582 575 q 679 661 646 633 q 879 756 794 756 q 986 710 944 756 q 1039 554 1031 660 q 1043 498 1042 524 q 1044 447 1044 472 q 1039 361 1044 403 q 1022 271 1033 319 q 1019 260 1022 265 q 857 299 936 297 q 849 299 853 299 q 840 297 844 299 q 731 251 771 294 q 692 158 692 207 q 736 63 692 99 q 858 22 781 22 l 863 22 q 945 42 906 22 q 1014 97 985 61 q 1056 164 1039 128 q 1106 132 1081 150 q 1158 93 1131 114 q 1171 89 1164 89 q 1172 89 1172 89 q 1174 89 1172 89 q 1186 96 1182 89 l 1190 100 q 1188 126 1200 114 q 1135 175 1161 153 q 1076 219 1108 197 l 1078 224 q 1083 242 1081 233 q 1088 256 1086 250 q 1106 354 1100 308 q 1111 447 1111 400 q 1110 501 1111 475 q 1106 560 1108 528 q 1036 746 1096 678 q 881 815 974 815 l 879 815 q 638 713 764 815 q 594 676 615 694 q 551 638 574 657 l 551 1086 q 546 1100 551 1094 q 532 1106 540 1106 l 504 1106 q 490 1100 496 1106 q 485 1086 485 1094 l 485 840 l 400 814 q 376 808 388 810 q 354 807 364 807 q 275 853 303 807 q 258 863 268 863 q 253 861 254 863 l 249 861 q 236 850 240 860 q 235 835 232 844 q 278 774 249 799 q 368 743 315 743 q 392 744 379 743 q 417 750 404 746 l 419 750 l 443 757 q 387 624 419 700 q 319 465 354 547 q 253 309 285 383 q 197 183 221 235 q 206 158 190 167 l 232 144 q 240 143 235 143 q 257 153 253 143 q 365 322 308 242 q 485 474 422 403 l 485 -1 q 506 -21 485 -21 l 532 -21 z "},"の":{"ha":1389,"x_min":210,"x_max":1172,"o":"m 642 907 q 649 806 647 858 q 649 693 650 754 q 612 426 646 549 q 522 239 578 303 q 404 169 464 169 l 403 169 q 363 182 379 169 q 329 218 347 194 q 274 383 285 275 q 271 419 272 401 q 271 453 269 436 q 322 658 272 561 q 453 821 371 754 q 640 907 536 888 l 642 907 m 736 24 q 738 24 738 24 q 740 24 739 24 q 1015 157 904 58 q 1165 444 1146 275 q 1169 503 1169 474 q 1142 688 1172 600 q 1056 842 1113 776 q 918 942 1000 906 q 746 981 836 978 q 740 981 743 981 q 735 981 736 981 q 640 972 689 981 q 421 874 517 947 q 269 692 325 800 q 210 454 213 583 q 210 416 210 436 q 213 376 211 396 q 281 179 228 249 q 337 126 308 143 q 401 108 365 108 l 404 108 q 572 203 494 108 q 679 416 642 286 q 715 692 717 546 q 710 806 714 753 q 697 914 707 860 q 717 914 704 914 q 739 914 731 914 q 742 914 740 914 q 743 914 743 914 q 890 881 819 913 q 1007 797 960 850 q 1104 504 1108 681 q 1103 478 1103 492 q 1100 453 1103 465 q 1058 310 1092 378 q 971 196 1024 243 q 731 68 869 104 q 715 46 713 63 l 717 39 q 725 26 719 31 q 736 24 731 24 z "},"は":{"ha":1389,"x_min":288,"x_max":1219,"o":"m 804 249 l 806 249 q 849 247 826 249 q 894 239 872 244 l 894 231 q 867 99 896 139 q 826 67 851 76 q 747 53 797 53 l 746 53 q 658 83 690 53 q 626 150 626 114 q 650 204 626 181 q 740 243 681 233 q 772 247 756 246 q 804 249 788 249 m 746 -14 l 749 -14 q 921 61 871 -11 q 953 139 946 97 q 961 221 960 181 q 1050 185 1004 207 q 1135 133 1101 158 q 1181 100 1169 108 q 1193 96 1186 96 q 1208 103 1201 96 l 1211 106 q 1211 132 1219 119 q 1158 188 1192 156 q 1074 246 1125 219 q 960 292 1022 274 l 954 690 q 1062 714 1010 700 q 1163 746 1114 728 q 1174 756 1168 747 q 1174 771 1176 767 l 1164 797 q 1146 810 1158 810 q 1142 809 1144 810 q 1139 808 1140 808 q 1049 779 1096 792 q 953 757 1003 767 l 947 1057 q 942 1071 947 1065 q 928 1076 933 1076 l 900 1075 q 881 1056 881 1075 l 886 747 q 756 739 817 739 l 754 739 q 669 757 711 739 q 604 803 626 775 q 589 811 600 811 q 582 810 585 811 l 579 808 q 568 797 571 806 q 568 782 563 789 q 644 703 593 733 q 756 672 696 672 q 888 681 817 672 l 893 307 q 804 315 850 315 q 767 313 786 315 q 729 308 747 311 q 603 251 650 296 q 561 150 558 207 q 583 73 561 111 q 647 10 606 35 q 746 -14 689 -14 q 746 -14 746 -14 q 746 -14 746 -14 m 347 -7 q 348 -7 347 -7 q 349 -7 349 -7 l 381 -6 q 399 10 396 -6 q 449 177 417 96 q 522 324 481 258 q 524 338 526 331 q 517 350 522 346 l 510 354 q 499 358 503 358 q 483 351 490 358 q 367 132 411 267 q 358 225 361 175 q 354 324 354 275 q 365 506 354 411 q 397 694 375 600 q 417 794 410 749 q 424 882 424 840 q 402 969 425 933 q 349 1036 379 1006 q 335 1042 344 1042 q 328 1041 332 1042 q 321 1040 324 1040 l 319 1039 q 313 1026 314 1033 q 318 1013 313 1018 q 357 886 357 965 q 350 801 358 847 q 332 714 342 756 q 288 328 288 515 q 329 11 288 150 q 347 -3 332 -3 l 347 -7 z "},"ば":{"ha":1389,"x_min":288,"x_max":1289,"o":"m 1243 992 q 1253 994 1247 992 l 1276 1007 q 1288 1018 1283 1008 q 1286 1033 1289 1025 q 1226 1114 1258 1082 q 1140 1188 1194 1146 q 1128 1192 1133 1192 q 1114 1185 1118 1192 l 1106 1176 q 1101 1163 1100 1168 q 1108 1149 1101 1153 q 1226 1003 1185 1082 q 1243 992 1231 992 m 1133 888 q 1140 889 1139 888 l 1165 899 q 1176 910 1174 903 q 1178 918 1178 914 q 1176 926 1178 922 q 1106 1025 1149 983 q 1028 1092 1064 1067 q 1017 1096 1024 1096 q 1015 1095 1015 1096 q 1013 1094 1014 1094 q 1000 1086 1006 1094 l 994 1079 q 1000 1053 985 1065 q 1063 986 1031 1028 q 1115 899 1094 944 q 1133 888 1119 888 m 804 249 l 806 249 q 849 247 826 249 q 894 239 872 244 l 894 231 q 867 99 896 139 q 826 67 851 76 q 747 53 797 53 l 746 53 q 658 83 690 53 q 626 150 626 114 q 650 204 626 181 q 740 243 681 233 q 772 247 756 246 q 804 249 788 249 m 746 -14 l 749 -14 q 921 61 871 -11 q 953 139 946 97 q 961 221 960 181 q 1050 185 1004 207 q 1135 133 1101 158 q 1181 100 1169 108 q 1193 96 1186 96 q 1208 103 1201 96 l 1211 106 q 1211 132 1219 119 q 1158 188 1192 156 q 1074 246 1125 219 q 960 292 1022 274 l 954 690 q 1062 714 1010 700 q 1163 746 1114 728 q 1174 756 1168 747 q 1174 771 1176 767 l 1164 797 q 1146 810 1158 810 q 1142 809 1144 810 q 1139 808 1140 808 q 1049 779 1096 792 q 953 757 1003 767 l 947 1057 q 942 1071 947 1065 q 928 1076 933 1076 l 900 1075 q 881 1056 881 1075 l 886 747 q 756 739 817 739 l 754 739 q 669 757 711 739 q 604 803 626 775 q 589 811 600 811 q 582 810 585 811 l 579 808 q 568 797 571 806 q 568 782 563 789 q 644 703 593 733 q 756 672 696 672 q 888 681 817 672 l 893 307 q 804 315 850 315 q 767 313 786 315 q 729 308 747 311 q 603 251 650 296 q 561 150 558 207 q 583 73 561 111 q 647 10 606 35 q 746 -14 689 -14 q 746 -14 746 -14 q 746 -14 746 -14 m 347 -7 q 348 -7 347 -7 q 349 -7 349 -7 l 381 -6 q 399 10 396 -6 q 449 176 417 94 q 522 324 481 258 q 524 338 526 331 q 517 350 522 346 l 510 354 q 499 358 503 358 q 483 351 490 358 q 367 132 411 267 q 358 225 361 175 q 354 324 354 275 q 365 506 354 411 q 397 694 375 600 q 417 794 410 749 q 424 882 424 840 q 402 969 425 933 q 349 1036 379 1006 q 335 1042 344 1042 q 328 1041 332 1042 q 321 1040 324 1040 l 319 1039 q 313 1026 314 1033 q 318 1013 313 1018 q 357 886 357 965 q 350 801 358 847 q 332 714 342 756 q 288 328 288 515 q 329 11 288 150 q 347 -3 332 -3 l 347 -7 z "},"ぱ":{"ha":1389,"x_min":288,"x_max":1265,"o":"m 1146 1104 q 1193 1085 1174 1104 q 1213 1038 1213 1065 q 1193 990 1213 1010 q 1146 971 1174 971 q 1099 990 1118 971 q 1079 1038 1079 1010 q 1099 1085 1079 1065 q 1146 1104 1118 1104 m 1146 918 q 1231 953 1196 918 q 1265 1038 1265 988 q 1231 1122 1265 1088 q 1146 1157 1196 1157 q 1061 1122 1096 1157 q 1026 1038 1026 1088 q 1061 953 1026 988 q 1146 918 1096 918 m 804 249 l 806 249 q 849 247 826 249 q 894 239 872 244 l 894 231 q 867 99 896 139 q 826 67 851 76 q 747 53 797 53 l 746 53 q 658 83 690 53 q 626 150 626 114 q 650 204 626 181 q 740 243 681 233 q 772 247 756 246 q 804 249 788 249 m 746 -14 l 749 -14 q 921 61 871 -11 q 953 139 946 97 q 961 221 960 181 q 1050 185 1004 207 q 1135 133 1101 158 q 1181 100 1169 108 q 1193 96 1186 96 q 1208 103 1201 96 l 1211 106 q 1211 132 1219 119 q 1158 188 1192 156 q 1074 246 1125 219 q 960 292 1022 274 l 954 690 q 1062 714 1010 700 q 1163 746 1114 728 q 1174 756 1168 747 q 1174 771 1176 767 l 1164 797 q 1146 810 1158 810 q 1142 809 1144 810 q 1139 808 1140 808 q 1049 779 1096 792 q 953 757 1003 767 l 947 1057 q 942 1071 947 1065 q 928 1076 933 1076 l 900 1075 q 881 1056 881 1075 l 886 747 q 756 739 817 739 l 754 739 q 669 757 711 739 q 604 803 626 775 q 589 811 600 811 q 582 810 585 811 l 579 808 q 568 797 571 806 q 568 782 563 789 q 644 703 593 733 q 756 672 696 672 q 888 681 817 672 l 893 307 q 804 315 850 315 q 767 313 786 315 q 729 308 747 311 q 603 251 650 296 q 561 150 558 207 q 583 73 561 111 q 647 10 606 35 q 746 -14 689 -14 q 746 -14 746 -14 q 746 -14 746 -14 m 347 -7 q 348 -7 347 -7 q 349 -7 349 -7 l 381 -6 q 399 10 396 -6 q 449 176 417 94 q 522 324 481 258 q 524 338 526 331 q 517 350 522 346 l 510 354 q 499 358 503 358 q 483 351 490 358 q 367 132 411 267 q 358 225 361 175 q 354 324 354 275 q 365 506 354 411 q 397 694 375 600 q 417 794 410 749 q 424 882 424 840 q 402 969 425 933 q 349 1036 379 1006 q 335 1042 344 1042 q 328 1041 332 1042 q 321 1040 324 1040 l 319 1039 q 313 1026 314 1033 q 318 1013 313 1018 q 357 886 357 965 q 350 801 358 847 q 332 714 342 756 q 288 328 288 515 q 329 11 288 150 q 347 -3 332 -3 l 347 -7 z "},"ひ":{"ha":1389,"x_min":244,"x_max":1199,"o":"m 615 -22 q 755 7 697 -22 q 849 76 813 36 q 906 149 886 117 q 965 296 944 214 q 986 464 986 378 q 985 494 986 479 q 983 524 985 510 q 963 701 975 610 q 942 863 951 793 q 1037 713 982 790 q 1151 567 1092 635 q 1164 560 1156 560 q 1165 560 1165 560 q 1165 560 1165 560 q 1178 565 1174 560 l 1192 576 q 1199 589 1196 579 q 1193 603 1199 599 q 1079 753 1133 672 q 983 913 1025 835 q 919 1050 942 992 q 900 1063 913 1063 q 898 1062 899 1063 q 896 1061 897 1061 l 867 1054 q 851 1032 849 1049 q 872 897 861 978 q 894 717 883 815 q 917 517 906 619 q 919 491 919 504 q 919 464 919 478 q 901 313 919 388 q 849 183 882 239 q 614 44 764 44 q 607 44 611 44 q 600 44 603 44 q 422 128 479 51 q 383 219 392 169 q 374 306 374 268 q 381 392 374 347 q 401 475 389 436 q 474 649 431 561 q 566 815 518 736 q 657 957 614 894 q 654 982 667 969 l 632 1004 q 618 1010 624 1010 q 607 1006 611 1010 q 569 980 586 992 q 540 961 551 968 l 531 954 q 464 912 499 933 q 399 876 429 890 q 347 864 374 864 q 282 888 310 864 q 269 892 275 892 q 260 889 265 892 l 254 885 q 244 872 247 881 q 249 857 244 861 q 282 822 263 838 q 354 797 314 797 q 429 817 392 797 q 471 841 447 828 q 522 871 494 854 q 413 674 458 768 q 339 496 367 579 q 307 306 307 404 q 368 89 307 174 q 597 -22 444 -15 q 606 -22 601 -22 q 614 -22 610 -22 l 615 -22 z "},"び":{"ha":1389,"x_min":244,"x_max":1289,"o":"m 1243 985 q 1253 988 1247 985 l 1276 1000 q 1288 1011 1283 1001 q 1286 1026 1289 1018 q 1226 1107 1258 1075 q 1140 1181 1194 1139 q 1128 1185 1133 1185 q 1114 1178 1118 1185 l 1106 1169 q 1101 1156 1100 1161 q 1108 1142 1101 1146 q 1226 996 1185 1075 q 1243 985 1231 985 m 1133 881 q 1140 882 1139 881 l 1165 892 q 1176 903 1174 896 q 1178 911 1178 907 q 1176 919 1178 915 q 1106 1018 1149 976 q 1028 1085 1064 1060 q 1017 1089 1024 1089 q 1015 1088 1015 1089 q 1013 1088 1014 1088 q 1000 1079 1006 1088 l 994 1072 q 1000 1046 985 1058 q 1063 979 1031 1021 q 1115 892 1094 938 q 1133 881 1119 881 m 615 -22 q 755 7 697 -22 q 849 76 813 36 q 906 149 886 117 q 965 296 944 214 q 986 464 986 378 q 985 494 986 479 q 983 524 985 510 q 963 701 975 610 q 942 863 951 793 q 1037 713 982 790 q 1151 567 1092 635 q 1164 560 1156 560 q 1165 560 1165 560 q 1165 560 1165 560 q 1178 565 1174 560 l 1192 576 q 1199 589 1196 579 q 1193 603 1199 599 q 1079 753 1133 672 q 983 913 1025 835 q 919 1050 942 992 q 900 1063 913 1063 q 898 1062 899 1063 q 896 1061 897 1061 l 867 1054 q 851 1032 849 1049 q 872 897 861 978 q 894 717 883 815 q 917 517 906 619 q 919 491 919 504 q 919 464 919 478 q 901 313 919 388 q 849 183 882 239 q 614 44 764 44 q 607 44 611 44 q 600 44 603 44 q 422 128 479 51 q 383 219 392 169 q 374 306 374 268 q 381 392 374 347 q 401 475 389 436 q 474 649 431 561 q 566 815 518 736 q 657 957 614 894 q 654 982 667 969 l 632 1004 q 618 1010 624 1010 q 607 1006 611 1010 q 569 980 586 992 q 540 961 551 968 l 531 954 q 464 912 499 933 q 399 876 429 890 q 347 864 374 864 q 282 888 310 864 q 269 892 275 892 q 260 889 265 892 l 254 885 q 244 872 247 881 q 249 857 244 861 q 282 822 263 838 q 354 797 314 797 q 429 817 392 797 q 471 841 447 828 q 522 871 494 854 q 413 674 458 768 q 339 496 367 579 q 307 306 307 404 q 368 89 307 174 q 597 -22 444 -15 q 606 -22 601 -22 q 614 -22 610 -22 l 615 -22 z "},"ぴ":{"ha":1389,"x_min":244,"x_max":1250,"o":"m 1129 1081 q 1177 1061 1157 1081 q 1197 1014 1197 1042 q 1177 966 1197 986 q 1129 946 1157 946 q 1083 966 1103 946 q 1063 1014 1063 986 q 1083 1061 1063 1042 q 1129 1081 1103 1081 m 1129 894 q 1215 929 1179 894 q 1250 1014 1250 964 q 1215 1098 1250 1063 q 1129 1133 1179 1133 q 1045 1098 1081 1133 q 1010 1014 1010 1063 q 1045 929 1010 964 q 1129 894 1081 894 m 615 -22 q 755 7 697 -22 q 849 76 813 36 q 906 149 886 117 q 965 296 944 214 q 986 464 986 378 q 985 494 986 479 q 983 524 985 510 q 963 701 975 610 q 942 863 951 793 q 1037 713 982 790 q 1151 567 1092 635 q 1164 560 1156 560 q 1165 560 1165 560 q 1165 560 1165 560 q 1178 565 1174 560 l 1192 576 q 1199 589 1196 579 q 1193 603 1199 599 q 1079 753 1133 672 q 983 913 1025 835 q 919 1050 942 992 q 900 1063 913 1063 q 898 1062 899 1063 q 896 1061 897 1061 l 867 1054 q 851 1032 849 1049 q 872 897 861 978 q 894 717 883 815 q 917 517 906 619 q 919 491 919 504 q 919 464 919 478 q 901 313 919 388 q 849 183 882 239 q 614 44 764 44 q 607 44 611 44 q 600 44 603 44 q 422 128 479 51 q 383 219 392 169 q 374 306 374 268 q 381 392 374 347 q 401 475 389 436 q 474 649 431 561 q 566 815 518 736 q 657 957 614 894 q 654 982 667 969 l 632 1004 q 618 1010 624 1010 q 607 1006 611 1010 q 569 980 586 992 q 540 961 551 968 l 531 954 q 464 912 499 933 q 399 876 429 890 q 347 864 374 864 q 282 888 310 864 q 269 892 275 892 q 260 889 265 892 l 254 885 q 244 872 247 881 q 249 857 244 861 q 282 822 263 838 q 354 797 314 797 q 429 817 392 797 q 471 841 447 828 q 522 871 494 854 q 413 674 458 768 q 339 496 367 579 q 307 306 307 404 q 368 89 307 174 q 597 -22 444 -15 q 606 -22 601 -22 q 614 -22 610 -22 l 615 -22 z "},"ふ":{"ha":1389,"x_min":186,"x_max":1235,"o":"m 1190 203 q 1200 206 1194 203 l 1224 219 q 1232 232 1232 225 q 1231 247 1235 242 q 1158 356 1192 310 q 1090 439 1124 401 q 1013 514 1056 476 q 1000 518 1008 518 q 999 518 1000 518 q 999 518 999 518 q 985 511 992 518 l 981 506 q 982 478 968 490 q 1075 365 1026 436 q 1174 213 1124 293 q 1186 203 1178 206 q 1188 203 1188 203 q 1190 203 1189 203 m 325 226 q 404 247 364 226 q 491 312 454 275 q 551 385 528 349 q 588 446 575 421 q 589 461 592 451 q 578 472 586 468 l 553 483 q 546 485 550 485 q 528 474 535 485 q 501 430 521 461 q 449 364 481 399 q 372 306 417 329 q 325 293 350 293 q 323 293 324 293 q 322 293 322 293 l 319 293 q 231 339 258 293 q 214 349 224 349 q 212 348 213 349 q 210 347 211 347 l 204 347 q 190 338 196 344 q 189 321 186 328 q 228 264 199 290 q 325 226 267 226 m 663 -21 q 667 -21 665 -21 q 672 -21 669 -21 q 818 42 767 -17 q 865 174 865 93 q 847 264 865 222 q 808 356 829 311 q 768 440 788 400 q 742 496 754 469 q 719 546 729 522 q 708 594 711 568 q 742 710 700 668 q 744 733 753 721 l 742 739 q 729 749 738 746 q 727 749 728 749 q 725 749 726 749 q 713 744 719 749 q 646 592 646 692 q 649 555 644 572 q 658 521 653 538 q 682 467 668 496 q 710 408 696 438 l 710 407 q 749 326 728 369 q 786 240 769 283 q 799 174 799 207 q 768 86 799 119 q 732 56 753 69 q 675 42 711 43 l 668 42 q 597 51 633 42 q 535 75 561 60 q 436 164 485 104 q 421 172 431 172 q 410 168 414 172 l 406 165 q 397 153 400 161 q 401 138 397 144 q 507 31 451 71 q 663 -21 582 -21 m 817 808 q 819 809 818 808 q 821 810 819 810 q 833 818 829 813 l 847 842 q 840 868 857 858 q 711 971 774 910 q 626 1063 656 1022 q 611 1071 619 1071 q 600 1068 603 1071 l 596 1065 q 588 1040 583 1057 q 628 973 604 1006 q 682 913 651 940 q 740 861 711 886 q 806 813 769 836 q 817 808 810 808 z "},"ぶ":{"ha":1389,"x_min":186,"x_max":1250,"o":"m 1203 885 q 1213 886 1210 885 l 1236 899 q 1246 910 1243 900 q 1244 925 1250 917 q 1186 1006 1218 974 q 1100 1079 1154 1038 q 1088 1083 1094 1083 q 1074 1076 1078 1083 l 1065 1068 q 1061 1054 1060 1060 q 1067 1040 1061 1046 q 1186 894 1146 972 q 1203 885 1190 885 m 1093 779 q 1100 781 1099 779 l 1125 790 q 1136 803 1135 794 q 1136 818 1139 810 q 1065 917 1108 875 q 988 983 1022 958 q 976 988 981 988 q 972 986 974 988 q 960 978 965 986 l 954 971 q 960 944 944 957 q 1023 878 992 921 q 1075 790 1054 836 q 1093 779 1079 779 m 1190 203 q 1200 206 1194 203 l 1224 219 q 1232 232 1232 225 q 1231 247 1235 242 q 1158 356 1192 310 q 1090 439 1124 401 q 1013 514 1056 476 q 1000 518 1008 518 q 999 518 1000 518 q 999 518 999 518 q 985 511 992 518 l 981 506 q 982 478 968 490 q 1075 365 1026 436 q 1174 213 1124 293 q 1186 203 1178 206 q 1188 203 1188 203 q 1190 203 1189 203 m 325 226 q 404 247 364 226 q 491 312 454 275 q 551 385 528 349 q 588 446 575 421 q 589 461 592 451 q 578 472 586 468 l 553 483 q 546 485 550 485 q 528 474 535 485 q 501 430 521 461 q 449 364 481 399 q 372 306 417 329 q 325 293 350 293 q 323 293 324 293 q 322 293 322 293 l 319 293 q 231 339 258 293 q 214 349 224 349 q 212 348 213 349 q 210 347 211 347 l 204 347 q 190 338 196 344 q 189 321 186 328 q 228 264 199 290 q 325 226 267 226 m 663 -21 q 667 -21 665 -21 q 672 -21 669 -21 q 818 42 767 -17 q 865 174 865 93 q 847 264 865 222 q 808 356 829 311 q 768 440 788 400 q 742 496 754 469 q 719 546 729 522 q 708 594 711 568 q 742 710 700 668 q 744 733 753 721 l 742 739 q 729 749 738 746 q 727 749 728 749 q 725 749 726 749 q 713 744 719 749 q 646 592 646 692 q 649 555 644 572 q 658 521 653 538 q 682 467 668 496 q 710 408 696 438 l 710 407 q 749 326 728 369 q 786 240 769 283 q 799 174 799 207 q 768 86 799 119 q 732 56 753 69 q 675 42 711 43 l 668 42 q 597 51 633 42 q 535 75 561 60 q 436 164 485 104 q 421 172 431 172 q 410 168 414 172 l 406 165 q 397 153 400 161 q 401 138 397 144 q 507 31 451 71 q 663 -21 582 -21 m 817 808 q 819 809 818 808 q 821 810 819 810 q 833 818 829 813 l 847 842 q 840 868 857 858 q 711 971 774 910 q 626 1063 656 1022 q 611 1071 619 1071 q 600 1068 603 1071 l 596 1065 q 588 1040 583 1057 q 628 973 604 1006 q 682 913 651 940 q 740 861 711 886 q 806 813 769 836 q 817 808 810 808 z "},"ぷ":{"ha":1389,"x_min":186,"x_max":1235,"o":"m 1072 947 q 1119 928 1100 947 q 1139 881 1139 908 q 1119 833 1139 853 q 1072 814 1100 814 q 1024 833 1044 814 q 1004 881 1004 853 q 1024 928 1004 908 q 1072 947 1044 947 m 1072 761 q 1156 796 1121 761 q 1192 881 1192 831 q 1156 965 1192 931 q 1072 1000 1121 1000 q 987 965 1022 1000 q 951 881 951 931 q 987 796 951 831 q 1072 761 1022 761 m 1190 203 q 1200 206 1194 203 l 1224 219 q 1232 232 1232 225 q 1231 247 1235 242 q 1158 356 1192 310 q 1090 439 1124 401 q 1013 514 1056 476 q 1000 518 1008 518 q 999 518 1000 518 q 999 518 999 518 q 985 511 992 518 l 981 506 q 982 478 968 490 q 1075 365 1026 436 q 1174 213 1124 293 q 1186 203 1178 206 q 1188 203 1188 203 q 1190 203 1189 203 m 325 226 q 404 247 364 226 q 491 312 454 275 q 551 385 528 349 q 588 446 575 421 q 589 461 592 451 q 578 472 586 468 l 553 483 q 546 485 550 485 q 528 474 535 485 q 501 430 521 461 q 449 364 481 399 q 372 306 417 329 q 325 293 350 293 q 323 293 324 293 q 322 293 322 293 l 319 293 q 231 339 258 293 q 214 349 224 349 q 212 348 213 349 q 210 347 211 347 l 204 347 q 190 338 196 344 q 189 321 186 328 q 228 264 199 290 q 325 226 267 226 m 663 -21 q 667 -21 665 -21 q 672 -21 669 -21 q 818 42 767 -17 q 865 174 865 93 q 847 264 865 222 q 808 356 829 311 q 768 440 788 400 q 742 496 754 469 q 719 546 729 522 q 708 594 711 568 q 742 710 700 668 q 744 733 753 721 l 742 739 q 729 749 738 746 q 727 749 728 749 q 725 749 726 749 q 713 744 719 749 q 646 592 646 692 q 649 555 644 572 q 658 521 653 538 q 682 467 668 496 q 710 408 696 438 l 710 407 q 749 326 728 369 q 786 240 769 283 q 799 174 799 207 q 768 86 799 119 q 732 56 753 69 q 675 42 711 43 l 668 42 q 597 51 633 42 q 535 75 561 60 q 436 164 485 104 q 421 172 431 172 q 410 168 414 172 l 406 165 q 397 153 400 161 q 401 138 397 144 q 507 31 451 71 q 663 -21 582 -21 m 817 808 q 819 809 818 808 q 821 810 819 810 q 833 818 829 813 l 847 842 q 840 868 857 858 q 711 971 774 910 q 626 1063 656 1022 q 611 1071 619 1071 q 600 1068 603 1071 l 596 1065 q 588 1040 583 1057 q 628 973 604 1006 q 682 913 651 940 q 740 861 711 886 q 806 813 769 836 q 817 808 810 808 z "},"へ":{"ha":1389,"x_min":197,"x_max":1208,"o":"m 1171 203 q 1185 210 1181 203 l 1197 224 q 1196 251 1208 236 q 985 453 1076 357 q 815 640 893 550 q 743 724 775 686 q 690 789 711 763 q 665 821 675 808 q 650 840 656 833 q 635 847 646 847 l 603 847 q 586 838 592 844 q 544 776 575 821 q 481 683 513 731 q 383 542 421 596 q 331 467 346 489 q 303 438 317 447 q 282 426 290 428 q 278 426 281 426 q 275 426 276 426 q 238 440 251 426 q 224 444 231 444 q 214 442 217 444 l 207 438 q 197 424 200 433 q 203 408 197 414 q 285 367 236 367 q 385 428 342 367 q 423 482 399 447 q 476 560 447 517 q 535 644 506 603 q 587 720 564 686 q 621 769 610 754 q 705 667 651 731 q 829 525 758 603 q 983 365 900 447 q 1158 207 1067 283 q 1171 203 1163 203 z "},"べ":{"ha":1389,"x_min":197,"x_max":1208,"o":"m 1071 833 q 1079 836 1076 833 l 1104 849 q 1114 860 1111 850 q 1113 875 1118 867 q 1054 956 1086 924 q 968 1029 1022 988 q 956 1033 961 1033 q 942 1026 946 1033 l 933 1018 q 929 1004 928 1010 q 935 990 929 994 q 1054 844 1014 922 q 1071 833 1058 833 m 961 729 q 968 731 967 729 l 993 740 q 1004 751 1001 744 q 1003 768 1007 761 q 933 867 975 825 q 856 933 892 908 q 844 938 850 938 q 842 937 843 938 q 840 936 842 936 q 828 928 833 936 l 822 921 q 826 894 814 907 q 890 828 858 869 q 943 740 922 786 q 961 729 947 729 m 1171 203 q 1185 210 1181 203 l 1197 224 q 1196 251 1208 236 q 985 453 1076 357 q 815 640 893 550 q 743 724 775 686 q 690 789 711 763 q 665 821 675 808 q 650 840 656 833 q 635 847 646 847 l 603 847 q 586 838 592 844 q 544 776 575 821 q 481 683 513 731 q 383 542 421 596 q 331 467 346 489 q 303 438 317 447 q 282 426 290 428 q 278 426 281 426 q 275 426 276 426 q 238 440 251 426 q 224 444 231 444 q 214 442 217 444 l 207 438 q 197 424 200 433 q 203 408 197 414 q 285 367 236 367 q 385 428 342 367 q 423 482 399 447 q 476 560 447 517 q 535 644 506 603 q 587 720 564 686 q 621 769 610 754 q 705 667 651 731 q 829 525 758 603 q 983 365 900 447 q 1158 207 1067 283 q 1171 203 1163 203 z "},"ぺ":{"ha":1389,"x_min":197,"x_max":1208,"o":"m 979 933 q 1026 914 1006 933 q 1046 867 1046 894 q 1026 819 1046 839 q 979 799 1006 799 q 931 819 951 799 q 911 867 911 839 q 931 914 911 894 q 979 933 951 933 m 979 747 q 1063 782 1028 747 q 1099 867 1099 817 q 1063 951 1099 915 q 979 986 1028 986 q 894 951 929 986 q 858 867 858 915 q 894 782 858 817 q 979 747 929 747 m 1171 203 q 1185 210 1181 203 l 1197 224 q 1196 251 1208 236 q 985 453 1076 357 q 815 640 893 550 q 743 724 775 686 q 690 789 711 763 q 665 821 675 808 q 650 840 656 833 q 635 847 646 847 l 603 847 q 586 838 592 844 q 544 776 575 821 q 481 683 513 731 q 383 542 421 596 q 331 467 346 489 q 303 438 317 447 q 282 426 290 428 q 278 426 281 426 q 275 426 276 426 q 238 440 251 426 q 224 444 231 444 q 214 442 217 444 l 207 438 q 197 424 200 433 q 203 408 197 414 q 285 367 236 367 q 385 428 342 367 q 423 482 399 447 q 476 560 447 517 q 535 644 506 603 q 587 720 564 686 q 621 769 610 754 q 705 667 651 731 q 829 525 758 603 q 983 365 900 447 q 1158 207 1067 283 q 1171 203 1163 203 z "},"ほ":{"ha":1389,"x_min":286,"x_max":1235,"o":"m 797 243 q 886 235 842 243 l 886 199 q 874 125 888 156 q 842 76 861 94 q 749 46 810 46 q 685 56 708 46 q 649 76 661 67 q 619 136 619 100 q 647 200 619 167 q 744 240 675 233 q 772 242 758 242 q 797 243 785 243 m 749 -21 q 888 28 835 -21 q 953 196 949 86 l 953 218 q 1080 158 1021 194 q 1192 83 1139 122 q 1203 79 1196 79 q 1205 79 1204 79 q 1206 79 1206 79 q 1219 88 1215 82 l 1225 96 q 1222 121 1235 111 q 1105 217 1169 171 q 951 288 1040 263 l 947 572 q 1175 622 1036 586 q 1186 632 1181 624 q 1189 647 1190 639 l 1181 674 q 1163 688 1178 688 q 1160 688 1161 688 q 1157 688 1158 688 q 947 639 1031 653 l 943 904 q 1015 918 981 911 q 1085 936 1050 925 q 1096 946 1094 939 q 1097 960 1101 954 l 1090 986 q 1071 1000 1086 1000 q 1068 1000 1069 1000 q 1065 1000 1067 1000 q 916 967 985 976 q 796 957 847 958 q 782 956 792 956 q 694 969 732 957 q 636 1004 656 981 q 622 1011 632 1011 q 613 1008 618 1011 l 604 1004 q 594 992 597 1000 q 597 975 593 985 q 674 912 626 935 q 781 889 722 889 l 782 889 q 790 890 786 889 q 799 890 794 890 q 839 893 819 892 q 878 896 858 894 l 881 631 l 867 629 q 826 624 846 626 q 789 622 807 622 q 611 683 671 624 q 597 689 603 689 q 586 685 590 689 l 578 678 q 571 665 571 674 q 575 650 569 658 q 792 558 654 558 l 794 558 q 838 560 817 560 q 882 564 858 561 l 885 303 q 841 308 863 306 q 797 310 819 310 q 738 306 769 310 q 635 274 676 300 q 574 212 594 249 q 553 136 553 175 q 606 25 553 71 q 747 -21 660 -21 l 749 -21 m 346 -7 q 347 -7 346 -7 q 347 -7 347 -7 l 379 -6 q 397 10 394 -6 q 448 177 417 96 q 521 324 479 258 q 524 338 525 331 q 515 350 522 346 l 503 358 q 492 361 497 361 q 476 354 483 361 q 410 251 436 301 q 365 143 383 200 q 355 231 358 186 q 351 324 351 275 q 396 696 351 503 q 415 794 408 749 q 422 882 422 840 q 353 1040 422 967 q 339 1046 347 1046 q 331 1045 335 1046 q 325 1044 328 1044 l 318 1039 q 312 1026 313 1033 q 317 1013 311 1018 q 356 886 356 965 q 349 801 357 847 q 331 714 340 756 q 286 328 286 515 q 328 11 286 150 q 346 -3 331 -3 l 346 -7 z "},"ぼ":{"ha":1389,"x_min":263,"x_max":1308,"o":"m 1263 1007 q 1271 1010 1265 1007 l 1296 1022 q 1306 1033 1303 1025 q 1304 1049 1308 1040 q 1246 1129 1278 1097 q 1158 1203 1214 1161 q 1147 1207 1154 1207 q 1132 1200 1139 1207 l 1125 1192 q 1119 1178 1119 1186 q 1126 1164 1122 1167 q 1195 1094 1167 1129 q 1246 1018 1224 1058 q 1263 1007 1250 1007 m 1153 903 q 1160 904 1157 903 l 1185 914 q 1196 925 1190 917 q 1194 942 1199 935 q 1124 1040 1167 999 q 1046 1107 1081 1082 q 1035 1111 1042 1111 q 1033 1110 1033 1111 q 1032 1110 1033 1110 q 1019 1101 1025 1110 l 1014 1094 q 1018 1068 1004 1079 q 1082 1001 1050 1043 q 1135 914 1114 960 q 1153 903 1139 903 m 774 232 l 775 232 q 863 224 819 232 l 863 188 q 851 115 864 144 q 819 67 839 86 q 725 35 785 35 q 662 45 686 35 q 625 65 638 56 q 596 125 596 92 q 625 189 597 156 q 721 229 653 222 q 748 231 735 231 q 774 232 761 232 m 725 -32 q 864 18 811 -32 q 929 185 928 75 l 929 207 q 1056 148 997 185 q 1168 72 1115 111 q 1181 69 1176 69 q 1181 69 1181 69 q 1183 69 1182 69 q 1196 78 1192 69 l 1201 85 q 1199 111 1211 99 q 1081 206 1146 161 q 928 276 1017 251 l 925 561 q 1026 581 971 568 q 1151 613 1081 594 q 1164 621 1160 614 q 1166 628 1165 625 q 1165 636 1167 632 l 1158 663 q 1139 676 1154 676 q 1137 676 1138 676 q 1135 676 1136 676 q 1018 647 1069 658 q 924 629 967 636 l 921 893 q 971 903 950 897 q 1017 914 992 908 q 1028 924 1025 917 q 1029 939 1032 929 l 1021 965 q 1003 979 1018 979 q 1000 978 1001 979 q 997 978 999 978 q 874 953 924 960 q 772 946 825 947 q 766 946 769 946 q 760 946 763 946 q 614 993 653 946 q 599 1000 607 1000 q 589 997 594 1000 l 581 993 q 572 981 572 988 q 575 965 569 971 q 652 901 604 924 q 758 879 700 879 l 760 879 q 768 879 764 879 q 776 879 772 879 q 816 882 796 881 q 854 885 836 883 l 857 619 l 843 618 q 803 614 824 617 q 765 611 783 611 q 588 672 647 613 q 575 678 582 678 q 563 674 567 678 l 554 668 q 547 654 550 664 q 551 639 547 644 q 646 571 592 594 q 768 549 700 547 l 772 549 q 858 553 813 549 l 861 292 q 819 297 840 294 q 774 299 797 299 q 744 298 758 299 q 715 296 731 297 q 613 264 654 290 q 550 201 571 238 q 529 125 529 164 q 582 14 532 58 q 725 -32 639 -32 m 322 -18 q 323 -18 322 -18 q 324 -18 324 -18 l 357 -17 q 375 -1 369 -17 q 425 166 393 85 q 497 313 457 247 q 492 339 507 329 l 479 347 q 469 351 475 351 q 453 343 461 351 q 388 240 414 290 q 342 132 361 189 q 329 313 329 217 q 340 495 329 400 q 372 685 351 590 q 392 783 385 738 q 400 871 400 829 q 329 1029 400 954 q 315 1036 325 1036 q 303 1031 308 1036 l 296 1024 q 293 997 283 1013 q 333 871 333 951 q 326 785 333 831 q 308 699 318 740 q 274 502 286 600 q 263 313 263 404 q 304 -4 263 138 q 322 -18 308 -18 z "},"ぽ":{"ha":1389,"x_min":286,"x_max":1306,"o":"m 1186 1103 q 1234 1083 1214 1103 q 1254 1036 1254 1064 q 1234 988 1254 1008 q 1186 968 1214 968 q 1139 988 1158 968 q 1119 1036 1119 1008 q 1139 1083 1119 1064 q 1186 1103 1158 1103 m 1186 915 q 1271 951 1236 915 q 1306 1036 1306 986 q 1271 1120 1306 1085 q 1186 1156 1236 1156 q 1102 1120 1138 1156 q 1067 1036 1067 1085 q 1102 951 1067 986 q 1186 915 1138 915 m 797 243 q 886 235 842 243 l 886 199 q 874 125 888 156 q 842 76 861 94 q 749 46 810 46 q 685 56 708 46 q 649 76 661 67 q 619 136 619 100 q 647 200 619 167 q 744 240 675 233 q 772 242 758 242 q 797 243 785 243 m 749 -21 q 888 28 835 -21 q 953 196 949 86 l 953 218 q 1080 158 1021 194 q 1192 83 1139 122 q 1203 79 1196 79 q 1205 79 1204 79 q 1206 79 1206 79 q 1219 88 1215 82 l 1225 96 q 1222 121 1235 111 q 1105 217 1169 171 q 951 288 1040 263 l 947 572 q 1175 622 1036 586 q 1186 632 1181 624 q 1189 647 1190 639 l 1181 674 q 1163 688 1178 688 q 1160 688 1161 688 q 1157 688 1158 688 q 947 639 1031 653 l 943 904 q 994 913 972 908 q 1040 925 1015 918 q 1051 935 1047 928 q 1053 950 1056 940 l 1044 975 q 1026 989 1040 989 q 1024 989 1025 989 q 1021 989 1022 989 q 897 964 947 969 q 796 957 847 958 q 782 956 792 956 q 694 969 732 957 q 636 1004 656 981 q 622 1011 632 1011 q 613 1008 618 1011 l 604 1004 q 594 992 597 1000 q 597 975 593 985 q 674 912 626 935 q 781 889 722 889 l 782 889 q 790 890 786 889 q 799 890 794 890 q 839 893 819 892 q 878 896 858 894 l 881 631 l 867 629 q 826 624 846 626 q 789 622 807 622 q 611 683 671 624 q 597 689 603 689 q 586 685 590 689 l 578 678 q 571 665 571 674 q 575 650 569 658 q 792 558 654 558 l 794 558 q 838 560 817 560 q 882 564 858 561 l 885 303 q 841 308 863 306 q 797 310 819 310 q 738 306 769 310 q 635 274 676 300 q 574 212 594 249 q 553 136 553 175 q 606 25 553 71 q 747 -21 660 -21 l 749 -21 m 346 -7 q 347 -7 346 -7 q 347 -7 347 -7 l 379 -6 q 397 10 394 -6 q 448 177 417 96 q 521 324 479 258 q 524 338 525 331 q 515 350 522 346 l 503 358 q 492 361 497 361 q 476 354 483 361 q 410 251 436 301 q 365 143 383 200 q 355 231 358 186 q 351 324 351 275 q 396 696 351 503 q 415 794 408 749 q 422 882 422 840 q 353 1040 422 967 q 339 1046 347 1046 q 331 1045 335 1046 q 325 1044 328 1044 l 318 1039 q 312 1026 313 1033 q 317 1013 311 1018 q 356 886 356 965 q 349 801 357 847 q 331 714 340 756 q 286 328 286 515 q 328 11 286 150 q 346 -3 331 -3 l 346 -7 z "},"ま":{"ha":1389,"x_min":315,"x_max":1085,"o":"m 615 239 q 693 235 653 239 l 693 221 q 654 79 694 129 q 601 41 633 54 q 524 29 569 28 l 517 29 q 418 62 454 29 q 382 131 382 94 q 411 189 382 164 q 450 213 424 200 q 521 232 476 225 q 568 238 544 236 q 615 239 592 239 m 525 -37 q 707 38 644 -37 q 747 116 733 71 q 760 221 761 161 l 760 222 q 920 163 854 199 q 1047 82 986 128 q 1058 79 1053 79 q 1072 85 1068 79 l 1079 92 q 1085 107 1085 97 q 1079 119 1085 114 q 758 290 931 253 l 754 490 q 868 510 808 497 q 996 539 928 522 q 1007 549 1001 540 q 1010 564 1011 556 l 1003 590 q 983 604 999 604 q 981 604 982 604 q 978 604 981 604 q 860 576 917 588 q 753 557 804 564 l 749 767 q 819 780 783 772 q 886 794 854 788 l 890 796 q 951 808 921 803 q 1010 821 981 814 q 1026 843 1029 824 l 1021 869 q 1013 882 1019 878 q 1001 886 1008 886 q 1000 886 1000 886 q 999 886 1000 886 q 940 874 969 881 q 883 863 911 868 l 874 860 q 810 846 843 853 q 747 833 778 839 l 742 1076 q 736 1090 742 1083 q 722 1096 731 1096 l 694 1094 q 681 1089 689 1094 q 675 1075 675 1081 l 681 822 q 601 812 636 815 q 536 808 565 808 l 535 808 q 508 809 519 808 q 486 811 497 810 q 406 833 432 818 q 363 867 381 849 q 349 872 357 872 q 339 869 344 872 l 331 864 q 321 851 324 860 q 324 836 321 840 q 343 812 332 825 q 369 786 354 799 q 479 744 413 753 q 506 742 492 743 q 535 742 519 742 q 603 745 567 742 q 682 756 639 749 l 686 550 q 606 546 642 546 q 574 547 590 546 q 544 549 558 547 q 456 566 489 554 q 399 601 422 578 q 385 606 392 606 q 375 604 378 606 l 368 600 q 358 588 360 594 q 363 571 358 578 q 421 519 379 549 q 539 482 463 489 q 571 480 554 481 q 606 479 588 479 q 688 483 644 479 l 692 301 q 615 306 654 306 q 565 303 590 306 q 513 299 539 301 q 367 239 418 283 q 315 131 315 192 q 343 47 317 85 q 415 -14 369 8 q 517 -37 461 -36 q 520 -37 518 -37 q 524 -37 522 -37 l 525 -37 z "},"み":{"ha":1389,"x_min":171,"x_max":1231,"o":"m 531 475 q 551 474 542 475 q 571 474 561 474 l 532 368 q 494 285 517 324 q 449 221 472 247 q 335 153 389 153 q 289 164 315 153 q 247 206 256 178 q 238 261 238 233 q 263 351 236 306 q 338 428 290 396 q 450 469 386 461 q 490 474 469 472 q 531 475 510 475 m 826 -51 q 843 -40 839 -51 q 940 160 897 61 q 1014 354 983 260 q 1106 310 1061 332 q 1192 263 1150 288 q 1201 260 1197 260 q 1204 260 1203 260 q 1207 261 1206 261 q 1218 271 1214 264 l 1222 276 q 1215 301 1231 292 q 1135 354 1179 328 q 1032 414 1092 381 q 1075 555 1057 492 q 1103 651 1093 618 q 1101 665 1104 656 q 1089 675 1099 672 l 1063 682 q 1060 682 1061 682 q 1057 682 1058 682 q 1039 668 1042 682 q 1033 644 1036 658 q 1024 613 1029 631 q 999 528 1011 571 q 972 443 986 486 q 958 449 965 446 q 943 454 950 451 q 799 502 869 483 q 661 531 728 521 l 814 957 q 810 978 818 969 l 785 1001 q 772 1007 779 1007 q 765 1006 767 1007 l 764 1006 l 761 1004 q 701 984 744 997 q 606 960 658 971 q 553 953 575 953 l 549 953 q 435 997 467 953 q 418 1006 428 1006 q 415 1006 417 1006 q 413 1006 414 1006 l 410 1004 q 397 993 401 1003 q 397 978 394 986 q 451 913 414 938 q 553 886 496 886 q 619 894 583 886 q 676 908 647 900 q 732 924 704 915 l 593 539 q 562 541 578 540 q 531 542 546 542 q 486 540 508 542 q 442 536 464 539 q 297 482 358 525 q 204 379 236 439 q 171 261 172 319 q 198 168 171 208 q 272 108 225 128 q 308 99 290 103 q 342 94 325 94 q 500 178 428 94 q 551 250 528 208 q 594 344 575 292 l 639 467 q 919 393 769 450 q 936 385 928 389 q 951 379 944 382 q 875 161 913 261 q 800 -19 838 61 q 800 -35 796 -28 q 810 -46 803 -43 l 818 -50 q 826 -51 821 -51 z "},"む":{"ha":1389,"x_min":213,"x_max":1169,"o":"m 1126 481 q 1135 483 1129 481 l 1158 496 q 1168 508 1167 501 q 1165 524 1169 517 q 1061 707 1108 617 q 982 869 1014 797 q 964 882 976 882 q 961 881 963 882 q 958 881 960 881 l 951 878 q 940 868 943 875 q 939 853 936 860 q 985 748 956 811 q 1047 616 1014 685 q 1108 492 1079 547 q 1121 482 1114 483 q 1124 481 1122 482 q 1126 481 1125 481 m 385 626 q 389 626 386 626 q 393 625 392 625 q 450 592 429 621 q 469 541 463 572 q 478 469 475 510 q 439 389 464 422 q 354 335 397 336 q 344 335 349 335 q 333 338 339 336 q 312 351 321 339 q 296 379 303 364 q 279 461 279 411 q 308 578 279 528 q 385 626 339 625 m 710 -36 q 849 -20 783 -36 q 958 24 914 -4 q 1046 157 1024 67 q 1061 248 1058 201 q 1064 328 1064 294 q 1064 351 1064 339 q 1064 378 1064 364 q 1057 393 1064 386 q 1044 397 1053 397 l 1038 397 q 1019 378 1019 394 q 921 79 1015 153 q 861 51 897 61 q 785 35 825 40 q 713 31 746 31 l 710 31 q 691 31 700 31 q 674 32 682 31 q 553 64 585 38 q 529 100 538 78 q 521 171 521 128 q 523 220 521 193 q 531 281 525 247 q 541 369 538 328 q 544 447 544 411 q 544 455 544 451 q 544 461 544 458 q 550 491 547 475 q 556 522 553 507 q 565 643 561 567 q 569 829 568 719 q 654 850 614 839 q 739 875 694 861 q 750 885 749 878 q 751 900 756 893 l 743 925 q 725 939 739 939 q 719 938 721 939 q 571 897 642 913 q 571 938 571 918 q 571 978 571 958 q 571 1049 571 1018 q 571 1099 571 1081 q 564 1113 571 1106 q 550 1118 558 1118 l 524 1117 q 504 1097 504 1117 q 504 1049 504 1081 q 504 978 504 1018 q 504 932 504 956 q 504 883 504 908 q 471 877 488 881 q 436 871 454 874 q 388 867 411 867 l 385 867 q 274 915 306 867 q 257 924 269 924 q 250 922 253 924 l 243 919 q 232 908 235 915 q 233 892 229 899 q 278 833 251 856 q 386 800 319 800 l 388 800 q 417 801 401 800 q 447 806 432 803 q 475 811 461 808 q 503 815 489 814 q 501 719 503 764 q 499 638 500 674 q 399 692 461 688 q 392 692 396 692 q 386 692 389 692 l 385 692 q 253 613 301 692 q 213 461 213 549 q 236 349 213 396 q 265 309 244 332 q 321 279 285 286 q 338 277 329 278 q 354 276 346 276 q 469 324 418 276 q 467 307 468 315 q 465 290 467 299 q 457 225 460 256 q 454 171 454 194 q 467 79 454 117 q 543 -7 486 18 q 668 -35 586 -29 q 689 -36 678 -36 q 710 -36 700 -36 z "},"め":{"ha":1389,"x_min":211,"x_max":1183,"o":"m 468 733 q 682 817 560 800 q 701 819 692 818 q 719 819 710 819 l 718 815 q 671 544 708 675 q 572 317 633 414 q 506 508 531 411 q 468 733 482 606 m 410 681 q 461 453 429 557 q 533 269 493 350 q 513 243 522 256 q 492 221 503 231 q 426 167 460 186 q 365 149 393 147 q 306 182 329 149 q 286 228 296 197 q 278 311 276 258 q 278 337 278 324 q 279 364 278 350 q 408 679 300 561 q 409 679 408 679 q 410 681 410 679 m 699 -18 q 701 -18 700 -18 q 703 -18 701 -18 q 1038 133 915 21 q 1182 449 1167 253 q 1183 466 1182 457 q 1183 483 1183 475 q 1148 650 1183 572 q 1047 783 1113 728 q 789 885 939 872 q 789 899 789 892 q 789 911 789 906 q 764 1061 789 1011 q 689 1138 740 1111 q 679 1139 686 1139 q 676 1139 678 1139 q 674 1139 675 1139 q 663 1129 665 1136 l 660 1124 q 667 1099 653 1108 q 695 1070 686 1088 q 710 1036 704 1053 q 719 988 717 1017 q 722 913 722 958 q 722 900 722 906 q 722 888 722 894 q 674 883 699 888 q 458 808 554 868 q 448 906 453 856 q 440 1008 443 957 q 421 1028 440 1028 q 421 1028 421 1028 q 421 1028 421 1028 l 393 1026 q 379 1019 383 1024 q 375 1006 374 1011 q 384 879 378 939 q 397 763 390 819 q 377 744 386 753 q 360 726 368 735 q 214 371 235 589 q 211 341 211 356 q 211 313 211 326 q 250 147 211 207 q 364 83 292 83 l 365 83 q 540 176 454 83 q 681 385 631 272 q 755 608 732 497 q 785 813 778 719 l 786 821 q 905 792 849 814 q 1004 733 961 769 q 1117 485 1117 640 q 1117 469 1117 478 q 1115 454 1117 461 q 997 176 1103 275 q 869 93 944 129 q 692 31 794 57 q 678 7 675 26 l 679 -1 q 688 -14 682 -10 q 699 -17 693 -17 l 699 -18 z "},"も":{"ha":1389,"x_min":274,"x_max":1063,"o":"m 757 -26 l 764 -26 q 869 -12 828 -25 q 940 28 911 1 q 997 97 969 56 q 1063 353 1063 194 q 1058 424 1063 389 q 1051 438 1058 431 q 1039 442 1047 442 q 1038 442 1039 442 q 1038 442 1038 442 l 1032 440 q 1015 421 1015 438 q 1013 340 1017 392 q 993 232 1008 289 q 944 129 978 175 q 764 40 881 42 l 757 40 q 576 135 638 40 q 521 361 521 221 q 521 390 521 375 q 522 419 521 404 q 674 433 600 422 q 832 468 749 444 q 844 478 839 469 q 846 493 849 483 l 839 519 q 819 533 835 533 q 815 532 817 533 q 667 500 736 511 q 525 486 597 489 q 535 602 529 542 q 551 725 542 663 q 700 748 625 732 q 843 781 775 764 q 854 790 850 783 q 857 804 860 797 l 850 831 q 831 846 846 846 q 828 846 829 846 q 826 846 828 846 q 700 816 769 831 q 563 793 631 801 q 625 1088 588 944 q 611 1111 631 1107 l 585 1118 q 581 1119 583 1119 q 571 1117 576 1119 q 561 1104 564 1113 q 524 949 542 1028 q 493 788 507 869 l 492 788 q 486 788 489 788 q 481 788 483 788 l 479 788 q 317 847 356 788 q 300 856 311 856 q 293 854 294 856 l 288 853 q 276 842 279 849 q 278 825 274 832 q 342 756 300 783 q 479 721 400 721 l 483 721 q 458 486 467 601 q 329 549 381 490 q 315 556 325 556 q 307 553 313 556 l 303 551 q 292 539 293 547 q 294 524 290 531 q 322 488 303 510 q 374 447 340 465 q 456 421 407 428 q 455 390 456 406 q 454 361 454 375 q 521 99 454 201 q 754 -26 600 -26 l 757 -26 q 757 -26 757 -26 q 757 -26 757 -26 z "},"ゃ":{"ha":1389,"x_min":279,"x_max":1089,"o":"m 776 724 q 783 726 778 724 q 792 735 789 728 l 800 756 q 799 768 803 763 q 789 776 797 774 q 701 811 743 792 q 613 861 658 831 q 604 864 610 864 q 592 860 596 864 l 588 854 q 583 843 582 849 q 589 831 583 835 q 771 725 665 767 q 774 724 772 725 q 776 724 775 724 m 722 -44 q 724 -44 724 -44 q 728 -44 725 -44 l 744 -37 q 756 -17 761 -32 l 576 504 q 699 572 640 540 q 799 621 758 603 q 838 633 817 628 q 879 638 858 638 q 974 610 935 638 q 1031 524 1018 581 q 1033 511 1032 517 q 1033 500 1033 506 q 988 406 1033 447 q 842 358 935 358 q 819 359 831 358 q 797 361 808 360 q 796 361 796 361 q 794 361 796 361 q 779 351 783 361 l 776 342 q 776 329 775 336 q 786 321 781 322 q 868 307 826 307 q 978 333 928 307 q 1058 403 1028 360 q 1089 500 1089 447 q 1085 536 1089 517 q 1006 656 1068 613 q 879 692 950 692 q 776 671 822 692 q 679 622 736 653 q 558 557 622 592 l 482 779 q 474 789 481 785 q 467 790 471 790 q 464 790 465 790 q 461 790 463 790 l 440 783 q 431 775 435 782 q 431 763 428 769 l 510 532 q 469 508 489 519 q 435 486 450 496 q 398 471 415 475 q 365 467 381 467 q 311 486 338 467 q 301 489 306 489 q 297 489 300 489 q 292 489 294 489 l 286 486 q 279 475 281 481 q 282 463 279 471 q 296 447 289 454 q 310 433 303 439 q 374 413 336 413 q 463 442 413 413 q 529 482 489 458 l 706 -29 q 714 -39 708 -36 q 722 -40 717 -40 l 722 -44 z "},"や":{"ha":1389,"x_min":194,"x_max":1192,"o":"m 808 915 q 815 917 814 915 q 826 928 824 921 l 836 953 q 835 968 839 963 q 824 978 833 975 q 714 1021 767 997 q 606 1083 661 1044 q 594 1088 600 1088 q 581 1081 585 1088 l 575 1075 q 569 1061 569 1069 q 576 1046 569 1053 q 681 974 625 1006 q 800 917 736 943 q 808 915 803 915 m 740 -35 q 743 -34 742 -35 q 747 -33 744 -33 l 768 -25 q 781 0 786 -21 l 560 643 q 712 726 639 688 q 836 788 785 764 q 933 807 882 807 q 998 799 967 807 q 1053 774 1029 790 q 1122 667 1107 736 q 1125 652 1125 660 q 1125 638 1125 644 q 1068 521 1125 571 q 888 457 997 457 q 832 461 858 457 q 831 461 831 461 q 829 461 831 461 q 811 449 815 461 l 808 442 q 808 426 806 435 q 821 417 814 418 q 921 400 871 400 q 1056 432 994 400 q 1155 518 1118 464 q 1192 638 1192 572 q 1188 681 1192 660 q 1089 829 1167 776 q 933 874 1024 874 q 869 867 901 874 q 808 847 836 861 q 686 788 757 825 q 538 707 615 750 l 443 982 q 433 993 440 992 q 425 996 428 996 q 422 995 424 996 q 418 994 419 994 l 393 985 q 382 975 383 982 q 381 960 378 969 l 481 675 q 429 644 453 660 q 386 618 406 629 q 341 600 363 606 q 300 594 319 594 q 233 618 261 594 q 221 622 229 622 q 215 622 218 622 q 210 619 213 621 l 204 614 q 196 601 196 610 q 199 586 194 593 q 232 551 214 568 q 310 525 267 525 q 421 563 358 525 q 458 585 438 572 q 503 611 479 597 l 722 -21 q 732 -32 725 -31 q 740 -35 738 -35 z "},"ゅ":{"ha":1389,"x_min":325,"x_max":1083,"o":"m 803 203 q 816 274 811 238 q 821 351 821 311 q 822 371 822 361 q 822 392 822 381 q 820 508 822 442 q 813 657 818 575 q 817 657 815 657 q 822 657 819 657 q 975 586 911 657 q 1015 519 1001 558 q 1028 436 1028 481 q 1027 414 1028 425 q 1025 392 1026 403 q 951 247 1010 297 q 811 203 896 203 q 807 203 808 203 q 803 203 806 203 m 644 -50 q 654 -46 650 -50 q 786 146 744 32 q 799 145 792 146 q 811 144 806 144 q 986 206 914 144 q 1079 385 1063 269 q 1083 436 1083 410 q 1015 624 1083 551 q 931 683 981 663 q 822 703 881 703 q 817 703 819 703 q 811 703 814 703 q 806 801 808 758 q 800 861 803 844 q 794 872 800 868 q 785 876 790 876 q 783 876 783 876 q 783 876 783 876 l 761 875 q 746 857 743 875 q 750 789 747 831 q 756 699 753 747 l 756 697 q 510 522 603 671 q 446 374 469 458 q 408 221 422 289 q 388 307 396 263 q 381 388 381 351 q 391 478 381 432 q 421 574 401 524 q 449 688 449 640 q 427 747 449 725 q 386 781 406 768 q 378 782 383 782 q 376 782 376 782 q 374 782 375 782 q 363 774 367 779 l 361 769 q 365 749 353 756 q 385 728 375 742 q 393 688 393 711 q 371 594 393 647 q 325 388 325 486 q 343 262 325 322 q 390 133 361 201 q 406 124 394 124 q 407 124 407 124 q 408 124 407 124 l 431 126 q 444 140 444 129 q 557 493 481 371 q 758 650 640 624 q 767 392 767 492 q 767 372 767 381 q 767 353 767 363 q 749 207 764 272 q 685 223 717 213 q 619 251 653 233 q 613 254 617 254 q 599 247 603 254 l 592 235 q 588 221 588 228 q 596 211 590 213 q 735 154 664 169 q 626 -12 700 56 q 624 -33 617 -22 l 629 -43 q 642 -50 635 -49 q 642 -50 642 -50 q 644 -50 643 -50 z "},"ゆ":{"ha":1389,"x_min":226,"x_max":1161,"o":"m 814 258 q 838 446 836 347 q 838 469 838 457 q 838 496 838 482 q 835 640 838 557 q 826 824 833 722 q 833 824 829 824 q 839 824 836 824 q 1028 738 949 824 q 1094 551 1094 664 q 1090 496 1094 522 q 999 317 1074 381 q 825 258 928 258 q 819 258 822 258 q 814 258 817 258 m 618 -49 q 632 -44 625 -49 q 794 193 743 51 q 809 192 801 192 q 825 192 817 192 q 1042 267 951 192 q 1156 486 1135 344 q 1160 519 1158 503 q 1161 551 1161 536 q 1139 679 1161 619 q 1078 782 1117 739 q 839 878 989 878 q 831 878 835 878 q 824 878 828 878 q 817 1001 821 947 q 811 1075 814 1054 q 804 1089 811 1082 q 792 1093 800 1093 l 790 1093 l 764 1092 q 746 1071 743 1089 q 751 986 747 1036 q 758 875 754 936 l 758 871 q 454 656 568 840 q 398 538 422 603 q 357 406 374 472 q 329 282 340 339 q 303 389 313 333 q 293 490 293 444 q 343 719 293 599 q 369 795 360 760 q 376 861 378 831 q 350 934 376 907 q 300 975 324 961 q 290 978 294 978 q 285 976 286 978 q 272 968 276 975 l 269 963 q 275 936 263 946 q 299 911 289 926 q 311 861 311 890 q 282 746 311 813 q 226 490 226 613 q 249 335 226 410 q 307 176 271 260 q 325 165 311 165 q 326 165 325 165 q 328 165 326 165 l 356 169 q 372 186 369 169 q 511 621 414 467 q 761 815 611 782 q 769 636 767 717 q 771 496 771 556 q 771 471 771 483 q 771 447 771 458 q 764 352 769 399 q 749 264 758 306 q 586 317 663 276 q 578 318 583 318 q 561 311 568 318 l 554 301 q 551 285 550 292 q 560 272 551 278 q 731 203 643 222 q 677 87 710 139 q 600 -7 644 35 q 597 -32 589 -18 l 603 -40 q 615 -49 608 -49 q 617 -49 617 -49 q 618 -49 618 -49 z "},"ょ":{"ha":1389,"x_min":378,"x_max":1006,"o":"m 621 192 q 658 190 639 192 q 697 186 678 189 q 694 122 697 156 q 679 61 692 89 q 664 35 672 49 q 643 14 656 21 q 568 -6 614 -6 q 562 -6 565 -6 q 556 -6 558 -6 q 465 30 499 -3 q 432 97 432 63 q 439 124 433 111 q 457 147 444 136 q 550 186 490 178 q 585 190 568 189 q 621 192 603 192 m 569 -53 q 672 -28 631 -53 q 742 76 725 6 q 750 126 747 101 q 753 174 753 151 q 879 119 825 153 q 968 58 933 86 q 979 56 974 56 q 980 56 979 56 q 981 56 981 56 q 993 63 986 56 l 997 71 q 994 92 1006 82 q 888 174 944 142 q 753 231 831 207 q 749 376 751 306 q 743 514 747 446 q 759 513 751 513 q 774 513 767 513 q 965 553 868 513 q 974 561 972 556 q 974 574 978 567 l 967 593 q 957 601 963 600 q 951 603 954 603 q 947 603 950 603 q 943 603 944 603 q 848 567 892 575 q 774 558 804 558 q 757 558 765 558 q 739 560 749 558 q 726 702 733 631 q 707 849 718 774 q 701 860 707 854 q 692 864 697 864 q 689 863 689 864 l 667 860 q 656 853 660 860 q 653 842 653 850 q 685 547 675 689 q 697 243 696 404 q 658 247 678 244 q 621 249 639 249 q 581 247 601 249 q 542 242 561 244 q 419 190 463 229 q 378 99 378 151 q 428 -4 378 39 q 553 -51 478 -47 q 561 -51 557 -51 q 568 -51 565 -51 l 569 -51 l 569 -53 z "},"よ":{"ha":1389,"x_min":274,"x_max":1047,"o":"m 575 272 l 576 272 q 671 264 622 272 q 667 185 671 228 q 649 111 664 143 q 629 78 640 94 q 603 50 618 61 q 511 26 564 26 l 510 26 q 503 27 507 26 q 496 28 499 28 q 383 71 424 31 q 343 154 342 111 q 374 218 343 189 q 488 265 410 253 q 531 270 510 268 q 575 272 553 272 m 513 -31 q 638 1 586 -31 q 725 131 703 43 q 735 192 732 161 q 738 250 738 222 q 895 183 828 224 q 1006 108 963 143 q 1018 104 1010 104 q 1019 104 1018 104 q 1021 104 1019 104 q 1033 111 1029 104 l 1038 117 q 1035 142 1047 129 q 899 249 969 207 q 738 318 828 292 q 733 499 736 411 q 725 669 731 586 q 745 668 736 668 q 764 668 754 668 q 880 680 821 668 q 1000 717 939 692 q 1011 728 1008 721 q 1011 743 1014 735 l 1001 767 q 990 776 996 775 q 983 778 988 778 q 978 778 981 778 q 974 778 975 778 q 856 733 911 743 q 764 722 801 722 q 742 723 753 722 q 721 725 732 724 q 705 901 714 813 q 682 1082 696 989 q 674 1096 679 1092 q 663 1100 669 1100 q 660 1099 660 1100 l 632 1096 q 615 1074 613 1090 q 645 828 633 947 q 663 588 657 710 q 671 333 669 467 q 623 338 647 336 q 575 340 599 340 q 526 339 551 340 q 478 338 501 338 q 328 272 381 321 q 276 160 274 224 q 305 70 276 111 q 382 4 333 29 q 492 -24 431 -21 q 502 -25 497 -25 q 511 -25 507 -25 l 513 -25 l 513 -31 z "},"ら":{"ha":1389,"x_min":375,"x_max":1094,"o":"m 635 -46 q 885 7 776 -46 q 1040 132 985 58 q 1094 290 1094 206 q 1062 413 1094 357 q 972 506 1029 469 q 840 550 914 542 q 811 552 825 551 q 782 553 797 553 l 781 553 q 569 490 665 553 q 444 371 507 449 q 442 401 443 386 q 442 432 442 417 q 460 633 442 533 q 501 796 478 733 q 489 821 507 814 l 464 831 q 457 832 461 832 q 453 832 456 832 q 449 832 450 832 q 439 821 440 826 q 410 719 425 781 q 385 584 394 657 q 375 433 375 511 q 388 292 375 354 q 403 275 389 281 l 436 269 q 438 269 438 269 q 440 269 439 269 q 456 276 451 269 q 607 436 532 386 q 782 489 683 486 q 833 485 806 489 q 973 420 918 475 q 1028 292 1028 365 q 1017 229 1028 269 q 970 143 1007 189 q 857 58 933 97 q 633 0 743 0 q 608 1 621 0 q 581 3 594 1 l 579 3 q 560 -15 563 3 l 558 -21 q 564 -36 558 -31 q 578 -43 568 -43 q 606 -44 592 -44 q 635 -44 621 -44 l 635 -46 m 779 906 q 789 908 783 906 q 797 921 797 914 l 804 947 q 801 961 807 954 q 789 971 797 968 q 783 972 786 971 q 778 972 781 972 q 697 992 739 982 q 618 1019 656 1003 l 594 1031 l 590 1033 q 531 1061 558 1047 q 483 1088 503 1075 q 472 1092 479 1092 q 464 1088 468 1092 q 457 1082 460 1083 l 453 1076 q 447 1061 447 1071 q 456 1047 449 1054 q 514 1011 479 1029 q 594 971 549 993 q 687 933 640 950 q 774 906 733 917 q 776 906 775 906 q 779 906 778 906 z "},"り":{"ha":1389,"x_min":431,"x_max":996,"o":"m 618 -29 q 622 -28 619 -29 q 625 -28 624 -28 q 702 12 651 -17 q 809 91 753 40 q 911 218 865 142 q 974 403 957 294 q 990 549 985 474 q 996 708 996 625 q 991 876 996 788 q 976 1071 986 964 q 974 1077 975 1074 q 969 1083 972 1081 q 957 1088 964 1088 q 956 1088 956 1088 q 954 1088 956 1088 l 928 1086 q 910 1064 907 1083 q 924 872 919 958 q 929 708 929 786 q 908 413 929 547 q 853 247 894 325 q 748 108 811 168 q 608 17 685 47 q 597 -8 590 8 l 600 -15 q 610 -26 603 -24 q 618 -29 615 -29 m 476 333 q 477 333 476 333 q 478 333 478 333 l 510 335 q 528 351 525 335 q 621 565 553 475 q 626 580 626 572 q 618 592 625 588 l 611 597 q 599 601 606 601 q 585 596 590 601 q 500 483 535 546 q 497 538 497 510 q 497 594 497 567 q 506 731 497 667 q 533 842 515 794 q 548 895 544 871 q 551 946 551 919 q 508 1051 551 1007 q 493 1057 501 1058 q 479 1051 485 1057 l 474 1044 q 472 1019 463 1033 q 490 956 490 994 q 485 912 490 935 q 472 865 481 889 q 431 594 431 757 q 438 467 431 531 q 457 349 444 404 q 476 333 463 333 z "},"る":{"ha":1389,"x_min":285,"x_max":1078,"o":"m 572 235 q 614 226 593 235 q 671 190 649 214 q 708 142 693 167 q 744 44 732 107 q 692 40 717 40 q 521 104 585 40 q 499 154 499 126 q 514 206 499 190 q 533 222 517 210 q 572 235 550 235 m 692 -26 q 856 7 776 -26 q 1017 135 957 50 q 1078 319 1078 219 q 1044 454 1078 392 q 947 557 1010 517 q 719 626 846 626 q 579 601 647 626 l 892 992 q 893 1014 901 1001 l 874 1042 q 858 1050 869 1050 q 855 1050 856 1050 q 853 1050 854 1050 l 576 963 q 571 961 572 963 l 568 961 q 558 958 563 960 q 547 957 553 957 q 543 957 544 957 q 539 957 542 957 q 451 997 485 957 q 436 1006 444 1006 q 426 1003 432 1006 l 421 1000 q 411 988 413 994 q 415 972 411 976 q 550 897 467 897 q 592 901 571 897 l 593 903 l 789 963 l 292 349 q 288 333 285 342 q 294 321 288 325 l 313 306 q 325 301 319 301 q 340 308 336 301 l 454 451 q 574 531 506 503 q 721 560 643 560 q 911 501 825 560 q 1011 319 1011 433 q 962 171 1011 239 q 829 68 913 103 q 819 65 824 67 q 808 61 814 63 q 764 178 793 132 q 636 278 721 249 q 603 286 619 283 q 571 289 586 289 q 469 247 508 289 q 433 154 433 208 q 474 58 432 100 q 692 -26 558 -26 z "},"れ":{"ha":1389,"x_min":192,"x_max":1271,"o":"m 479 693 l 478 549 q 431 494 454 522 q 385 439 407 467 q 422 539 406 489 q 439 585 431 563 q 456 629 447 608 l 458 635 l 479 693 m 525 -33 q 538 -28 533 -33 q 544 -14 544 -24 l 543 524 q 606 588 575 557 q 669 649 638 619 q 726 699 692 671 q 797 753 760 728 q 885 803 853 792 q 932 815 917 815 l 933 815 q 957 811 947 815 q 973 797 967 806 q 985 778 979 789 q 994 749 992 767 q 996 707 996 731 q 985 592 996 660 q 961 443 975 525 q 948 345 953 392 q 943 258 943 299 q 964 124 943 175 q 978 95 969 107 q 997 72 986 83 q 1056 49 1024 50 q 1061 48 1058 49 q 1065 47 1064 47 q 1115 59 1093 47 q 1149 82 1136 71 q 1224 195 1197 125 q 1269 335 1250 265 q 1267 350 1271 342 q 1256 358 1263 356 l 1246 361 q 1244 361 1244 361 q 1242 361 1243 361 q 1222 347 1226 361 q 1190 260 1210 301 q 1156 190 1171 218 q 1133 156 1146 172 q 1108 129 1119 139 q 1065 114 1089 114 q 1063 114 1064 114 q 1061 114 1063 114 q 1042 122 1050 115 q 1018 169 1026 135 q 1010 258 1010 206 q 1026 432 1010 336 q 1053 590 1043 524 q 1063 707 1063 656 q 1046 806 1063 767 q 979 868 1024 851 q 932 876 958 876 q 840 853 885 875 q 760 808 794 831 q 685 751 719 781 q 625 699 651 722 q 584 660 604 681 q 543 621 564 640 l 543 1074 q 538 1088 543 1082 q 524 1093 532 1093 l 496 1093 q 483 1088 489 1093 q 476 1074 476 1082 l 476 828 l 392 801 q 385 799 389 800 q 379 797 382 799 l 378 797 q 366 794 372 794 q 354 792 360 793 q 354 792 354 792 q 354 792 354 792 q 350 792 353 792 q 346 792 347 792 q 293 807 311 792 q 271 838 281 817 q 253 850 267 850 q 251 850 251 850 q 247 850 250 850 l 240 847 q 228 838 232 844 q 226 822 224 832 q 269 761 240 786 q 358 731 307 731 q 382 732 369 731 q 408 736 394 733 l 410 738 l 433 744 q 424 718 429 732 q 413 689 418 704 l 403 667 l 403 665 q 353 538 381 607 q 299 399 326 469 q 245 267 271 329 q 199 158 219 204 q 208 133 192 140 l 233 119 q 242 118 236 118 q 260 128 254 118 q 363 294 308 214 q 478 447 417 375 l 478 -14 q 497 -33 478 -33 l 525 -33 z "},"ろ":{"ha":1389,"x_min":272,"x_max":1093,"o":"m 1093 339 q 1026 511 1093 433 q 938 581 986 557 q 840 614 889 606 q 750 622 792 622 q 550 586 647 622 l 879 1010 q 879 1033 889 1022 l 860 1060 q 844 1068 856 1068 q 838 1067 840 1068 q 790 1051 814 1060 q 743 1036 767 1043 q 651 1008 703 1024 q 558 982 599 992 q 545 980 551 981 q 532 979 539 979 l 526 979 q 478 986 496 978 q 446 1007 461 994 q 433 1011 442 1011 q 422 1008 425 1011 l 417 1004 q 408 992 408 999 q 411 976 407 983 q 457 933 431 951 q 532 913 489 913 q 553 914 542 913 q 575 918 564 915 q 638 936 600 925 q 718 963 675 947 q 749 972 733 967 q 782 982 765 976 l 278 342 q 274 328 272 336 q 281 315 275 319 l 303 297 q 308 294 306 296 q 314 293 311 293 q 316 294 315 293 q 317 294 317 294 q 331 301 324 294 l 438 440 q 519 500 468 474 q 629 542 569 526 q 747 557 689 557 l 750 557 q 976 467 897 557 q 1026 339 1026 411 q 999 231 1026 283 q 921 142 971 179 q 794 74 876 108 q 588 33 713 39 q 569 13 569 33 l 569 4 q 576 -10 569 -3 q 589 -15 581 -15 l 590 -15 q 797 17 704 -14 q 958 100 890 49 q 1058 210 1022 147 q 1093 339 1093 272 z "},"ゎ":{"ha":1389,"x_min":283,"x_max":1089,"o":"m 518 546 l 518 443 q 478 397 499 421 q 436 347 457 372 l 432 343 q 464 419 447 379 q 496 496 481 460 q 508 522 503 510 q 518 546 513 535 m 535 -44 l 557 -44 q 574 -28 574 -44 l 574 425 q 624 468 599 447 q 675 507 649 489 q 842 565 761 565 q 965 519 915 565 q 1031 382 1019 471 q 1033 365 1033 374 q 1033 346 1033 356 q 967 167 1033 233 q 892 113 944 144 q 751 75 839 82 q 736 58 736 75 l 736 47 q 742 36 736 40 q 751 32 746 32 l 753 32 q 894 61 831 33 q 1001 133 958 89 q 1089 346 1089 221 q 1088 367 1089 357 q 1086 389 1088 378 q 1003 560 1071 496 q 842 621 938 621 q 644 553 742 621 q 609 526 626 540 q 574 496 592 513 l 574 853 q 557 869 574 869 l 535 869 q 524 865 528 869 q 518 853 518 860 l 518 654 l 451 633 q 445 632 449 632 q 440 631 442 632 l 439 629 q 417 625 425 625 q 415 625 415 625 q 415 625 415 625 q 408 624 413 624 q 371 639 389 624 q 356 664 363 646 q 340 675 351 675 q 336 674 338 675 l 328 671 q 317 663 321 668 q 317 649 314 656 q 350 600 326 621 q 424 575 381 575 q 464 579 443 575 l 467 581 l 483 586 q 438 478 464 540 q 385 349 413 415 q 331 224 357 283 q 286 122 306 164 q 285 110 283 117 q 293 101 288 103 l 308 94 q 315 92 311 92 q 329 100 324 92 q 422 247 375 181 q 518 368 469 314 l 519 -28 q 524 -40 519 -33 q 535 -44 528 -44 z "},"わ":{"ha":1389,"x_min":185,"x_max":1181,"o":"m 479 711 l 479 569 q 428 513 453 542 q 376 451 403 483 l 369 443 q 424 581 393 507 q 479 711 456 654 m 499 -31 l 526 -31 q 546 -11 546 -31 l 546 547 q 608 601 576 575 q 671 650 639 628 q 878 721 776 721 q 1031 664 969 721 q 1111 494 1096 604 q 1115 450 1115 474 q 1093 326 1114 383 q 1032 229 1072 269 q 976 184 1013 210 q 888 138 940 158 q 764 111 835 117 q 746 90 746 108 l 747 81 q 754 67 747 74 q 767 63 758 63 l 768 63 q 942 100 864 67 q 1075 189 1019 133 q 1181 450 1181 297 q 1181 477 1181 464 q 1178 504 1181 490 q 1076 714 1158 636 q 878 788 994 788 q 633 704 756 788 q 546 633 589 675 l 546 1076 q 525 1096 546 1096 l 499 1096 q 485 1090 489 1096 q 479 1076 479 1085 l 479 831 l 394 804 q 381 800 386 801 l 379 800 q 351 793 361 793 q 351 793 351 793 q 350 793 350 793 q 346 793 347 793 q 342 793 344 793 q 294 810 314 793 q 272 840 282 819 q 254 853 268 853 q 252 853 253 853 q 250 853 251 853 l 243 850 q 231 840 232 847 q 229 825 226 833 q 271 764 244 786 q 361 733 310 733 q 386 735 374 733 q 411 739 399 736 l 413 740 l 436 747 q 381 614 413 690 q 314 456 349 538 q 247 299 279 374 q 192 174 215 225 q 200 149 185 157 l 218 139 q 226 138 221 138 q 244 147 238 138 q 479 479 356 346 l 479 -11 q 485 -25 479 -19 q 499 -31 490 -31 z "},"ゐ":{"ha":1389,"x_min":226,"x_max":1176,"o":"m 639 603 q 572 398 610 493 q 489 224 533 303 q 404 119 450 157 q 361 91 381 101 q 331 81 342 81 q 296 96 308 81 q 286 120 290 103 q 282 160 282 138 q 318 304 282 219 q 445 486 360 407 q 639 603 531 565 m 769 211 q 872 168 825 211 q 906 115 892 149 q 929 49 921 81 q 821 26 881 29 q 818 26 819 26 q 814 26 817 26 q 703 56 742 26 q 665 121 665 86 q 670 149 665 133 q 682 174 675 165 q 709 194 692 183 q 747 210 726 206 q 758 211 753 211 q 769 211 764 211 m 814 -40 q 819 -40 817 -40 q 824 -40 822 -40 q 967 -7 900 -39 q 1083 82 1035 25 q 1151 200 1128 133 q 1176 336 1175 267 q 1123 525 1176 442 q 974 653 1069 608 q 880 683 928 672 q 781 694 832 694 q 756 694 768 694 q 729 692 743 693 q 760 847 747 767 q 783 1011 774 928 q 775 1029 783 1022 l 749 1049 q 736 1053 742 1053 q 729 1050 735 1053 l 593 992 q 555 975 571 981 q 526 969 539 969 q 497 972 517 969 q 468 983 478 975 q 447 1010 456 993 q 429 1021 440 1021 q 422 1018 425 1021 l 411 1014 q 400 1003 406 1011 q 401 986 397 993 q 440 938 419 954 q 528 907 478 907 q 621 931 569 907 l 719 975 q 694 835 710 906 q 664 700 679 764 l 658 678 q 424 551 528 644 q 267 326 321 458 q 236 235 246 278 q 226 156 226 192 q 233 102 226 126 q 254 60 239 78 q 333 22 283 22 q 444 68 389 22 q 547 192 503 114 q 639 389 597 281 q 713 622 681 497 q 747 626 731 625 q 781 628 764 628 q 946 592 867 628 q 1067 489 1024 556 q 1110 336 1110 422 q 1090 224 1110 279 q 1032 126 1069 169 q 1011 103 1022 114 q 988 83 1000 93 q 917 201 967 151 q 771 264 851 264 q 754 263 763 264 q 738 261 746 263 q 640 211 678 251 q 606 125 606 174 q 663 10 606 58 q 814 -40 721 -40 z "},"ゑ":{"ha":1389,"x_min":204,"x_max":1172,"o":"m 600 554 l 601 554 q 663 525 640 551 q 672 505 669 515 q 675 488 675 494 q 646 422 675 461 q 574 443 603 429 q 543 468 553 454 l 542 469 q 532 492 532 482 l 531 496 q 550 535 533 521 q 570 549 560 543 q 600 554 581 554 m 682 -50 l 715 -50 q 732 -40 726 -50 q 747 -15 739 -28 q 761 11 754 -3 q 793 68 778 42 q 825 113 808 94 q 929 174 876 174 l 932 174 q 997 151 969 174 q 1046 101 1025 128 q 1084 34 1069 71 q 1106 -32 1099 -3 q 1125 -46 1110 -46 q 1127 -46 1126 -46 q 1129 -46 1128 -46 l 1156 -39 q 1168 -31 1164 -36 q 1169 -15 1172 -24 q 1139 72 1157 33 q 1099 142 1121 111 q 1023 207 1067 183 q 931 229 979 231 l 926 229 q 781 154 843 226 q 740 95 760 131 q 697 14 719 60 q 669 62 685 36 q 635 113 654 88 q 578 172 607 147 q 513 197 550 197 q 510 197 511 197 q 506 197 508 197 q 514 204 510 200 q 524 213 518 208 l 525 214 q 539 226 532 219 q 550 235 546 232 q 617 299 590 272 q 668 354 644 325 l 669 354 q 683 353 675 353 q 694 353 690 353 q 750 356 722 353 q 806 367 778 360 q 965 453 906 392 q 1024 592 1024 514 q 990 694 1024 647 q 899 765 956 742 q 728 796 819 796 q 685 794 706 796 q 643 789 664 792 l 853 994 q 856 1018 865 1004 l 840 1046 q 822 1056 833 1056 q 820 1056 821 1056 q 818 1056 819 1056 l 646 1007 q 602 997 622 1000 q 564 993 582 994 q 560 993 561 993 q 556 993 558 993 q 501 1001 521 993 q 468 1026 482 1008 q 453 1033 461 1033 q 444 1032 447 1033 l 439 1029 q 428 1018 433 1026 q 431 1001 426 1011 q 481 949 450 967 q 565 928 517 928 q 610 931 586 928 q 664 943 635 933 l 756 975 l 349 593 q 343 579 343 588 q 349 565 343 574 l 368 546 q 382 540 374 540 q 390 541 386 540 q 396 542 393 542 l 529 672 l 533 675 q 621 720 572 706 q 722 735 669 735 l 724 735 q 803 728 764 735 q 874 710 843 721 q 937 656 917 692 q 957 588 957 621 q 945 533 957 564 q 897 472 933 501 q 789 424 861 442 q 753 416 772 419 q 717 411 733 413 q 734 447 726 429 q 742 483 742 465 q 713 558 742 525 q 601 608 669 608 q 513 579 550 608 q 468 492 468 543 q 468 490 468 490 q 468 488 468 489 q 474 454 468 471 q 490 424 479 438 q 576 367 521 385 q 587 363 582 364 q 597 360 592 361 q 555 318 578 342 q 501 267 532 294 q 406 180 457 226 q 299 82 354 133 q 246 33 269 56 q 211 0 222 11 q 204 -15 204 -7 q 211 -29 204 -25 l 232 -46 q 244 -50 236 -50 q 251 -49 247 -50 q 257 -49 254 -49 l 260 -46 q 333 19 282 -28 q 443 121 383 67 q 492 140 469 140 q 589 68 531 140 q 613 33 603 50 q 632 3 624 17 l 633 1 q 641 -12 638 -6 q 649 -24 644 -18 q 665 -49 658 -40 q 682 -57 669 -57 l 682 -50 z "},"を":{"ha":1389,"x_min":288,"x_max":1039,"o":"m 763 -32 q 892 -25 836 -32 q 994 -10 947 -18 q 1010 13 1013 -7 l 1008 22 q 989 38 1006 38 q 988 38 988 38 q 986 38 988 38 q 901 27 950 32 q 792 22 853 22 q 729 24 761 22 q 661 29 697 26 q 544 69 592 35 q 504 153 504 103 q 536 236 504 192 q 690 389 593 319 q 694 307 694 351 l 694 290 q 694 259 694 275 q 693 228 694 243 q 699 214 693 218 q 713 207 703 207 l 738 207 q 758 225 756 207 q 760 267 760 247 q 760 307 760 288 q 751 429 760 375 q 833 474 790 453 q 921 514 875 494 q 972 540 951 526 q 1007 568 992 553 q 1039 642 1039 597 q 1024 703 1039 668 q 1013 714 1021 711 q 1010 715 1011 714 q 1006 715 1008 715 q 997 713 1003 715 l 988 708 q 978 685 974 701 q 983 648 983 671 q 964 611 983 625 q 942 597 958 607 q 892 572 925 588 q 867 561 879 567 q 844 551 856 556 l 843 550 q 789 524 815 538 q 736 497 763 511 q 714 551 726 526 q 686 599 701 575 q 630 649 664 631 q 560 668 596 668 q 557 668 558 668 q 553 668 556 668 q 507 656 533 668 q 515 668 511 661 q 521 681 518 675 l 522 683 q 551 735 536 708 q 576 783 565 761 q 719 822 653 797 q 869 888 786 847 q 879 899 878 893 q 878 914 882 908 l 867 939 q 849 950 863 950 q 840 947 846 950 q 721 895 774 917 q 613 860 668 874 q 669 991 647 935 q 701 1076 692 1047 q 700 1092 704 1083 q 689 1101 694 1100 l 663 1110 q 657 1111 661 1111 q 638 1097 642 1111 q 601 1003 628 1071 q 531 843 575 936 q 512 841 521 842 q 493 840 503 840 q 405 854 440 842 q 343 894 369 867 q 329 901 336 901 q 318 899 324 901 l 311 893 q 301 881 304 889 q 306 865 299 872 q 374 803 329 833 q 490 774 419 774 l 493 774 q 495 774 494 774 q 497 774 496 774 q 401 599 451 683 q 299 442 351 515 q 304 414 288 425 l 326 399 q 338 394 331 394 q 339 394 339 394 q 340 394 339 394 q 353 403 349 397 q 399 472 376 436 q 446 544 422 508 l 447 546 q 495 590 465 574 q 554 607 525 606 q 561 608 557 608 q 603 593 586 608 q 632 560 619 578 q 676 461 661 519 q 566 372 615 419 q 481 274 517 325 q 439 151 439 214 q 455 80 438 114 q 504 22 472 46 q 663 -29 568 -25 q 714 -31 689 -31 q 763 -32 739 -32 z "},"ん":{"ha":1389,"x_min":236,"x_max":1192,"o":"m 283 -17 q 301 -6 294 -17 q 349 109 325 51 q 397 222 374 167 l 399 225 q 449 309 417 269 q 515 381 481 349 q 642 454 593 454 q 668 449 657 454 q 696 419 685 443 q 721 322 713 386 q 724 290 722 307 q 726 254 725 272 l 726 249 q 731 188 728 218 q 739 129 733 157 q 776 42 751 72 q 863 -6 808 1 q 875 -7 869 -7 q 888 -7 881 -7 l 889 -7 q 1003 33 950 -7 q 1065 99 1036 60 q 1119 197 1093 139 q 1192 414 1157 283 q 1192 421 1192 417 q 1189 429 1192 425 q 1176 438 1185 436 l 1172 439 q 1169 439 1171 439 q 1167 439 1168 439 q 1149 425 1151 439 q 1103 289 1129 349 q 1042 175 1078 229 q 1003 125 1025 150 q 963 86 981 100 q 889 60 926 60 q 880 60 883 60 q 872 60 876 60 q 836 75 849 64 q 803 150 814 96 q 797 198 799 172 q 793 251 794 224 q 790 294 792 272 q 786 339 789 317 q 761 432 778 396 q 737 469 753 449 q 693 501 721 489 q 640 513 667 513 q 504 456 567 510 q 592 639 551 557 q 665 786 632 721 l 682 819 q 706 906 706 867 q 653 1024 706 965 q 639 1031 649 1031 q 624 1025 629 1031 l 619 1019 q 618 994 607 1007 q 643 907 650 957 q 622 849 639 885 l 600 804 q 444 485 536 678 q 239 19 351 292 q 239 6 236 13 q 250 -6 243 -1 l 275 -15 q 283 -17 278 -17 z "},"ァ":{"ha":1389,"x_min":338,"x_max":1033,"o":"m 475 -49 q 485 -46 479 -49 q 667 170 607 47 q 731 449 728 293 q 820 522 775 481 q 907 607 865 564 q 980 685 949 650 q 1026 736 1011 719 q 1029 756 1033 746 l 1015 779 q 1001 788 1011 788 q 1000 788 1000 788 q 1000 788 1000 788 l 519 732 q 519 732 519 732 q 518 732 519 732 q 482 728 500 728 q 378 776 408 729 q 364 785 374 785 q 362 784 363 785 q 358 783 361 783 l 350 779 q 340 771 344 778 q 342 757 338 763 q 386 701 358 722 q 482 674 425 674 q 503 674 492 674 q 526 676 515 675 l 943 726 q 888 667 922 703 q 813 590 854 631 q 729 517 771 550 q 725 572 728 544 q 718 629 722 600 q 711 640 717 636 q 701 643 706 643 q 700 643 700 643 q 699 643 700 643 l 676 639 q 663 621 660 636 q 675 465 675 538 q 621 196 675 311 q 456 -7 567 81 q 451 -31 443 -17 l 461 -42 q 472 -49 464 -46 q 474 -49 474 -49 q 475 -49 474 -49 z "},"ア":{"ha":1389,"x_min":254,"x_max":1111,"o":"m 422 -51 q 433 -47 429 -51 q 736 561 731 182 q 847 653 790 601 q 955 758 904 706 q 1044 854 1006 811 q 1103 918 1083 897 q 1104 940 1111 929 l 1089 969 q 1071 981 1082 981 q 1070 981 1071 981 q 1069 979 1069 981 l 476 911 q 476 910 476 911 q 475 910 475 910 q 453 908 464 908 q 431 907 442 907 q 297 964 333 908 q 281 974 292 974 q 274 972 276 974 l 268 969 q 257 958 260 967 q 257 943 254 954 q 281 905 267 922 q 313 875 294 888 q 431 840 357 840 q 485 844 456 840 l 1001 906 q 935 833 978 878 q 839 737 892 788 q 735 644 786 686 q 730 713 733 678 q 721 785 726 749 q 713 797 718 793 q 701 801 708 801 q 699 801 700 801 q 697 801 699 801 l 671 796 q 654 774 651 793 q 666 674 663 722 q 669 582 669 626 q 603 245 669 389 q 401 -6 538 101 q 394 -17 394 -10 q 397 -32 393 -25 l 406 -43 q 419 -51 413 -50 q 420 -51 419 -51 q 422 -51 421 -51 z "},"ィ":{"ha":1389,"x_min":332,"x_max":904,"o":"m 713 -26 q 729 -10 729 -26 l 729 532 q 728 539 729 536 q 794 594 764 567 q 854 649 825 621 q 904 757 904 699 q 882 828 904 796 q 871 835 879 832 q 870 835 871 835 q 868 835 869 835 q 858 831 863 835 l 851 825 q 847 806 840 817 q 815 688 874 749 q 340 351 639 508 q 333 342 335 349 q 335 329 332 335 l 340 317 q 350 308 344 310 q 352 308 351 308 q 356 308 353 308 q 363 310 361 308 q 535 407 458 361 q 674 499 611 453 l 674 -10 q 690 -26 674 -26 l 713 -26 z "},"イ":{"ha":1389,"x_min":251,"x_max":961,"o":"m 725 -1 q 744 18 744 -1 l 744 686 q 743 694 744 692 q 825 763 786 729 q 899 831 864 796 q 961 964 961 893 q 935 1051 961 1013 q 921 1060 928 1058 q 919 1060 919 1060 q 918 1060 919 1060 q 906 1056 910 1060 l 900 1050 q 894 1028 889 1042 q 899 954 910 993 q 851 878 889 915 q 597 664 742 767 q 267 463 451 561 q 258 436 251 454 l 267 421 q 278 411 272 413 q 281 411 281 411 q 283 411 282 411 q 293 413 290 411 q 506 534 411 476 q 678 647 600 592 l 678 18 q 699 -1 678 -1 l 725 -1 z "},"ゥ":{"ha":1389,"x_min":374,"x_max":999,"o":"m 529 -44 q 536 -42 533 -44 q 882 253 751 60 q 940 365 917 306 q 974 482 963 425 q 992 583 986 539 q 999 649 997 628 q 993 663 999 657 l 975 679 q 964 683 971 683 q 963 683 963 683 q 961 683 963 683 q 842 670 903 676 q 718 660 782 664 l 715 853 q 697 869 713 869 l 675 869 q 664 864 669 869 q 660 853 660 860 l 663 656 q 564 651 614 653 q 460 649 514 650 q 404 685 439 674 q 402 685 403 685 q 400 685 401 685 q 385 675 389 685 l 382 668 q 390 647 374 653 q 407 636 400 642 q 419 622 414 631 q 433 568 432 603 q 435 547 435 560 q 435 524 435 533 q 434 456 435 493 q 432 386 433 418 q 431 340 431 354 q 446 324 431 324 l 469 324 q 481 328 475 322 q 486 339 486 333 q 487 385 486 353 q 488 454 488 417 q 489 524 489 492 q 489 552 489 540 q 489 571 489 564 q 487 583 488 578 q 485 594 486 589 q 687 603 571 597 q 942 625 803 608 q 927 522 938 583 q 895 397 917 461 q 838 281 874 333 q 517 -1 708 89 q 510 -24 503 -10 l 514 -35 q 519 -39 517 -36 q 524 -43 521 -42 q 526 -44 525 -43 q 529 -44 528 -44 z "},"ウ":{"ha":1389,"x_min":311,"x_max":1078,"o":"m 500 -25 q 508 -24 506 -25 q 933 340 772 100 q 1005 479 978 406 q 1047 623 1032 553 q 1069 748 1063 693 q 1078 829 1076 803 q 1071 844 1078 840 l 1049 865 q 1036 871 1043 871 q 1035 871 1035 871 q 1033 871 1035 871 q 886 854 961 861 q 731 842 811 847 l 728 1082 q 721 1095 726 1089 q 707 1101 715 1101 l 681 1100 q 667 1094 671 1100 q 661 1081 661 1089 l 665 838 q 543 832 606 835 q 413 828 481 829 q 344 872 390 858 q 342 873 343 872 q 339 874 342 874 q 321 861 326 874 l 318 853 q 328 828 311 835 q 364 796 353 814 q 382 729 381 771 q 383 708 382 721 q 383 675 383 694 q 382 590 383 636 q 379 506 381 544 q 378 449 378 467 q 397 429 378 429 l 425 428 q 439 433 433 428 q 444 447 444 439 q 446 508 444 469 q 449 592 447 547 q 450 675 450 638 q 449 710 450 696 q 449 733 449 724 q 447 749 447 742 q 444 763 446 756 q 693 772 550 764 q 1008 801 836 781 q 990 673 1003 749 q 951 518 978 597 q 881 374 925 439 q 488 21 715 129 q 478 -6 471 11 l 482 -14 q 493 -24 485 -21 q 500 -25 494 -25 z "},"ェ":{"ha":1389,"x_min":317,"x_max":1086,"o":"m 440 93 q 454 94 449 93 q 555 100 471 96 q 789 113 639 104 q 931 119 864 115 q 1039 125 999 122 l 1071 126 q 1082 132 1078 126 q 1086 143 1086 136 l 1085 165 q 1079 176 1085 172 q 1068 181 1075 181 q 992 178 1044 181 q 869 171 939 175 q 728 164 800 167 l 735 581 q 855 593 794 586 q 951 603 915 600 l 969 606 l 976 606 q 988 611 982 606 q 992 624 992 617 l 989 646 q 972 661 986 661 q 972 661 972 661 q 971 661 971 661 q 897 653 947 658 q 786 640 846 647 q 624 624 685 631 q 544 617 563 618 q 539 616 542 617 q 533 615 536 615 q 479 622 497 617 q 446 643 461 628 q 435 649 442 649 q 426 646 432 649 l 421 643 q 413 632 415 639 q 417 619 413 624 q 457 581 432 596 q 533 561 492 561 q 540 561 536 561 q 550 561 544 561 q 595 566 563 563 q 679 575 628 569 l 679 161 q 522 153 579 156 q 449 149 464 150 q 444 149 447 149 q 440 149 442 149 q 351 182 385 149 q 340 188 346 188 q 332 185 338 188 l 326 182 q 318 171 319 178 q 321 158 317 165 q 439 93 363 93 l 440 93 z "},"エ":{"ha":1389,"x_min":222,"x_max":1171,"o":"m 374 175 q 382 175 378 175 q 390 175 386 175 q 455 179 406 176 q 570 185 504 182 q 700 192 636 189 q 806 197 764 194 q 980 207 897 203 q 1113 214 1063 211 l 1151 215 q 1165 222 1161 215 q 1171 236 1171 226 l 1169 263 q 1163 276 1169 272 q 1150 282 1157 282 q 1149 282 1150 282 q 1149 282 1149 282 q 1055 277 1121 281 q 903 269 989 274 q 729 261 817 265 l 736 776 q 848 788 792 782 q 951 798 904 793 q 1024 806 997 803 l 1028 807 l 1036 807 q 1049 814 1044 810 q 1053 829 1054 822 l 1050 856 q 1031 874 1047 874 q 1030 874 1031 874 q 1029 874 1029 874 q 938 864 1001 871 q 800 850 874 857 q 601 828 676 836 q 503 819 525 821 q 489 818 497 818 q 422 826 444 819 q 381 853 399 833 q 367 858 376 858 q 357 856 363 858 l 350 851 q 340 839 342 846 q 344 824 340 831 q 396 776 367 793 q 488 751 436 751 q 498 752 493 751 q 508 753 503 753 q 564 758 524 754 q 671 769 604 763 l 671 257 q 474 247 544 250 q 385 242 403 243 q 378 242 382 242 q 374 242 375 242 q 264 283 306 242 q 250 289 256 289 q 240 286 246 289 l 233 282 q 224 269 226 279 q 226 254 222 264 q 372 175 279 175 l 374 175 z "},"ォ":{"ha":1389,"x_min":306,"x_max":1035,"o":"m 774 -47 q 778 -46 776 -47 l 804 -39 q 817 -24 817 -36 l 807 549 l 997 567 l 1011 568 l 1019 568 q 1031 574 1025 568 q 1035 586 1035 581 l 1033 608 q 1017 624 1031 624 q 1015 624 1015 624 q 1015 624 1015 624 q 933 616 992 621 q 807 604 875 611 l 803 842 q 797 853 803 847 q 786 857 792 858 l 764 857 q 753 853 757 857 q 747 840 747 847 l 753 599 q 588 583 649 589 q 503 575 526 578 q 490 574 496 575 q 479 574 485 574 q 381 613 407 575 q 367 619 376 619 q 361 618 363 619 l 354 615 q 346 606 347 613 q 346 593 344 600 q 369 561 356 575 q 397 539 382 547 q 479 519 428 519 q 493 519 486 519 q 507 521 500 519 q 578 528 529 522 q 693 539 628 533 q 611 388 664 472 q 485 218 558 303 q 318 64 411 133 q 314 42 306 54 l 321 33 q 331 26 324 29 q 333 26 332 26 q 333 26 333 26 q 339 27 336 26 q 344 29 342 28 q 511 180 431 94 q 655 359 592 265 q 754 540 718 453 l 764 56 q 698 117 732 96 q 633 151 664 139 q 626 153 631 153 q 613 143 617 153 l 608 138 q 617 115 603 122 q 679 69 639 104 q 760 -39 719 33 q 774 -47 765 -47 z "},"オ":{"ha":1389,"x_min":250,"x_max":1146,"o":"m 824 -21 q 829 -19 826 -21 l 860 -11 q 875 8 875 -8 l 864 714 l 1100 736 l 1117 738 l 1126 739 q 1140 746 1136 739 q 1144 760 1146 754 l 1142 788 q 1122 806 1142 806 q 1122 806 1122 806 q 1121 806 1122 806 q 1019 796 1092 803 q 863 781 947 789 l 858 1075 q 838 1094 858 1094 l 811 1094 q 797 1088 801 1094 q 792 1074 792 1083 l 799 775 q 587 756 658 763 q 488 746 515 749 q 472 745 479 746 q 458 744 465 744 q 338 793 369 746 q 321 801 331 801 q 318 801 319 801 q 314 800 317 800 l 306 796 q 294 785 299 794 q 296 769 292 775 q 358 701 322 724 q 458 678 401 678 q 476 678 467 678 q 494 681 485 679 q 576 688 518 683 q 725 701 635 693 q 653 561 697 638 q 551 405 610 485 q 419 249 492 325 q 264 111 347 174 q 260 85 250 100 l 264 78 q 276 69 268 72 q 278 69 278 69 q 281 69 279 69 q 292 74 288 69 q 499 260 400 154 q 677 482 599 367 q 800 707 756 597 l 813 103 q 730 181 772 154 q 649 224 688 207 q 646 224 647 224 q 642 225 644 225 q 624 214 631 225 l 621 206 q 629 181 611 189 q 706 122 657 165 q 807 -11 756 78 q 824 -21 811 -21 z "},"カ":{"ha":1389,"x_min":233,"x_max":1067,"o":"m 264 -4 q 276 0 269 -4 q 367 76 314 26 q 477 199 421 125 q 581 371 533 272 q 632 509 608 431 q 674 679 656 588 l 996 714 q 963 491 981 596 q 917 286 944 386 q 846 85 889 186 q 640 257 768 206 q 632 258 638 258 q 614 247 621 258 l 611 242 q 621 215 604 225 q 815 14 749 150 q 832 3 819 3 l 867 3 q 883 15 878 3 q 973 250 939 136 q 1028 483 1007 364 q 1067 739 1050 603 q 1061 756 1067 750 l 1039 778 q 1025 783 1033 783 q 1024 783 1025 783 q 1024 783 1024 783 l 685 747 q 703 897 696 819 q 714 1049 711 974 q 708 1064 714 1058 q 694 1069 700 1069 l 667 1069 q 653 1065 658 1071 q 647 1051 647 1058 q 637 896 644 975 q 617 740 629 817 l 494 728 q 478 726 486 726 q 463 725 469 725 q 460 725 461 725 q 457 725 458 725 q 363 742 393 728 q 317 779 333 757 q 301 786 311 786 q 290 783 294 786 l 285 781 q 276 768 279 776 q 279 753 275 760 q 347 686 308 710 q 457 658 392 658 q 478 659 467 658 q 501 661 490 660 l 604 672 q 565 509 585 575 q 524 396 546 443 q 407 203 475 289 q 246 39 339 117 q 243 13 233 26 l 249 4 q 261 -4 253 -3 q 263 -4 263 -4 q 264 -4 264 -4 z "},"ガ":{"ha":1389,"x_min":233,"x_max":1268,"o":"m 1224 988 q 1232 990 1226 988 l 1256 1001 q 1267 1014 1263 1004 q 1265 1029 1268 1018 q 1206 1110 1239 1078 q 1119 1183 1174 1142 q 1107 1186 1111 1186 q 1093 1181 1097 1186 l 1085 1171 q 1081 1157 1081 1167 q 1088 1144 1081 1149 q 1206 999 1165 1075 q 1224 988 1213 988 m 1113 882 q 1119 885 1117 882 l 1144 894 q 1156 906 1154 899 q 1156 921 1158 911 q 1085 1020 1128 978 q 1007 1088 1042 1063 q 996 1090 1001 1090 q 994 1090 994 1090 q 992 1090 993 1090 q 979 1082 983 1089 l 975 1075 q 971 1061 969 1069 q 979 1049 972 1053 q 1042 982 1011 1024 q 1094 894 1074 940 q 1113 882 1101 882 m 264 -4 q 276 0 269 -4 q 367 76 314 26 q 477 199 421 125 q 581 371 533 272 q 632 509 608 431 q 674 679 656 588 l 996 714 q 963 491 981 596 q 917 286 944 386 q 846 85 889 186 q 640 257 768 206 q 632 258 638 258 q 614 247 621 258 l 611 242 q 621 215 604 225 q 815 14 749 150 q 832 3 819 3 l 867 3 q 883 15 878 3 q 973 250 939 136 q 1028 483 1007 364 q 1067 739 1050 603 q 1061 756 1067 750 l 1039 778 q 1025 783 1033 783 q 1024 783 1025 783 q 1024 783 1024 783 l 685 747 q 703 897 696 819 q 714 1049 711 974 q 708 1064 714 1058 q 694 1069 700 1069 l 667 1069 q 653 1065 658 1071 q 647 1051 647 1058 q 637 896 644 975 q 617 740 629 817 l 494 728 q 478 726 486 726 q 463 725 469 725 q 460 725 461 725 q 457 725 458 725 q 363 742 393 728 q 317 779 333 757 q 301 786 311 786 q 290 783 294 786 l 285 781 q 276 768 279 776 q 279 753 275 760 q 347 686 308 710 q 457 658 392 658 q 478 659 467 658 q 501 661 490 660 l 604 672 q 565 509 585 575 q 524 396 546 443 q 407 203 475 289 q 246 39 339 117 q 243 13 233 26 l 249 4 q 261 -4 253 -3 q 263 -4 263 -4 q 264 -4 264 -4 z "},"キ":{"ha":1389,"x_min":260,"x_max":1153,"o":"m 796 -44 q 798 -44 797 -44 q 799 -44 799 -44 l 826 -39 q 839 -31 835 -39 q 842 -17 843 -24 l 764 419 q 784 425 774 422 q 806 431 794 428 q 828 436 817 433 q 850 442 839 439 q 1025 485 944 465 q 1138 514 1106 506 q 1149 522 1144 517 q 1151 538 1153 531 l 1144 564 q 1136 576 1142 572 q 1126 579 1131 579 q 1121 578 1122 579 q 1038 558 1096 572 q 906 524 981 543 q 754 486 831 506 l 711 721 q 851 759 775 739 q 1006 801 926 779 q 1018 811 1013 803 q 1019 826 1022 817 l 1013 853 q 993 867 1008 867 q 991 867 992 867 q 989 867 990 867 q 901 842 961 860 q 769 807 842 825 q 736 797 753 801 q 701 789 719 793 l 649 1064 q 629 1081 646 1081 q 628 1081 629 1081 q 626 1081 628 1081 l 604 1076 q 592 1068 597 1075 q 589 1054 586 1061 l 638 771 q 579 756 613 764 q 515 739 546 747 q 467 728 483 731 q 440 722 453 725 q 417 719 428 719 l 415 719 q 356 727 376 721 q 319 743 336 733 q 308 747 315 747 q 302 747 306 747 q 296 746 299 746 l 290 740 q 283 726 283 736 q 289 713 281 718 q 332 678 310 690 q 415 657 369 657 q 481 665 444 657 q 542 681 500 669 q 649 708 585 692 l 690 474 q 535 434 593 449 q 454 413 478 419 q 400 404 421 404 q 398 404 399 404 q 397 404 397 404 q 337 411 358 406 q 299 431 315 417 q 286 435 292 435 q 280 434 283 435 q 274 433 276 433 l 268 428 q 261 414 261 424 q 265 400 260 406 q 311 363 286 376 q 397 340 347 340 q 433 343 414 340 q 472 351 451 346 q 553 373 494 358 q 701 410 611 388 l 776 -22 q 785 -35 778 -31 q 796 -39 789 -39 l 796 -44 z "},"ギ":{"ha":1389,"x_min":260,"x_max":1256,"o":"m 1208 996 q 1218 997 1215 996 l 1242 1010 q 1251 1021 1249 1014 q 1250 1036 1256 1028 q 1192 1118 1224 1086 q 1106 1190 1160 1150 q 1093 1194 1100 1194 q 1079 1188 1083 1194 l 1071 1179 q 1067 1165 1065 1171 q 1072 1151 1067 1160 q 1141 1081 1111 1117 q 1192 1006 1171 1046 q 1208 996 1197 996 m 1099 890 q 1102 891 1100 890 q 1106 892 1104 892 l 1131 903 q 1142 914 1139 906 q 1142 929 1144 921 q 1071 1028 1114 986 q 993 1094 1028 1069 q 982 1099 986 1099 q 980 1099 981 1099 q 978 1099 979 1099 q 965 1090 969 1097 l 960 1082 q 965 1056 950 1068 q 1028 990 997 1032 q 1081 901 1060 947 q 1099 890 1085 890 m 796 -44 q 798 -44 797 -44 q 799 -44 799 -44 l 826 -39 q 839 -31 835 -39 q 842 -17 843 -24 l 764 419 q 784 425 774 422 q 806 431 794 428 q 828 436 817 433 q 850 442 839 439 q 1025 485 944 465 q 1138 514 1106 506 q 1149 522 1144 517 q 1151 538 1153 531 l 1144 564 q 1136 576 1142 572 q 1126 579 1131 579 q 1121 578 1122 579 q 1038 558 1096 572 q 906 524 981 543 q 754 486 831 506 l 710 721 q 851 759 775 739 q 1006 801 926 779 q 1018 811 1013 803 q 1019 826 1022 817 l 1013 853 q 993 867 1008 867 q 991 867 992 867 q 989 867 990 867 q 901 842 961 860 q 769 807 842 825 q 736 797 753 801 q 701 789 719 793 l 649 1064 q 629 1081 646 1081 q 628 1081 629 1081 q 626 1081 628 1081 l 604 1076 q 592 1068 597 1075 q 589 1054 586 1061 l 638 771 q 579 756 613 764 q 515 739 546 747 q 467 728 483 731 q 440 722 453 725 q 417 719 428 719 l 415 719 q 356 727 376 721 q 319 743 336 733 q 308 747 315 747 q 302 747 306 747 q 296 746 299 746 l 290 740 q 283 726 283 736 q 289 713 281 718 q 332 678 310 690 q 415 657 369 657 q 481 665 444 657 q 542 681 500 669 q 649 708 585 692 l 690 474 q 535 434 593 449 q 454 413 478 419 q 400 404 421 404 q 398 404 399 404 q 397 404 397 404 q 337 411 358 406 q 299 431 315 417 q 286 435 292 435 q 280 434 283 435 q 274 433 276 433 l 268 428 q 261 414 261 424 q 265 400 260 406 q 311 363 286 376 q 397 340 347 340 q 433 343 414 340 q 472 351 451 346 q 553 373 494 358 q 701 410 611 388 l 776 -22 q 785 -35 778 -31 q 796 -39 789 -39 l 796 -44 z "},"ク":{"ha":1389,"x_min":279,"x_max":1069,"o":"m 358 -6 q 363 -5 361 -6 q 365 -4 364 -4 q 763 278 583 90 q 899 448 844 364 q 994 626 954 532 q 1068 835 1033 719 q 1064 853 1069 844 l 1044 878 q 1029 886 1039 886 l 1028 886 l 689 863 q 707 912 700 886 q 714 961 714 938 q 691 1024 714 997 q 642 1063 668 1051 q 638 1063 639 1063 q 635 1064 636 1064 q 617 1051 622 1064 l 613 1042 q 612 1028 610 1036 q 619 1018 614 1021 q 638 1000 632 1010 q 647 961 647 985 q 642 924 647 943 q 626 886 636 906 q 492 694 579 797 q 293 489 404 590 q 292 461 279 475 l 296 456 q 310 449 300 449 q 322 454 317 449 q 649 793 546 632 l 992 817 q 923 630 958 714 q 838 470 888 546 q 717 318 789 394 q 347 36 536 132 q 338 11 332 29 l 340 7 q 350 -4 342 1 q 354 -5 353 -4 q 358 -6 356 -6 z "},"グ":{"ha":1389,"x_min":279,"x_max":1279,"o":"m 1233 986 q 1242 988 1239 986 l 1267 1000 q 1276 1011 1274 1001 q 1275 1026 1279 1021 q 1217 1108 1249 1076 q 1129 1181 1185 1139 q 1118 1185 1125 1185 q 1103 1178 1110 1185 l 1096 1169 q 1090 1156 1090 1164 q 1097 1142 1093 1146 q 1217 996 1174 1075 q 1233 986 1222 986 m 1124 881 q 1131 882 1128 881 l 1156 893 q 1167 904 1164 896 q 1165 919 1169 911 q 1095 1018 1138 976 q 1018 1085 1053 1060 q 1006 1089 1011 1089 q 1005 1089 1006 1089 q 1003 1089 1004 1089 q 990 1079 994 1086 l 985 1072 q 989 1046 976 1058 q 1053 980 1021 1022 q 1106 892 1085 938 q 1124 881 1110 881 m 358 -6 q 363 -5 361 -6 q 365 -4 364 -4 q 763 278 583 90 q 899 448 844 364 q 994 626 954 532 q 1068 835 1033 719 q 1064 853 1069 844 l 1044 878 q 1029 886 1039 886 l 1028 886 l 689 863 q 707 912 700 886 q 714 961 714 938 q 691 1024 714 997 q 642 1063 668 1051 q 638 1063 639 1063 q 635 1064 636 1064 q 617 1051 622 1064 l 613 1042 q 612 1028 610 1036 q 619 1018 614 1021 q 638 1000 632 1010 q 647 961 647 985 q 642 924 647 943 q 626 886 636 906 q 492 694 579 797 q 293 489 404 590 q 292 461 279 475 l 296 456 q 310 449 300 449 q 322 454 317 449 q 649 793 546 632 l 992 817 q 923 630 958 714 q 838 470 888 546 q 717 318 789 394 q 347 36 536 132 q 338 11 332 29 l 340 7 q 350 -4 342 1 q 354 -5 353 -4 q 358 -6 356 -6 z "},"ケ":{"ha":1389,"x_min":235,"x_max":1144,"o":"m 454 -8 q 464 -6 458 -8 q 844 721 847 238 q 844 729 844 725 q 844 736 844 733 l 844 740 l 1126 758 q 1140 764 1135 758 q 1144 778 1144 769 l 1143 806 q 1124 824 1140 826 l 1122 824 l 524 788 q 538 820 532 804 q 550 851 544 836 q 566 903 561 882 q 572 951 571 925 q 555 1016 572 986 q 506 1063 538 1046 q 497 1064 503 1064 q 479 1054 485 1064 l 475 1046 q 481 1021 467 1031 q 506 960 506 1003 q 488 875 506 921 q 445 775 474 836 q 368 640 417 714 q 247 488 319 565 q 249 460 235 472 l 254 454 q 268 449 260 449 q 276 449 272 449 q 282 450 279 450 q 492 714 421 578 l 778 732 l 778 726 q 778 722 778 725 q 778 717 778 719 q 691 331 778 507 q 439 28 604 156 q 435 1 425 17 l 438 -3 q 450 -12 442 -10 q 452 -12 451 -12 q 454 -12 453 -12 l 454 -8 z "},"ゲ":{"ha":1389,"x_min":235,"x_max":1293,"o":"m 1247 993 q 1257 996 1251 993 l 1281 1007 q 1290 1019 1288 1011 q 1290 1035 1293 1024 q 1231 1115 1264 1083 q 1144 1189 1199 1147 q 1132 1193 1139 1193 q 1118 1186 1122 1193 l 1110 1178 q 1106 1163 1104 1169 q 1111 1150 1106 1156 q 1231 1004 1190 1082 q 1247 993 1235 993 m 1138 889 q 1144 890 1143 889 l 1169 900 q 1181 911 1178 904 q 1181 926 1183 919 q 1110 1026 1153 983 q 1032 1093 1067 1068 q 1021 1096 1028 1096 q 1019 1096 1019 1096 q 1017 1096 1018 1096 q 1004 1088 1010 1096 l 999 1081 q 996 1067 994 1075 q 1004 1054 997 1058 q 1067 988 1036 1029 q 1119 900 1099 946 q 1138 889 1124 889 m 454 -8 q 464 -6 458 -8 q 844 721 847 238 q 844 729 844 725 q 844 736 844 733 l 844 740 l 1126 758 q 1140 764 1135 758 q 1144 778 1144 769 l 1143 806 q 1124 824 1140 826 l 1122 824 l 524 788 q 538 820 532 804 q 550 851 544 836 q 566 903 561 882 q 572 951 571 925 q 555 1016 572 986 q 506 1063 538 1046 q 497 1064 503 1064 q 479 1054 485 1064 l 475 1046 q 481 1021 467 1031 q 506 960 506 1003 q 488 875 506 921 q 445 775 474 836 q 368 640 417 714 q 247 488 319 565 q 249 460 235 472 l 254 454 q 268 449 260 449 q 276 449 272 449 q 282 450 279 450 q 492 714 421 578 l 778 732 l 778 726 q 778 722 778 725 q 778 717 778 719 q 691 331 778 507 q 439 28 604 156 q 435 1 425 17 l 438 -3 q 450 -12 442 -10 q 452 -12 451 -12 q 454 -12 453 -12 l 454 -8 z "},"コ":{"ha":1389,"x_min":332,"x_max":1057,"o":"m 499 167 q 518 167 508 167 q 539 169 528 168 l 985 207 q 997 213 992 207 l 1017 232 q 1022 244 1022 240 l 1057 833 q 1050 849 1057 842 l 1028 871 q 1014 875 1022 875 q 1013 875 1014 875 q 1013 875 1013 875 l 554 824 q 553 824 554 824 q 553 824 553 824 q 530 822 540 822 q 508 821 519 821 l 507 821 q 433 830 458 821 q 392 861 408 839 q 375 868 385 868 q 372 868 374 868 q 368 868 369 868 l 361 865 q 350 853 354 863 q 351 838 347 846 q 408 776 369 799 q 507 754 447 754 q 563 758 533 754 l 992 811 l 957 264 l 532 235 q 531 235 532 235 q 531 235 531 235 q 514 234 522 235 q 499 233 506 233 q 371 276 410 233 q 357 282 363 282 q 351 281 354 282 q 346 279 349 281 l 343 276 q 333 264 336 272 q 336 249 332 256 q 365 217 350 231 q 396 193 379 203 q 499 167 439 167 z "},"ゴ":{"ha":1389,"x_min":332,"x_max":1288,"o":"m 1240 963 q 1244 963 1242 963 q 1249 964 1247 964 l 1274 976 q 1283 988 1281 981 q 1282 1003 1288 994 q 1224 1085 1256 1053 q 1138 1157 1192 1117 q 1125 1161 1131 1161 q 1111 1154 1114 1161 l 1103 1146 q 1099 1132 1097 1140 q 1104 1118 1099 1124 q 1174 1048 1144 1083 q 1224 972 1203 1013 q 1240 963 1228 963 m 1131 857 q 1135 858 1133 857 q 1138 858 1136 858 l 1163 869 q 1174 881 1171 872 q 1172 896 1176 890 q 1103 994 1144 953 q 1025 1061 1061 1036 q 1014 1065 1019 1065 q 1012 1065 1013 1065 q 1010 1065 1011 1065 q 997 1057 1001 1064 l 992 1049 q 996 1024 982 1035 q 1060 956 1028 999 q 1113 869 1092 914 q 1131 857 1118 857 m 499 167 q 518 167 508 167 q 539 169 528 168 l 985 207 q 997 213 992 207 l 1017 232 q 1022 244 1022 240 l 1057 833 q 1050 849 1057 842 l 1028 871 q 1014 875 1022 875 q 1013 875 1014 875 q 1013 875 1013 875 l 554 824 q 553 824 554 824 q 553 824 553 824 q 530 822 540 822 q 508 821 519 821 l 507 821 q 433 830 458 821 q 392 861 408 839 q 375 868 385 868 q 372 868 374 868 q 368 868 369 868 l 361 865 q 350 853 354 863 q 351 838 347 846 q 408 776 369 799 q 507 754 447 754 q 563 758 533 754 l 992 811 l 957 264 l 532 235 q 531 235 532 235 q 531 235 531 235 q 514 234 522 235 q 499 233 506 233 q 371 276 410 233 q 357 282 363 282 q 351 281 354 282 q 346 279 349 281 l 343 276 q 333 264 336 272 q 336 249 332 256 q 365 217 350 231 q 396 193 379 203 q 499 167 439 167 z "},"サ":{"ha":1389,"x_min":218,"x_max":1163,"o":"m 539 -25 q 549 -22 543 -25 q 772 154 693 60 q 899 414 858 258 q 924 689 922 500 l 1040 700 l 1111 707 l 1136 710 l 1143 710 q 1156 717 1151 710 q 1160 731 1163 724 l 1157 758 q 1150 771 1157 767 q 1138 776 1146 776 q 1137 776 1138 776 q 1136 776 1136 776 l 1135 776 l 924 756 q 922 885 924 822 q 917 996 919 947 q 914 1068 915 1044 q 907 1082 911 1078 q 894 1086 900 1086 l 893 1086 l 865 1085 q 847 1064 844 1082 q 849 1019 849 1042 q 851 974 850 997 q 855 874 853 933 q 857 749 857 814 q 695 733 776 742 q 550 719 614 725 l 539 1024 q 519 1043 539 1043 l 492 1042 q 479 1036 485 1042 q 474 1021 474 1031 l 489 714 q 474 712 482 713 q 460 710 467 711 l 447 710 q 397 706 414 706 l 393 706 q 311 716 342 707 q 258 749 281 725 q 244 756 251 756 q 233 751 239 756 l 228 747 q 218 735 221 743 q 222 719 218 725 q 285 663 251 681 q 393 639 328 639 q 454 643 419 639 l 465 644 q 478 645 472 644 q 492 647 485 646 l 504 383 q 510 369 504 375 q 524 364 518 364 q 524 364 524 364 q 525 364 524 364 l 542 365 q 560 386 563 368 l 551 653 q 690 667 611 658 q 849 682 769 675 l 857 682 q 851 549 856 621 q 835 431 847 476 q 795 305 819 369 q 728 189 771 240 q 526 18 639 81 q 517 6 519 14 q 519 -8 515 -3 l 522 -14 q 533 -24 526 -21 q 539 -25 536 -25 z "},"ザ":{"ha":1389,"x_min":218,"x_max":1292,"o":"m 1244 986 q 1254 989 1249 986 l 1278 1000 q 1288 1013 1285 1004 q 1286 1026 1292 1018 q 1228 1108 1260 1076 q 1142 1181 1196 1140 q 1129 1185 1136 1185 q 1115 1179 1119 1185 l 1107 1169 q 1103 1156 1101 1164 q 1108 1142 1103 1150 q 1177 1072 1147 1107 q 1228 997 1207 1036 q 1244 986 1232 986 m 1135 881 q 1142 883 1139 881 l 1167 893 q 1178 904 1175 896 q 1178 919 1181 913 q 1107 1018 1150 976 q 1029 1086 1064 1060 q 1018 1089 1021 1089 q 1016 1089 1017 1089 q 1014 1089 1015 1089 q 1001 1081 1006 1086 l 996 1074 q 1001 1047 986 1057 q 1065 980 1033 1022 q 1117 893 1096 938 q 1135 881 1122 881 m 539 -25 q 549 -22 543 -25 q 772 154 693 60 q 899 414 858 258 q 924 689 922 500 l 1040 700 l 1111 707 l 1136 710 l 1143 710 q 1156 717 1151 710 q 1160 731 1163 724 l 1157 758 q 1150 771 1157 767 q 1138 776 1146 776 q 1137 776 1138 776 q 1136 776 1136 776 l 1135 776 l 924 756 q 922 885 924 822 q 917 996 919 947 q 914 1068 915 1044 q 907 1082 911 1078 q 894 1086 900 1086 l 893 1086 l 865 1085 q 847 1064 844 1082 q 849 1019 849 1042 q 851 974 850 997 q 855 874 853 933 q 857 749 857 814 q 695 733 776 742 q 550 719 614 725 l 539 1024 q 519 1043 539 1043 l 492 1042 q 479 1036 485 1042 q 474 1021 474 1031 l 489 714 q 474 712 482 713 q 460 710 467 711 l 447 710 q 397 706 414 706 l 393 706 q 311 716 342 707 q 258 749 281 725 q 244 756 251 756 q 233 751 239 756 l 228 747 q 218 735 221 743 q 222 719 218 725 q 285 663 251 681 q 393 639 328 639 q 454 643 419 639 l 465 644 q 478 645 472 644 q 492 647 485 646 l 504 383 q 510 369 504 375 q 524 364 518 364 q 524 364 524 364 q 525 364 524 364 l 542 365 q 560 386 563 368 l 551 653 q 690 667 611 658 q 849 682 769 675 l 857 682 q 851 549 856 621 q 835 431 847 476 q 795 305 819 369 q 728 189 771 240 q 526 18 639 81 q 517 6 519 14 q 519 -8 515 -3 l 522 -14 q 533 -24 526 -21 q 539 -25 536 -25 z "},"シ":{"ha":1389,"x_min":279,"x_max":1190,"o":"m 499 72 q 603 104 549 72 q 1186 758 806 215 q 1189 772 1190 765 q 1181 785 1186 781 l 1158 800 q 1147 804 1154 804 q 1131 796 1136 804 q 575 160 756 260 q 483 132 522 132 q 428 148 451 132 q 386 185 406 164 q 371 190 381 190 q 360 186 364 190 l 354 182 q 347 169 347 178 q 351 154 346 163 q 381 123 367 136 q 411 100 396 110 q 497 72 454 72 l 499 72 m 521 525 q 536 533 528 525 l 551 556 q 556 571 558 563 q 547 583 553 579 q 442 643 500 615 q 310 694 383 671 q 304 696 308 696 q 286 683 290 696 l 282 675 q 282 660 279 668 q 293 650 285 653 q 508 529 406 604 q 521 525 514 525 m 668 817 q 683 824 676 817 l 700 844 q 704 860 707 851 q 697 872 704 868 q 590 940 647 913 q 461 986 533 967 q 459 986 460 986 q 457 986 458 986 q 438 974 443 986 l 435 965 q 436 950 432 956 q 447 940 439 943 q 656 821 557 901 q 668 817 661 817 z "},"ジ":{"ha":1389,"x_min":279,"x_max":1239,"o":"m 1194 956 q 1203 958 1197 956 l 1226 969 q 1238 982 1233 972 q 1236 997 1239 986 q 1176 1078 1208 1046 q 1090 1151 1144 1110 q 1078 1154 1086 1154 q 1064 1149 1068 1154 l 1056 1140 q 1051 1125 1051 1133 q 1058 1113 1051 1117 q 1176 967 1136 1043 q 1194 956 1183 956 m 1083 851 q 1090 853 1089 851 l 1117 863 q 1126 874 1125 868 q 1126 889 1129 879 q 1056 988 1099 946 q 978 1056 1014 1031 q 967 1058 972 1058 q 965 1058 965 1058 q 963 1058 964 1058 q 950 1050 954 1056 l 946 1043 q 943 1028 942 1036 q 950 1017 944 1021 q 1013 950 981 992 q 1065 863 1044 908 q 1083 851 1072 851 m 499 72 q 603 104 549 72 q 1186 758 806 215 q 1189 772 1190 765 q 1181 785 1186 781 l 1158 800 q 1147 804 1154 804 q 1131 796 1136 804 q 575 160 756 260 q 483 132 522 132 q 428 148 451 132 q 386 185 406 164 q 371 190 381 190 q 360 186 364 190 l 354 182 q 347 169 347 178 q 351 154 346 163 q 381 123 367 136 q 411 100 396 110 q 497 72 454 72 l 499 72 m 521 525 q 536 533 528 525 l 551 556 q 556 571 558 563 q 547 583 553 579 q 442 643 500 615 q 310 694 383 671 q 304 696 308 696 q 286 683 290 696 l 282 675 q 282 660 279 668 q 293 650 285 653 q 508 529 406 604 q 521 525 514 525 m 668 817 q 683 824 676 817 l 700 844 q 704 860 707 851 q 697 872 704 868 q 590 940 647 913 q 461 986 533 967 q 459 986 460 986 q 457 986 458 986 q 438 974 443 986 l 435 965 q 436 950 432 956 q 447 940 439 943 q 656 821 557 901 q 668 817 661 817 z "},"ス":{"ha":1389,"x_min":222,"x_max":1131,"o":"m 251 63 q 261 65 256 63 q 721 474 547 244 q 911 313 829 400 q 1072 103 993 226 q 1083 94 1078 94 q 1088 93 1085 93 q 1099 97 1094 93 l 1121 111 q 1131 124 1128 115 q 1128 139 1131 135 q 953 353 1050 257 q 750 514 856 450 q 947 910 875 689 q 943 929 950 921 l 922 954 q 907 961 915 961 q 905 961 906 961 q 904 961 904 961 q 851 953 889 958 q 768 940 814 947 q 698 931 739 936 q 617 919 657 925 q 551 910 578 914 q 533 908 542 908 q 515 908 524 907 q 442 925 467 910 q 406 956 418 940 q 390 963 399 963 q 382 961 385 963 l 375 957 q 364 946 368 956 q 367 931 363 938 q 417 869 390 889 q 514 842 454 842 l 515 842 q 536 842 525 842 q 560 844 547 842 q 662 858 597 849 q 783 878 726 868 q 831 885 808 882 q 869 890 853 889 q 624 449 779 639 q 233 110 469 258 q 225 97 225 104 q 228 82 222 89 l 235 72 q 251 63 242 63 z "},"ズ":{"ha":1389,"x_min":222,"x_max":1242,"o":"m 1196 994 q 1204 996 1201 994 l 1229 1008 q 1239 1019 1238 1014 q 1238 1035 1242 1029 q 1179 1117 1211 1085 q 1092 1189 1147 1149 q 1081 1193 1088 1193 q 1065 1186 1072 1193 l 1058 1178 q 1053 1164 1053 1172 q 1060 1150 1056 1154 q 1179 1004 1136 1083 q 1196 994 1183 994 m 1086 889 q 1090 890 1089 889 q 1093 890 1092 890 l 1118 901 q 1129 913 1125 903 q 1128 928 1132 922 q 1058 1026 1100 985 q 981 1093 1015 1068 q 968 1097 975 1097 q 967 1097 968 1097 q 965 1097 967 1097 q 953 1089 957 1094 l 947 1081 q 951 1056 938 1067 q 1015 988 983 1031 q 1068 901 1047 946 q 1086 889 1074 889 m 251 63 q 261 65 256 63 q 721 474 547 244 q 911 313 829 400 q 1072 103 993 226 q 1083 94 1078 94 q 1088 93 1085 93 q 1099 97 1094 93 l 1121 111 q 1131 124 1128 115 q 1128 139 1131 135 q 953 353 1050 257 q 750 514 856 450 q 947 910 875 689 q 943 929 950 921 l 922 954 q 907 961 915 961 q 905 961 906 961 q 904 961 904 961 q 851 953 889 958 q 768 940 814 947 q 698 931 739 936 q 617 919 657 925 q 551 910 578 914 q 533 908 542 908 q 515 908 524 907 q 442 925 467 910 q 406 956 418 940 q 390 963 399 963 q 382 961 385 963 l 375 957 q 364 946 368 956 q 367 931 363 938 q 417 869 386 892 q 514 842 454 842 l 515 842 q 536 842 525 842 q 560 844 547 842 q 662 858 597 849 q 783 878 726 868 q 831 885 808 882 q 869 890 853 889 q 624 449 779 639 q 233 110 469 258 q 225 97 225 104 q 228 82 222 89 l 235 72 q 251 63 242 63 z "},"セ":{"ha":1389,"x_min":194,"x_max":1100,"o":"m 814 69 q 972 76 907 69 q 1064 86 1038 83 q 1079 108 1082 92 l 1078 121 q 1071 133 1078 128 q 1057 138 1064 138 q 1056 138 1057 138 q 1056 138 1056 138 l 1033 135 q 947 129 986 132 q 869 126 907 126 q 825 126 847 126 q 779 128 803 126 q 626 204 675 135 q 596 277 606 232 q 585 383 586 322 l 579 581 q 734 629 650 603 q 890 678 818 656 l 894 679 q 951 697 925 689 q 1000 713 978 706 q 902 564 957 638 q 786 426 847 490 q 781 413 781 421 q 786 399 781 404 l 793 392 q 807 386 801 386 q 821 393 814 386 q 942 532 886 461 q 1037 659 997 603 q 1092 739 1076 715 q 1092 761 1100 750 l 1071 788 q 1056 796 1064 796 q 1050 794 1051 796 q 921 754 986 775 q 794 715 856 733 q 674 675 729 694 q 623 658 647 667 q 576 644 599 650 l 568 997 q 549 1017 568 1017 l 521 1015 q 507 1010 511 1015 q 501 996 501 1004 l 511 625 q 461 610 483 617 q 425 600 439 603 q 325 586 360 586 q 279 596 299 586 q 239 621 260 606 q 226 625 235 625 q 221 624 224 625 q 215 624 218 624 l 208 619 q 201 606 201 613 q 206 590 199 597 q 229 565 217 576 q 257 547 242 554 q 340 528 293 528 q 387 532 363 528 q 442 543 411 536 q 472 552 454 547 q 513 564 489 557 l 518 385 q 532 260 519 313 q 571 168 544 207 q 776 72 635 75 q 795 72 786 72 q 814 72 804 72 l 814 69 m 197 603 q 200 606 200 603 q 197 610 200 610 q 194 606 194 610 q 197 603 194 603 z "},"ゼ":{"ha":1389,"x_min":194,"x_max":1258,"o":"m 1211 983 q 1221 986 1215 983 l 1244 999 q 1254 1010 1251 1000 q 1253 1025 1258 1017 q 1194 1106 1226 1074 q 1108 1179 1163 1138 q 1096 1183 1103 1183 q 1082 1176 1086 1183 l 1074 1168 q 1069 1154 1068 1160 q 1075 1140 1069 1146 q 1194 994 1154 1072 q 1211 983 1199 983 m 1101 879 q 1108 881 1107 879 l 1133 890 q 1144 901 1142 894 q 1144 918 1147 910 q 1074 1017 1117 975 q 996 1083 1031 1058 q 985 1088 989 1088 q 983 1087 983 1088 q 981 1086 982 1086 q 968 1078 974 1086 l 963 1071 q 968 1044 953 1057 q 1031 978 1000 1019 q 1083 890 1063 936 q 1101 879 1088 879 m 814 69 q 972 76 907 69 q 1064 86 1038 83 q 1079 108 1082 92 l 1078 121 q 1071 133 1078 128 q 1057 138 1064 138 q 1056 138 1057 138 q 1056 138 1056 138 l 1033 135 q 947 129 986 132 q 869 126 907 126 q 825 126 847 126 q 779 128 803 126 q 626 204 675 135 q 596 277 606 232 q 585 383 586 322 l 579 581 q 734 629 650 603 q 890 678 818 656 l 894 679 q 951 697 925 689 q 1000 713 978 706 q 902 564 957 638 q 786 426 847 490 q 781 413 781 421 q 786 399 781 404 l 793 392 q 807 386 801 386 q 821 393 814 386 q 942 532 886 461 q 1037 659 997 603 q 1092 739 1076 715 q 1092 761 1100 750 l 1071 788 q 1056 796 1064 796 q 1050 794 1051 796 q 921 754 986 775 q 794 715 856 733 q 674 675 729 694 q 623 658 647 667 q 576 644 599 650 l 568 997 q 547 1017 568 1017 l 521 1015 q 507 1010 511 1015 q 501 996 501 1004 l 511 625 q 461 610 483 617 q 425 600 439 603 q 325 586 360 586 q 279 596 299 586 q 239 621 260 606 q 226 625 235 625 q 221 624 224 625 q 215 624 218 624 l 208 619 q 201 606 201 613 q 206 590 199 597 q 229 565 217 576 q 257 547 242 554 q 340 528 293 528 q 387 532 363 528 q 442 543 411 536 q 472 552 454 547 q 513 564 489 557 l 518 385 q 532 260 519 313 q 571 168 544 207 q 776 72 635 75 q 795 72 786 72 q 814 72 804 72 l 814 69 m 197 603 q 200 606 200 603 q 197 610 200 610 q 194 606 194 610 q 197 603 194 603 z "},"ソ":{"ha":1389,"x_min":322,"x_max":1049,"o":"m 464 -4 q 476 0 472 -4 q 739 251 631 125 q 919 514 847 376 q 1038 815 992 651 q 1049 892 1049 857 q 1019 993 1049 951 q 953 1047 994 1028 q 946 1049 950 1049 q 941 1049 943 1049 q 938 1049 939 1049 q 926 1036 928 1044 l 925 1029 q 933 1007 921 1014 q 972 965 961 992 q 982 893 983 939 q 974 835 982 867 q 858 538 928 672 q 685 284 788 404 q 439 44 583 164 q 436 17 424 32 l 449 4 q 463 -3 456 -3 q 463 -3 463 -3 q 464 -3 464 -3 l 464 -4 m 501 621 q 504 622 503 621 q 507 622 506 622 l 533 631 q 546 640 542 633 q 547 654 549 650 q 480 822 519 744 q 367 972 440 900 q 354 978 363 978 q 347 977 350 978 q 340 976 343 976 l 331 967 q 324 953 325 961 q 329 940 322 946 q 415 813 376 888 q 483 639 453 738 q 501 625 488 625 l 501 621 z "},"ゾ":{"ha":1389,"x_min":314,"x_max":1300,"o":"m 1254 1014 q 1263 1015 1260 1014 l 1288 1028 q 1297 1039 1296 1033 q 1296 1054 1300 1049 q 1237 1136 1269 1104 q 1150 1208 1204 1168 q 1139 1213 1146 1213 q 1124 1206 1131 1213 l 1117 1197 q 1111 1183 1111 1192 q 1118 1169 1111 1176 q 1236 1024 1196 1101 q 1254 1014 1243 1014 m 1143 908 q 1147 909 1144 908 q 1151 910 1150 910 l 1176 921 q 1186 932 1183 924 q 1186 947 1190 939 q 1115 1046 1158 1004 q 1038 1113 1072 1088 q 1026 1117 1033 1117 q 1024 1117 1025 1117 q 1022 1117 1024 1117 q 1010 1108 1014 1114 l 1006 1100 q 1010 1074 996 1085 q 1073 1008 1042 1050 q 1125 919 1104 965 q 1143 908 1132 908 m 463 -51 q 474 -47 469 -51 q 736 203 628 78 q 917 467 844 329 q 1035 769 989 606 q 1044 808 1042 789 q 1046 844 1046 826 q 1017 946 1046 904 q 951 1000 993 982 q 943 1001 949 1001 q 939 1001 942 1001 q 935 1001 936 1001 q 924 989 928 999 l 922 982 q 931 960 918 968 q 969 918 958 944 q 979 846 981 892 q 971 789 979 819 q 856 492 925 626 q 683 237 786 357 q 438 -3 581 117 q 429 -15 431 -7 q 435 -29 428 -24 l 447 -43 q 460 -50 453 -49 q 461 -50 461 -50 q 463 -50 461 -50 l 463 -51 m 500 575 q 506 576 504 575 l 532 583 q 543 593 538 585 q 544 608 547 599 q 478 776 517 699 q 365 925 439 853 q 351 932 358 932 q 338 926 346 932 l 328 917 q 326 889 314 904 q 481 589 419 785 q 500 575 485 575 z "},"タ":{"ha":1389,"x_min":300,"x_max":1046,"o":"m 333 1 q 343 4 338 1 q 594 180 483 85 q 793 390 706 275 q 853 316 824 356 q 913 231 882 276 q 929 221 919 221 q 939 224 933 221 l 963 239 q 971 251 969 243 q 968 267 972 258 q 901 363 935 318 q 833 446 868 407 q 1043 881 958 628 q 1039 899 1046 890 l 1018 925 q 1003 932 1014 932 q 1002 932 1003 932 q 1001 932 1001 932 l 672 892 q 691 944 685 921 q 697 989 697 967 q 617 1090 697 1056 q 613 1091 614 1090 q 608 1092 611 1092 q 592 1081 596 1092 l 588 1074 q 593 1049 581 1058 q 621 1022 611 1036 q 631 989 631 1008 q 604 901 631 958 q 504 729 571 833 q 306 489 438 625 q 300 476 300 483 q 306 463 300 468 l 313 454 q 326 447 319 447 q 340 453 335 447 q 513 638 439 546 q 638 821 586 731 l 968 865 q 883 665 929 760 q 785 492 836 569 q 699 561 739 533 q 624 610 658 589 q 614 613 621 613 q 597 604 603 613 l 592 596 q 588 582 588 589 q 596 568 589 575 q 667 514 628 544 q 747 440 706 483 q 551 220 656 317 q 319 44 447 124 q 313 19 306 35 l 317 11 q 329 1 322 3 q 331 1 331 1 q 333 1 332 1 z "},"ダ":{"ha":1389,"x_min":300,"x_max":1296,"o":"m 1250 996 q 1258 997 1256 996 l 1283 1010 q 1293 1021 1292 1015 q 1292 1036 1296 1031 q 1233 1118 1265 1086 q 1146 1190 1200 1150 q 1133 1194 1139 1194 q 1119 1188 1126 1194 l 1111 1179 q 1107 1165 1107 1172 q 1114 1151 1107 1158 q 1232 1006 1192 1083 q 1250 996 1239 996 m 1139 890 q 1147 892 1144 890 l 1172 903 q 1182 914 1179 906 q 1182 929 1186 921 q 1112 1028 1154 986 q 1033 1094 1069 1069 q 1022 1099 1029 1099 q 1020 1099 1021 1099 q 1018 1099 1019 1099 q 1006 1090 1010 1096 l 1001 1082 q 1006 1056 992 1067 q 1069 990 1038 1032 q 1121 901 1100 947 q 1139 890 1128 890 m 333 1 q 343 4 338 1 q 594 180 483 85 q 793 390 706 275 q 853 316 824 356 q 913 231 882 276 q 929 221 919 221 q 939 224 933 221 l 963 239 q 971 251 969 243 q 968 267 972 258 q 901 363 935 318 q 833 446 868 407 q 1043 881 958 628 q 1039 899 1046 890 l 1018 924 q 1003 932 1014 932 q 1002 932 1003 932 q 1001 932 1001 932 l 672 892 q 691 944 685 921 q 697 989 697 967 q 617 1090 697 1056 q 613 1091 614 1090 q 608 1092 611 1092 q 592 1081 596 1092 l 588 1074 q 593 1049 581 1058 q 621 1022 611 1036 q 631 989 631 1008 q 604 901 631 958 q 504 729 571 833 q 306 489 438 625 q 300 476 300 483 q 306 463 300 468 l 313 454 q 326 447 319 447 q 340 453 335 447 q 513 638 439 546 q 638 821 586 731 l 968 865 q 883 665 929 760 q 785 492 836 569 q 699 561 739 533 q 624 610 658 589 q 614 613 621 613 q 597 604 603 613 l 592 596 q 588 582 588 589 q 596 568 589 575 q 667 514 628 544 q 747 440 706 483 q 551 220 656 317 q 319 44 447 124 q 313 19 306 35 l 317 11 q 329 1 322 3 q 331 1 331 1 q 333 1 332 1 z "},"チ":{"ha":1389,"x_min":257,"x_max":1147,"o":"m 428 -24 q 440 -19 433 -24 q 714 304 633 124 q 753 413 738 356 q 776 533 768 469 l 818 538 l 838 539 q 1016 552 935 546 q 1129 561 1097 558 q 1142 568 1138 561 q 1147 582 1147 574 l 1144 610 q 1138 622 1144 617 q 1125 628 1132 628 q 1124 628 1125 628 q 1124 628 1124 628 q 1057 622 1108 626 q 933 613 1006 618 q 783 601 861 608 q 785 647 785 624 q 786 693 786 669 q 778 872 786 768 q 834 889 808 881 q 878 903 860 897 q 937 940 917 917 q 967 982 957 964 q 988 1069 986 1019 q 982 1085 989 1078 q 968 1090 978 1090 l 963 1090 q 943 1074 946 1090 q 920 1015 939 1047 q 854 965 901 982 q 781 942 831 957 q 664 914 731 928 q 524 886 596 900 q 376 861 451 872 q 360 840 357 861 l 361 819 q 369 806 364 810 q 381 801 374 801 q 382 801 382 801 q 383 801 382 801 q 542 824 464 811 q 678 849 621 836 q 695 853 686 850 q 713 857 704 856 q 717 768 715 808 q 719 693 719 728 q 715 596 719 642 q 546 581 613 588 q 450 571 479 574 l 446 569 q 431 568 438 568 q 418 568 425 568 l 415 568 q 342 578 368 568 q 296 604 317 588 q 283 607 288 607 q 271 603 278 607 l 264 596 q 257 582 260 593 q 263 568 257 576 q 283 550 271 560 q 308 532 294 540 q 415 504 353 504 q 433 505 424 504 q 453 507 442 506 q 504 511 471 508 q 577 517 538 514 q 652 524 617 521 q 708 529 688 528 q 653 332 694 421 q 411 17 571 149 q 404 5 406 13 q 408 -10 403 -3 l 413 -15 q 428 -24 419 -24 z "},"ヂ":{"ha":1389,"x_min":257,"x_max":1311,"o":"m 1265 999 q 1274 1000 1271 999 l 1299 1013 q 1308 1024 1306 1015 q 1307 1039 1311 1033 q 1249 1119 1281 1088 q 1161 1193 1217 1151 q 1150 1197 1157 1197 q 1135 1190 1142 1197 l 1128 1182 q 1122 1168 1122 1176 q 1129 1154 1125 1157 q 1198 1083 1169 1119 q 1249 1008 1226 1047 q 1265 999 1253 999 m 1156 893 q 1163 894 1160 893 l 1188 904 q 1199 917 1194 907 q 1197 932 1201 924 q 1127 1031 1169 989 q 1050 1097 1085 1072 q 1038 1101 1044 1101 q 1037 1101 1038 1101 q 1035 1100 1036 1101 q 1022 1092 1028 1100 l 1017 1085 q 1021 1058 1008 1071 q 1085 992 1053 1035 q 1138 904 1117 950 q 1156 893 1142 893 m 428 -31 q 440 -26 433 -31 q 714 297 633 117 q 753 406 738 350 q 776 526 768 463 l 818 531 l 838 532 q 1016 546 935 539 q 1129 554 1097 553 q 1142 561 1138 554 q 1147 575 1147 567 l 1144 603 q 1138 615 1144 610 q 1125 621 1132 621 q 1124 621 1125 621 q 1124 621 1124 621 q 1057 615 1108 619 q 933 606 1006 611 q 783 594 861 600 q 785 640 785 617 q 786 686 786 663 q 778 865 786 761 q 834 881 808 874 q 878 896 860 889 q 937 933 917 911 q 967 975 957 956 q 988 1063 986 1013 q 982 1078 989 1071 q 968 1083 978 1083 l 963 1083 q 943 1067 946 1083 q 920 1007 939 1039 q 854 958 901 975 q 781 936 831 950 q 664 907 731 922 q 524 878 596 892 q 376 856 451 865 q 360 833 357 853 l 361 813 q 368 799 364 803 q 381 794 375 794 q 382 794 382 794 q 383 794 382 794 q 542 817 464 806 q 678 842 621 829 q 695 846 686 844 q 713 850 704 847 q 717 763 715 803 q 719 686 719 722 q 715 589 719 635 q 546 574 613 581 q 450 564 479 567 l 446 563 q 431 561 438 561 q 418 561 425 561 l 415 561 q 342 572 368 563 q 296 597 317 581 q 283 600 288 600 q 271 596 278 600 l 264 589 q 257 575 260 586 q 263 561 257 569 q 283 543 271 553 q 308 525 294 533 q 415 497 353 497 q 433 498 424 497 q 453 500 442 499 q 504 506 471 503 q 577 511 538 508 q 652 517 617 514 q 708 522 688 519 q 653 325 694 414 q 552 154 611 231 q 411 11 493 78 q 408 -17 396 -1 l 413 -22 q 428 -31 419 -31 z "},"ッ":{"ha":1389,"x_min":356,"x_max":1015,"o":"m 499 -42 q 507 -39 501 -42 q 672 80 600 15 q 813 232 744 144 q 929 406 885 325 q 1000 571 974 486 q 1015 656 1015 621 q 1009 696 1015 681 q 993 726 1003 711 q 966 750 982 742 q 936 765 950 758 q 932 765 933 765 q 929 765 931 765 q 915 757 919 765 l 911 750 q 917 728 904 736 q 946 703 938 715 q 960 656 960 683 q 947 588 960 628 q 881 431 922 506 q 768 265 839 356 q 633 114 700 175 q 482 3 565 53 q 476 -19 469 -6 l 485 -33 q 494 -40 488 -40 q 499 -42 496 -42 m 661 488 q 663 488 663 488 q 664 489 663 489 l 685 492 q 696 497 690 492 q 699 511 700 504 q 659 648 683 585 q 603 756 635 711 q 590 763 599 763 q 582 760 585 763 l 571 756 q 565 732 558 746 q 604 654 576 715 q 646 503 632 593 q 661 488 649 488 m 458 431 q 459 431 458 431 q 461 432 460 432 l 482 435 q 493 442 489 435 q 496 454 496 446 q 396 688 464 596 q 385 693 390 693 q 383 693 383 693 q 382 693 383 693 q 372 690 378 693 l 363 682 q 356 672 357 679 q 360 660 356 665 q 442 444 419 582 q 458 431 444 431 z "},"ツ":{"ha":1389,"x_min":281,"x_max":1094,"o":"m 458 0 q 468 3 463 0 q 672 150 583 71 q 844 336 761 229 q 989 552 933 453 q 1076 756 1044 651 q 1094 860 1094 814 q 1088 910 1094 892 q 1067 946 1081 928 q 1034 975 1053 964 q 997 993 1015 986 q 990 996 994 996 q 974 985 978 996 l 968 975 q 966 961 964 969 q 975 949 968 953 q 1011 918 999 935 q 1028 860 1028 896 q 1024 821 1028 842 q 1013 775 1021 800 q 931 582 982 675 q 792 378 879 489 q 618 181 700 258 q 442 47 536 104 q 433 36 435 44 q 435 21 431 28 l 442 10 q 453 0 444 3 q 456 0 454 0 q 458 0 457 0 m 660 654 q 660 654 660 654 q 663 654 661 654 l 689 657 q 701 665 697 660 q 706 681 706 672 q 656 850 686 772 q 586 982 625 928 q 571 990 582 990 q 561 988 564 990 l 551 982 q 546 956 536 972 q 599 839 571 914 q 640 671 626 764 q 660 654 643 654 m 408 583 q 410 583 410 583 q 411 583 410 583 l 438 588 q 450 596 446 589 q 454 611 454 600 q 331 897 417 786 q 317 906 326 903 q 316 906 317 906 q 315 906 315 906 q 303 901 307 906 l 294 894 q 290 867 281 882 q 389 600 361 776 q 408 583 392 583 z "},"ヅ":{"ha":1389,"x_min":274,"x_max":1306,"o":"m 1258 1024 q 1267 1025 1264 1024 l 1292 1038 q 1301 1049 1299 1042 q 1300 1064 1306 1056 q 1242 1146 1274 1114 q 1156 1218 1210 1178 q 1143 1222 1150 1222 q 1128 1215 1135 1222 l 1121 1207 q 1115 1193 1115 1199 q 1122 1179 1118 1183 q 1242 1033 1199 1113 q 1258 1024 1247 1024 m 1149 918 q 1156 919 1153 918 l 1181 931 q 1192 942 1189 933 q 1190 957 1194 949 q 1121 1056 1164 1014 q 1043 1122 1078 1097 q 1032 1126 1036 1126 q 1030 1126 1031 1126 q 1028 1126 1029 1126 q 1015 1118 1019 1125 l 1010 1110 q 1014 1083 1001 1096 q 1078 1017 1046 1060 q 1131 929 1110 975 q 1149 918 1135 918 m 453 -32 q 458 -31 456 -32 q 464 -29 461 -31 q 667 118 578 39 q 840 304 757 197 q 985 520 931 421 q 1072 724 1040 619 q 1090 828 1090 782 q 1083 877 1090 858 q 1063 914 1076 896 q 1029 944 1049 933 q 993 963 1010 956 q 990 963 992 963 q 986 964 988 964 q 968 953 975 964 l 963 943 q 969 917 954 926 q 1007 886 994 904 q 1024 828 1024 861 q 1008 743 1024 796 q 926 550 978 643 q 788 346 874 457 q 613 149 696 226 q 438 15 531 72 q 428 4 431 13 q 431 -11 426 -4 l 436 -22 q 449 -32 442 -31 q 451 -32 450 -32 q 453 -32 451 -32 m 656 622 q 656 622 656 622 q 657 622 657 622 l 683 625 q 697 633 693 628 q 700 649 701 640 q 652 818 682 740 q 582 950 622 896 q 567 958 575 958 q 556 956 558 958 l 547 950 q 540 924 531 940 q 594 808 567 882 q 636 639 622 733 q 656 622 639 622 m 404 551 q 405 551 404 551 q 407 551 406 551 l 433 556 q 446 564 442 558 q 449 579 450 571 q 326 865 411 757 q 313 874 319 872 q 312 874 313 874 q 310 874 311 874 q 299 869 303 874 l 289 863 q 286 835 274 850 q 346 723 322 788 q 385 568 369 658 q 404 551 388 551 z "},"テ":{"ha":1389,"x_min":240,"x_max":1142,"o":"m 463 -39 q 475 -35 469 -39 q 632 131 567 36 q 733 336 697 225 q 768 564 768 447 q 768 576 768 569 q 768 589 768 583 q 933 605 843 596 q 1124 625 1022 614 q 1138 633 1133 628 q 1142 647 1142 639 l 1139 675 q 1119 692 1136 692 q 1118 692 1118 692 q 1117 692 1118 692 l 1110 690 q 997 679 1074 688 q 831 663 919 671 q 749 654 803 660 q 635 643 696 649 q 522 633 574 638 q 446 626 471 628 q 438 626 442 626 q 431 626 433 626 q 331 647 364 628 q 282 685 299 667 q 268 692 275 692 q 257 689 263 692 l 250 685 q 242 672 242 679 q 244 657 240 664 q 269 625 254 642 q 304 594 283 608 q 431 560 353 560 q 440 560 435 560 q 450 560 444 560 q 540 567 476 561 q 701 582 603 572 q 701 573 701 578 q 701 564 701 568 q 676 376 701 478 q 595 177 651 274 q 443 7 539 81 q 436 -7 436 0 q 440 -21 435 -15 l 447 -31 q 463 -39 453 -39 m 551 876 q 563 877 557 876 q 574 878 568 878 q 707 892 608 881 q 953 921 806 903 q 965 928 961 921 q 969 942 969 933 l 967 969 q 946 986 964 986 q 945 986 946 986 q 944 986 944 986 q 883 979 924 983 q 794 969 842 975 q 648 953 704 958 q 568 944 592 947 q 558 943 563 943 q 551 943 554 943 l 549 943 q 478 956 503 943 q 433 989 453 968 q 419 994 428 994 q 408 992 414 994 l 403 988 q 394 974 394 981 q 397 960 392 967 q 423 929 410 942 q 450 906 436 917 q 550 876 494 876 l 551 876 z "},"デ":{"ha":1389,"x_min":240,"x_max":1286,"o":"m 1240 1003 q 1249 1006 1243 1003 l 1274 1017 q 1283 1029 1282 1022 q 1282 1044 1286 1036 q 1224 1125 1256 1093 q 1136 1199 1192 1157 q 1125 1201 1131 1201 q 1110 1196 1115 1201 l 1103 1186 q 1097 1172 1097 1182 q 1104 1160 1100 1163 q 1224 1014 1181 1090 q 1240 1003 1228 1003 m 1131 897 q 1138 900 1132 897 l 1163 910 q 1174 921 1169 914 q 1172 936 1176 931 q 1101 1035 1144 993 q 1024 1103 1058 1076 q 1013 1106 1018 1106 q 1012 1106 1013 1106 q 1010 1106 1011 1106 q 997 1097 1001 1103 l 992 1090 q 996 1064 982 1074 q 1060 997 1028 1039 q 1113 910 1092 956 q 1131 897 1118 897 m 463 -39 q 475 -35 469 -39 q 632 131 567 36 q 733 336 697 225 q 768 564 768 447 q 768 576 768 569 q 768 589 768 583 q 933 605 843 596 q 1124 625 1022 614 q 1138 633 1133 628 q 1142 647 1142 639 l 1139 675 q 1119 692 1136 692 q 1118 692 1118 692 q 1117 692 1118 692 l 1110 690 q 997 679 1074 688 q 831 663 919 671 q 749 654 803 660 q 635 643 696 649 q 522 633 574 638 q 446 626 471 628 q 438 626 442 626 q 431 626 433 626 q 331 647 364 628 q 282 685 297 667 q 268 692 275 692 q 257 689 263 692 l 250 685 q 242 672 242 679 q 244 657 240 664 q 269 625 254 642 q 304 594 283 608 q 431 560 353 560 q 440 560 435 560 q 450 560 444 560 q 540 567 476 561 q 701 582 603 572 q 701 573 701 578 q 701 564 701 568 q 676 376 701 478 q 595 177 651 274 q 443 7 539 81 q 436 -7 436 0 q 440 -21 435 -15 l 447 -31 q 463 -39 453 -39 m 551 876 q 563 877 557 876 q 574 878 568 878 q 707 892 608 881 q 953 921 806 903 q 965 928 961 921 q 969 942 969 933 l 967 969 q 946 986 964 986 q 945 986 946 986 q 944 986 944 986 q 883 979 924 983 q 794 969 842 975 q 648 953 704 958 q 568 944 592 947 q 558 943 563 943 q 551 943 554 943 l 549 943 q 478 956 503 943 q 433 989 453 968 q 419 994 428 994 q 408 992 414 994 l 403 988 q 394 974 394 981 q 397 960 392 967 q 423 929 410 942 q 450 906 436 917 q 550 876 494 876 l 551 876 z "},"ト":{"ha":1389,"x_min":569,"x_max":1028,"o":"m 617 -33 q 631 -28 625 -33 q 636 -14 636 -24 l 640 588 q 754 531 701 561 q 860 463 807 501 q 976 369 914 424 q 989 365 983 365 q 1004 372 997 365 l 1022 393 q 1026 407 1028 401 q 1019 421 1026 414 q 899 515 957 475 q 778 589 840 556 q 640 653 717 622 l 643 1057 q 638 1070 643 1064 q 624 1076 632 1076 l 601 1076 q 588 1071 592 1076 q 582 1057 582 1067 l 571 -14 q 576 -28 569 -21 q 589 -33 581 -33 l 617 -33 q 617 -33 617 -33 q 617 -33 617 -33 z "},"ド":{"ha":1389,"x_min":569,"x_max":1156,"o":"m 1111 892 q 1119 893 1117 892 l 1143 906 q 1154 917 1149 908 q 1153 932 1156 924 q 1093 1014 1125 982 q 1007 1086 1061 1046 q 994 1090 1000 1090 q 981 1083 985 1090 l 972 1075 q 968 1061 968 1069 q 975 1047 968 1054 q 1093 901 1053 979 q 1111 892 1100 892 m 1000 786 q 1004 787 1003 786 q 1007 788 1006 788 l 1032 799 q 1043 810 1040 801 q 1043 825 1046 814 q 973 924 1015 882 q 894 990 931 965 q 883 994 890 994 q 881 994 882 994 q 879 994 881 994 q 867 986 871 992 l 863 978 q 867 951 851 964 q 929 885 897 928 q 982 797 961 843 q 1000 786 989 786 m 617 -33 q 631 -28 625 -33 q 636 -14 636 -24 l 640 588 q 754 531 701 561 q 860 463 807 501 q 976 369 914 424 q 989 365 983 365 q 1004 372 997 365 l 1022 393 q 1026 407 1028 401 q 1019 421 1026 414 q 899 515 957 475 q 778 589 840 556 q 640 653 717 622 l 643 1057 q 638 1070 643 1064 q 624 1076 632 1076 l 601 1076 q 588 1071 592 1076 q 582 1057 582 1067 l 571 -14 q 576 -28 569 -21 q 589 -33 581 -33 l 617 -33 q 617 -33 617 -33 q 617 -33 617 -33 z "},"ナ":{"ha":1389,"x_min":226,"x_max":1147,"o":"m 417 -32 q 428 -28 424 -32 q 588 110 525 40 q 692 264 651 179 q 747 423 726 336 q 774 621 767 510 l 806 622 l 858 626 q 1023 639 947 633 q 1129 647 1099 644 q 1142 654 1138 647 q 1147 668 1147 660 l 1144 696 q 1139 710 1144 701 q 1125 714 1133 714 q 1125 714 1125 714 q 1124 714 1125 714 l 1115 713 l 1106 713 q 1023 707 1075 711 q 907 697 971 703 q 776 688 843 692 q 778 717 778 703 q 779 746 778 732 q 779 765 779 756 q 779 785 779 775 q 774 962 779 890 q 767 1060 769 1033 q 760 1074 765 1065 q 747 1078 753 1078 q 746 1078 746 1078 q 744 1078 746 1078 l 717 1074 q 704 1066 710 1072 q 700 1053 699 1060 l 700 1050 q 708 955 703 1024 q 713 785 713 886 q 713 765 713 775 q 713 746 713 756 q 711 715 711 731 q 710 682 711 699 q 561 670 619 675 q 475 663 503 665 q 449 660 461 661 q 425 660 436 660 q 329 676 363 660 q 272 718 296 692 q 257 725 265 725 q 247 722 253 725 l 238 717 q 228 704 231 714 q 231 689 226 696 q 256 657 240 675 q 294 624 271 639 q 425 593 343 593 q 451 594 438 593 q 481 596 465 594 q 563 603 507 599 q 707 615 618 608 q 681 425 699 504 q 636 288 664 346 q 538 135 596 203 q 401 11 481 68 q 393 -1 394 7 q 396 -15 392 -8 l 401 -24 q 414 -32 406 -31 q 415 -32 415 -32 q 417 -32 415 -32 z "},"ニ":{"ha":1389,"x_min":203,"x_max":1160,"o":"m 399 204 q 458 208 425 204 q 560 216 493 211 q 707 225 628 221 q 858 233 786 229 q 994 240 922 236 q 1142 249 1065 244 q 1156 254 1150 249 q 1160 268 1160 261 l 1158 296 q 1153 310 1158 301 q 1139 314 1147 314 q 1138 314 1139 314 q 1138 314 1138 314 q 1028 309 1099 313 q 874 301 958 306 q 707 291 790 296 q 556 282 624 286 q 451 274 488 278 q 424 272 436 272 q 403 271 413 271 q 401 271 401 271 q 399 271 400 271 q 310 286 346 272 q 244 331 274 300 q 231 338 240 338 q 221 335 226 338 l 214 331 q 204 318 207 326 q 207 303 203 310 q 274 233 236 256 q 397 204 322 204 l 399 204 m 513 722 q 528 722 519 722 q 547 724 536 722 q 689 741 578 726 q 982 779 800 756 q 994 786 989 781 q 999 801 1001 793 l 996 828 q 976 846 993 846 q 974 846 975 846 q 974 846 974 846 l 957 843 l 919 838 q 860 831 892 835 q 792 821 828 826 q 625 800 688 808 q 540 790 563 792 q 528 789 533 789 q 515 789 522 789 q 515 789 515 789 q 513 789 514 789 q 438 805 461 792 q 401 833 415 818 q 386 840 397 840 q 376 838 385 840 l 369 833 q 360 821 363 831 q 363 806 358 813 q 392 769 378 785 q 424 744 407 754 q 511 722 460 722 l 513 722 z "},"ヌ":{"ha":1389,"x_min":269,"x_max":1025,"o":"m 301 19 q 311 22 306 19 q 554 203 442 100 q 757 432 667 307 q 967 221 874 333 q 982 213 972 213 q 994 218 986 213 l 1015 235 q 1022 247 1022 239 q 1018 263 1025 256 q 794 488 919 383 q 1008 933 925 683 q 1006 953 1013 943 l 983 978 q 969 985 979 985 q 967 985 968 985 q 965 985 967 985 l 961 983 q 901 974 942 981 q 811 960 861 968 q 723 946 769 953 q 634 933 676 939 q 563 924 592 928 q 545 923 554 924 q 528 922 536 922 q 526 922 526 922 q 524 922 525 922 q 444 935 467 924 q 404 965 421 947 q 389 972 397 972 q 381 969 386 972 l 371 965 q 361 953 363 960 q 364 938 358 944 q 388 907 375 919 q 414 883 400 894 q 524 856 457 856 q 547 856 535 856 q 571 858 558 856 q 678 875 613 864 q 810 897 744 886 l 815 897 q 878 908 849 903 q 932 918 908 914 q 844 709 892 807 q 742 528 796 611 q 602 612 669 579 q 476 667 535 644 q 472 667 475 667 q 468 668 469 668 q 451 656 456 668 l 447 647 q 446 632 443 639 q 457 621 450 625 q 581 556 518 594 q 704 474 644 518 q 512 249 615 350 q 285 65 408 149 q 279 39 269 56 l 285 29 q 301 19 292 19 z "},"ネ":{"ha":1389,"x_min":225,"x_max":1111,"o":"m 1075 217 q 1076 217 1076 217 q 1078 217 1076 217 q 1090 224 1086 217 l 1107 246 q 1111 260 1111 253 q 1103 274 1110 267 q 973 375 1032 325 q 861 481 914 425 q 847 488 857 488 q 835 482 843 488 l 826 476 q 819 463 822 472 q 825 449 819 453 q 923 343 867 400 q 1063 221 979 286 q 1075 217 1069 217 m 711 -53 q 731 -33 731 -53 l 731 513 q 731 515 731 514 q 731 518 731 517 q 829 629 779 569 q 936 767 879 689 q 938 789 944 778 l 919 818 q 903 828 914 828 q 902 827 903 828 q 900 826 901 826 q 851 819 890 825 q 760 804 813 813 q 655 787 707 796 q 567 772 603 778 q 528 768 544 768 l 526 768 q 452 780 475 768 q 417 807 429 792 q 401 814 411 814 q 392 811 394 814 l 385 807 q 375 794 376 801 q 378 779 374 789 q 426 731 400 749 q 526 703 467 703 q 578 707 550 703 q 681 724 614 714 q 840 750 747 735 q 709 590 772 663 q 577 453 646 517 q 426 327 508 389 q 235 200 343 265 q 226 188 228 196 q 229 172 225 179 l 233 164 q 250 156 239 156 q 260 158 254 156 q 490 309 392 238 q 669 456 589 381 l 665 -33 q 671 -47 665 -42 q 685 -53 675 -53 l 711 -53 m 769 915 q 772 915 771 915 q 774 915 772 915 q 786 924 782 918 l 800 946 q 803 961 804 953 q 793 974 801 968 q 687 1038 739 1004 q 590 1106 635 1071 q 578 1110 583 1110 q 564 1104 572 1110 l 558 1097 q 553 1083 551 1090 q 560 1069 553 1074 q 639 1004 589 1043 q 758 918 689 965 q 769 915 764 915 z "},"ノ":{"ha":1389,"x_min":308,"x_max":950,"o":"m 340 28 q 353 32 347 28 q 608 273 500 154 q 794 519 717 392 q 928 796 872 647 q 949 892 950 856 q 929 954 947 928 q 890 997 911 981 q 860 1019 869 1014 q 850 1022 857 1022 q 833 1014 839 1022 l 825 1000 q 823 986 821 994 q 831 974 825 978 q 868 939 857 957 q 882 892 882 919 q 867 819 882 865 q 738 549 811 672 q 561 312 664 426 q 317 75 458 197 q 310 63 311 71 q 314 49 308 56 l 325 35 q 340 28 332 28 z "},"ハ":{"ha":1389,"x_min":182,"x_max":1157,"o":"m 1110 233 q 1112 234 1111 233 q 1114 235 1113 235 l 1140 242 q 1153 251 1147 243 q 1154 267 1157 257 q 1074 488 1119 390 q 967 665 1028 585 q 822 815 906 744 q 808 819 817 819 q 796 814 800 819 l 789 807 q 783 793 783 803 q 789 781 783 785 q 970 544 899 671 q 1090 249 1042 418 q 1110 233 1096 233 m 215 172 q 229 178 221 172 q 449 431 369 314 q 554 614 528 549 q 575 714 575 669 q 556 778 575 750 q 506 818 538 806 q 499 819 503 819 q 482 810 486 819 l 476 799 q 481 774 468 786 q 499 756 493 765 q 508 714 508 740 q 492 638 508 679 q 375 426 446 526 q 193 215 304 325 q 193 188 182 201 l 201 179 q 215 172 206 172 q 215 172 215 172 q 215 172 215 172 z "},"バ":{"ha":1389,"x_min":182,"x_max":1207,"o":"m 1161 872 q 1169 875 1164 872 l 1194 888 q 1204 899 1201 890 q 1203 914 1207 908 q 1144 994 1176 963 q 1057 1068 1113 1026 q 1046 1072 1053 1072 q 1031 1065 1038 1072 l 1024 1057 q 1018 1043 1018 1051 q 1025 1029 1021 1032 q 1093 958 1064 994 q 1144 883 1122 922 q 1161 872 1149 872 m 1051 768 q 1058 769 1056 768 l 1083 779 q 1094 790 1092 783 q 1093 807 1097 800 q 1023 906 1065 864 q 946 972 981 947 q 933 976 939 976 q 933 976 933 976 q 931 975 932 975 q 918 967 924 975 l 913 960 q 917 933 904 946 q 981 867 949 908 q 1033 779 1013 825 q 1051 768 1038 768 m 1110 233 q 1112 234 1111 233 q 1114 235 1113 235 l 1140 242 q 1153 251 1147 243 q 1154 267 1157 257 q 1074 488 1119 390 q 967 665 1028 585 q 822 815 906 744 q 808 819 817 819 q 796 814 800 819 l 789 807 q 783 793 783 803 q 789 781 783 785 q 970 544 899 671 q 1090 249 1042 418 q 1110 233 1096 233 m 215 172 q 229 178 221 172 q 449 431 369 314 q 554 614 528 549 q 575 714 575 669 q 556 778 575 750 q 506 818 538 806 q 499 819 503 819 q 482 810 486 819 l 476 799 q 481 774 468 786 q 499 756 493 765 q 508 714 508 740 q 492 638 508 679 q 375 426 446 526 q 193 215 304 325 q 193 188 182 201 l 201 179 q 215 172 206 172 q 215 172 215 172 q 215 172 215 172 z "},"パ":{"ha":1389,"x_min":182,"x_max":1183,"o":"m 1064 1010 q 1112 990 1092 1010 q 1132 942 1132 969 q 1112 894 1132 914 q 1064 875 1092 875 q 1017 894 1036 875 q 997 942 997 914 q 1017 990 997 969 q 1064 1010 1036 1010 m 1064 822 q 1149 858 1114 822 q 1183 942 1183 893 q 1149 1027 1183 992 q 1064 1063 1114 1063 q 980 1027 1015 1063 q 944 942 944 992 q 980 858 944 893 q 1064 822 1015 822 m 1110 233 q 1112 234 1111 233 q 1114 235 1113 235 l 1140 242 q 1153 251 1147 243 q 1154 267 1157 257 q 1074 488 1119 390 q 967 665 1028 585 q 822 815 906 744 q 808 819 817 819 q 796 814 800 819 l 789 807 q 783 793 783 803 q 789 781 783 785 q 970 544 899 671 q 1090 249 1042 418 q 1110 233 1096 233 m 215 172 q 229 178 221 172 q 449 431 369 314 q 554 614 528 549 q 575 714 575 669 q 556 778 575 750 q 506 818 538 806 q 499 819 503 819 q 482 810 486 819 l 476 799 q 481 774 468 786 q 499 756 493 765 q 508 714 508 740 q 492 638 508 679 q 375 426 446 526 q 193 215 304 325 q 193 188 182 201 l 201 179 q 215 172 206 172 q 215 172 215 172 q 215 172 215 172 z "},"ヒ":{"ha":1389,"x_min":404,"x_max":1078,"o":"m 779 43 q 1061 68 924 43 q 1074 76 1069 69 q 1076 92 1078 83 l 1075 99 q 1057 114 1072 114 q 1055 114 1056 114 q 1054 114 1054 114 q 803 97 917 97 q 763 98 782 97 q 725 100 743 99 q 514 221 574 110 q 481 318 492 261 q 468 451 469 375 q 642 519 556 481 q 799 594 729 557 q 907 656 869 631 q 965 713 944 679 q 985 786 986 747 q 963 867 985 828 q 950 876 958 874 q 948 876 949 876 q 946 876 947 876 q 935 874 940 876 l 928 868 q 921 846 915 861 q 871 711 949 765 q 769 652 833 686 q 625 583 704 618 q 468 521 546 547 q 467 561 467 540 q 468 600 468 582 q 469 612 468 606 q 469 624 469 618 l 469 635 q 473 771 471 717 q 478 878 475 825 q 482 928 481 904 q 486 976 483 953 q 482 990 488 983 q 469 997 476 996 l 447 1000 q 447 1000 447 1000 q 444 1000 446 1000 q 433 996 438 1000 q 425 982 426 989 q 415 838 422 940 q 406 603 408 735 q 406 578 406 590 q 406 554 406 567 l 406 550 q 404 511 404 532 q 404 468 404 490 q 413 324 404 396 q 456 189 422 251 q 725 43 529 50 q 752 43 739 43 q 779 43 765 43 z "},"ビ":{"ha":1389,"x_min":404,"x_max":1253,"o":"m 1208 938 q 1217 940 1211 938 l 1240 951 q 1251 964 1247 954 q 1250 979 1253 968 q 1190 1060 1222 1028 q 1104 1133 1158 1092 q 1092 1136 1096 1136 q 1078 1131 1082 1136 l 1069 1121 q 1065 1107 1065 1117 q 1072 1094 1065 1099 q 1190 949 1150 1025 q 1208 938 1197 938 m 1097 832 q 1104 835 1101 832 l 1129 844 q 1140 856 1139 849 q 1140 871 1143 861 q 1070 970 1113 928 q 992 1038 1028 1013 q 981 1040 986 1040 q 978 1040 979 1040 q 976 1040 978 1040 q 964 1032 968 1039 l 960 1025 q 956 1011 954 1019 q 964 999 958 1003 q 1026 932 994 974 q 1079 844 1058 890 q 1097 832 1086 832 m 779 43 q 1061 68 924 43 q 1074 76 1069 69 q 1076 92 1078 83 l 1075 99 q 1057 114 1072 114 q 1055 114 1056 114 q 1054 114 1054 114 q 803 97 917 97 q 763 98 782 97 q 725 100 743 99 q 514 221 574 110 q 481 318 492 261 q 468 451 469 375 q 642 519 556 481 q 799 594 729 557 q 907 656 869 631 q 965 713 944 679 q 985 786 986 747 q 963 867 985 828 q 950 876 958 874 q 948 876 949 876 q 946 876 947 876 q 935 874 940 876 l 928 868 q 921 846 915 861 q 871 711 949 765 q 769 652 833 686 q 625 583 704 618 q 468 521 546 547 q 467 561 467 540 q 468 600 468 582 q 469 612 468 606 q 469 624 469 618 l 469 635 q 473 771 471 717 q 478 878 475 825 q 482 928 481 904 q 486 976 483 953 q 482 990 488 983 q 469 997 476 996 l 447 1000 q 447 1000 447 1000 q 444 1000 446 1000 q 433 996 438 1000 q 425 982 426 989 q 415 838 422 940 q 406 603 408 735 q 406 578 406 590 q 406 554 406 567 l 406 550 q 404 511 404 532 q 404 468 404 490 q 413 324 404 396 q 456 189 422 251 q 725 43 529 50 q 752 43 739 43 q 779 43 765 43 z "}}}
